<mxfile modified="2024-05-10T02:18:43.325Z" host="app.diagrams.net" agent="Mozilla/5.0 (Macintosh; Intel Mac OS X 10_15_7) AppleWebKit/537.36 (KHTML, like Gecko) Chrome/124.0.0.0 Safari/537.36" etag="IZhdgHQhgCdvH-pZXG7A" version="21.7.2" type="device">
  <diagram id="Ht1M8jgEwFfnCIfOTk4-" name="Page-1">
    <mxGraphModel dx="1434" dy="761" grid="1" gridSize="10" guides="1" tooltips="1" connect="1" arrows="1" fold="1" page="1" pageScale="1" pageWidth="1169" pageHeight="827" math="0" shadow="0">
      <root>
        <mxCell id="0" />
        <mxCell id="1" parent="0" />
        <mxCell id="jVyCfuGsHyISrXu1QeCp-4" style="edgeStyle=orthogonalEdgeStyle;rounded=0;orthogonalLoop=1;jettySize=auto;html=1;" edge="1" parent="1" source="jVyCfuGsHyISrXu1QeCp-1" target="jVyCfuGsHyISrXu1QeCp-2">
          <mxGeometry relative="1" as="geometry" />
        </mxCell>
        <mxCell id="jVyCfuGsHyISrXu1QeCp-5" style="edgeStyle=orthogonalEdgeStyle;rounded=0;orthogonalLoop=1;jettySize=auto;html=1;" edge="1" parent="1" source="jVyCfuGsHyISrXu1QeCp-1" target="jVyCfuGsHyISrXu1QeCp-3">
          <mxGeometry relative="1" as="geometry">
            <Array as="points">
              <mxPoint x="700" y="569" />
              <mxPoint x="700" y="409" />
            </Array>
          </mxGeometry>
        </mxCell>
        <mxCell id="jVyCfuGsHyISrXu1QeCp-1" value="Amazon CloudFront" style="sketch=0;points=[[0,0,0],[0.25,0,0],[0.5,0,0],[0.75,0,0],[1,0,0],[0,1,0],[0.25,1,0],[0.5,1,0],[0.75,1,0],[1,1,0],[0,0.25,0],[0,0.5,0],[0,0.75,0],[1,0.25,0],[1,0.5,0],[1,0.75,0]];outlineConnect=0;fontColor=#232F3E;gradientColor=#945DF2;gradientDirection=north;fillColor=#5A30B5;strokeColor=#ffffff;dashed=0;verticalLabelPosition=bottom;verticalAlign=top;align=center;html=1;fontSize=12;fontStyle=0;aspect=fixed;shape=mxgraph.aws4.resourceIcon;resIcon=mxgraph.aws4.cloudfront;" vertex="1" parent="1">
          <mxGeometry x="510" y="530" width="78" height="78" as="geometry" />
        </mxCell>
        <mxCell id="jVyCfuGsHyISrXu1QeCp-2" value="Lambda" style="outlineConnect=0;fontColor=#232F3E;gradientColor=#F78E04;gradientDirection=north;fillColor=#D05C17;strokeColor=#ffffff;dashed=0;verticalLabelPosition=bottom;verticalAlign=top;align=center;html=1;fontSize=12;fontStyle=0;aspect=fixed;shape=mxgraph.aws4.resourceIcon;resIcon=mxgraph.aws4.lambda;labelBackgroundColor=#ffffff;spacingTop=3;" vertex="1" parent="1">
          <mxGeometry x="810" y="530" width="78" height="78" as="geometry" />
        </mxCell>
        <mxCell id="jVyCfuGsHyISrXu1QeCp-3" value="Amazon S3" style="outlineConnect=0;fontColor=#232F3E;gradientColor=#60A337;gradientDirection=north;fillColor=#277116;strokeColor=#ffffff;dashed=0;verticalLabelPosition=bottom;verticalAlign=top;align=center;html=1;fontSize=12;fontStyle=0;aspect=fixed;shape=mxgraph.aws4.resourceIcon;resIcon=mxgraph.aws4.s3;labelBackgroundColor=#ffffff;" vertex="1" parent="1">
          <mxGeometry x="810.0000000000002" y="370" width="78" height="78" as="geometry" />
        </mxCell>
        <mxCell id="jVyCfuGsHyISrXu1QeCp-7" style="edgeStyle=orthogonalEdgeStyle;rounded=0;orthogonalLoop=1;jettySize=auto;html=1;" edge="1" parent="1" source="jVyCfuGsHyISrXu1QeCp-6" target="jVyCfuGsHyISrXu1QeCp-1">
          <mxGeometry relative="1" as="geometry" />
        </mxCell>
        <mxCell id="jVyCfuGsHyISrXu1QeCp-6" value="Actor" style="shape=umlActor;verticalLabelPosition=bottom;verticalAlign=top;html=1;outlineConnect=0;" vertex="1" parent="1">
          <mxGeometry x="290" y="539" width="30" height="60" as="geometry" />
        </mxCell>
        <mxCell id="jVyCfuGsHyISrXu1QeCp-8" value="" style="shape=image;verticalLabelPosition=bottom;labelBackgroundColor=default;verticalAlign=top;aspect=fixed;imageAspect=0;image=data:image/png,iVBORw0KGgoAAAANSUhEUgAAAbkAAADmCAYAAABI+/u+AAAKpWlDQ1BJQ0MgUHJvZmlsZQAASImVlwdQk9kWgO//p4eEAKFLCb0J0gkgJfRQpFdRCUmAUEIMBBS7sriCK4qIFBUpS1VwVYqsFVEsiGLDviCLgPJcLNhQeT8whN19bd7J3LnfnJx7yp17Zs4PAFmKJRAkw1IApPDThUGeLrSIyCgabhRAgID8bIAai50mYAQE+AJE5ve/yof7iDUid4xnfP3r//9VpDncNDYAUADCsZw0dgrCJ5E1zhYI0wFAHUb0WpnpghnuQlhWiCSI8IMZjp/j8RmOnWU0mLUJCXJFWBYAPInFEsYDQKIheloGOx7xQ3JG2JTP4fERFiDsmJKSykH4GML6iA2iI834p8f+yU/8X3zGin2yWPFinqtlVvBuvDRBMmvt/3kd/1tSkkXzMXSRRUoQegXN1Izc2YOkVB8x82OX+c8zjzNrP8sJIq/QeWanuUbNM4fl5iM+m7zMd57jeB5MsZ90Zsg8c9Pcg+dZmBokjhUndGXMM0u4EFeUFCrWJ3CZYv9ZCSHh85zBC1s2z2lJwT4LNq5ivVAUJM6fy/d0WYjrIa49Je1P9fKY4rPpCSFe4tpZC/lz+YwFn2kR4tw4XDf3BZtQsb0g3UUcS5AcILbnJnuK9WkZweKz6ciDXDgbIL7DRJZ3wDyDAJAAkgENmCNdZw7ckeWRzl2TPlOIa6pgrZAXn5BOYyAdxqUx+WyTxTRzU3NLAGb6de45vAua7UNI/uyCLrUaecYfkB7Zs6CLLQSgLQcAxUcLOu1DAFCyAWjtZIuEGXO62V7CACKgIBkqATWgBfSBMZKXNbAHzkiG3sAfhIBIsBKwkdxTgBBkgvVgC8gBeWA32AdKQTmoAnXgKDgO2sBpcAFcBtfBLXAPPAYDYBi8AhPgA5iCIAgHkSEqpASpQzqQEWQO0SFHyB3yhYKgSCgGiof4kAhaD22D8qACqBSqgOqhX6BT0AXoKtQHPYQGoTHoLfQFRsEkWBZWhXXhJTAdZsA+cAi8Ao6HV8NZcDa8Cy6GK+EjcCt8Ab4O34MH4FfwJAqgJFDyKA2UMYqOckX5o6JQcSghaiMqF1WEqkQ1oTpQ3ag7qAHUOOozGoumomloY7Q92gsdimajV6M3oneiS9F16FZ0F/oOehA9gf6OIWNUMEYYOwwTE4GJx2RicjBFmBpMC+YS5h5mGPMBi8XKY/WwNlgvbCQ2EbsOuxN7ENuMPY/tww5hJ3E4nBLOCOeA88excOm4HFwJ7gjuHO42bhj3CS+BV8eb4z3wUXg+fiu+CN+AP4u/jR/BTxGkCDoEO4I/gUNYS8gnVBM6CDcJw4QpojRRj+hADCEmErcQi4lNxEvEJ8R3EhISmhK2EoESPInNEsUSxySuSAxKfCbJkAxJrqRokoi0i1RLOk96SHpHJpN1yc7kKHI6eRe5nnyR/Iz8SZIqaSLJlORIbpIsk2yVvC35mkKg6FAYlJWULEoR5QTlJmVciiClK+UqxZLaKFUmdUqqX2pSmiptJu0vnSK9U7pB+qr0qAxORlfGXYYjky1TJXNRZoiKompRXals6jZqNfUSdVgWK6sny5RNlM2TPSrbKzshJyNnKRcmt0auTO6M3IA8Sl5XnimfLJ8vf1z+vvwXBVUFhgJXYYdCk8JthY+KixSdFbmKuYrNivcUvyjRlNyVkpT2KLUpPVVGKxsqBypnKh9SvqQ8vkh2kf0i9qLcRccXPVKBVQxVglTWqVSp9KhMqqqpeqoKVEtUL6qOq8mrOaslqhWqnVUbU6eqO6rz1AvVz6m/pMnRGLRkWjGtizahoaLhpSHSqNDo1ZjS1NMM1dyq2az5VIuoRdeK0yrU6tSa0FbX9tNer92o/UiHoEPXSdDZr9Ot81FXTzdcd7tum+6onqIeUy9Lr1HviT5Z30l/tX6l/l0DrAHdIMngoMEtQ9jQyjDBsMzwphFsZG3EMzpo1LcYs9h2MX9x5eJ+Y5IxwzjDuNF40ETexNdkq0mbyesl2kuiluxZ0r3ku6mVabJpteljMxkzb7OtZh1mb80NzdnmZeZ3LcgWHhabLNot3lgaWXItD1k+sKJa+Vltt+q0+mZtYy20brIes9G2ibE5YNNPl6UH0HfSr9hibF1sN9metv1sZ22Xbnfc7g97Y/sk+wb70aV6S7lLq5cOOWg6sBwqHAYcaY4xjocdB5w0nFhOlU7PnbWcOc41ziMMA0Yi4wjjtYupi9ClxeWjq53rBtfzbig3T7dct153GfdQ91L3Zx6aHvEejR4Tnlae6zzPe2G8fLz2ePUzVZlsZj1zwtvGe4N3lw/JJ9in1Oe5r6Gv0LfDD/bz9tvr92SZzjL+sjZ/4M/03+v/NEAvYHXAr4HYwIDAssAXQWZB64O6g6nBq4Ibgj+EuITkhzwO1Q8VhXaGUcKiw+rDPoa7hReED0QsidgQcT1SOZIX2R6FiwqLqomaXO6+fN/y4Wir6Jzo+yv0VqxZcXWl8srklWdWUVaxVp2IwcSExzTEfGX5sypZk7HM2AOxE2xX9n72K44zp5AzxnXgFnBH4hziCuJG4x3i98aPJTglFCWM81x5pbw3iV6J5Ykfk/yTapOmk8OTm1PwKTEpp/gy/CR+V6pa6prUPoGRIEcwsNpu9b7VE0IfYU0alLYirT1dFhmMekT6oh9EgxmOGWUZnzLDMk+skV7DX9Oz1nDtjrUjWR5ZP69Dr2Ov61yvsX7L+sENjA0VG6GNsRs7N2ltyt40vNlzc90W4pakLTe2mm4t2Pp+W/i2jmzV7M3ZQz94/tCYI5kjzOnfbr+9/Ef0j7wfe3dY7CjZ8T2Xk3stzzSvKO/rTvbOaz+Z/VT80/SuuF29+db5h3Zjd/N339/jtKeuQLogq2Bor9/e1kJaYW7h+32r9l0tsiwq30/cL9o/UOxb3F6iXbK75GtpQum9Mpey5gMqB3Yc+HiQc/D2IedDTeWq5XnlXw7zDj+o8KxordStLKrCVmVUvagOq+7+mf5zfY1yTV7Nt1p+7UBdUF1XvU19fYNKQ34j3ChqHDsSfeTWUbej7U3GTRXN8s15x8Ax0bGXv8T8cv+4z/HOE/QTTSd1Th5oobbktkKta1sn2hLaBtoj2/tOeZ/q7LDvaPnV5Nfa0xqny87Inck/SzybfXb6XNa5yfOC8+MX4i8Mda7qfHwx4uLdrsCu3ks+l65c9rh8sZvRfe6Kw5XTV+2unrpGv9Z23fp6a49VT8sNqxstvda9rTdtbrbfsr3V0be07+xtp9sX7rjduXyXeff6vWX3+u6H3n/QH90/8IDzYPRh8sM3jzIeTT3e/ATzJPep1NOiZyrPKn8z+K15wHrgzKDbYM/z4OePh9hDr35P+/3rcPYL8ouiEfWR+lHz0dNjHmO3Xi5/OfxK8GpqPOcf0v848Fr/9ck/nP/omYiYGH4jfDP9duc7pXe17y3fd04GTD77kPJh6mPuJ6VPdZ/pn7u/hH8Zmcr8ivta/M3gW8d3n+9PplOmpwUsIWt2FEAhC46LA+BtLQDkSACotwAgLp+bp2cFmvsGmCXwn3hu5p4VawCq+gEIWQeA7w0ASkqRcRbxT4kGIICC6O0BbGEhXvOz7+ycPiMMEgCdtgD4WYF/I3Mz/J/y/vsOZrxagr/v/wQ11QTNJJ9kuwAAAFZlWElmTU0AKgAAAAgAAYdpAAQAAAABAAAAGgAAAAAAA5KGAAcAAAASAAAARKACAAQAAAABAAABuaADAAQAAAABAAAA5gAAAABBU0NJSQAAAFNjcmVlbnNob3TKFEFKAAAB1mlUWHRYTUw6Y29tLmFkb2JlLnhtcAAAAAAAPHg6eG1wbWV0YSB4bWxuczp4PSJhZG9iZTpuczptZXRhLyIgeDp4bXB0az0iWE1QIENvcmUgNi4wLjAiPgogICA8cmRmOlJERiB4bWxuczpyZGY9Imh0dHA6Ly93d3cudzMub3JnLzE5OTkvMDIvMjItcmRmLXN5bnRheC1ucyMiPgogICAgICA8cmRmOkRlc2NyaXB0aW9uIHJkZjphYm91dD0iIgogICAgICAgICAgICB4bWxuczpleGlmPSJodHRwOi8vbnMuYWRvYmUuY29tL2V4aWYvMS4wLyI+CiAgICAgICAgIDxleGlmOlBpeGVsWURpbWVuc2lvbj4yMzA8L2V4aWY6UGl4ZWxZRGltZW5zaW9uPgogICAgICAgICA8ZXhpZjpQaXhlbFhEaW1lbnNpb24+NDQxPC9leGlmOlBpeGVsWERpbWVuc2lvbj4KICAgICAgICAgPGV4aWY6VXNlckNvbW1lbnQ+U2NyZWVuc2hvdDwvZXhpZjpVc2VyQ29tbWVudD4KICAgICAgPC9yZGY6RGVzY3JpcHRpb24+CiAgIDwvcmRmOlJERj4KPC94OnhtcG1ldGE+ChPwKesAAEAASURBVHgB7Z0JvF1Fle7rEubRME8CAQERFBFlsEGUFhRBbVsFbcX26bNF1EYfKvpspRGbtm27+elzaO0n4oDDQ2RUZpkhgCFhHkLIQAIBEiBAICSE+77/2rX23fdyh31uzrnJPXtVsk/VXrVq+urc+s6qXVW7p1cuhQsEAoFAIBAIBLoQgdW6sE3RpEAgEAgEAoFAwBAIkosvQiAQCAQCgUDXIhAk17VdGw0LBAKBQCAQCJKL70AgEAgEAoFA1yIQJNe1XRsNCwQCgUAgEAiSi+9AIBAIBAKBQNciECTXtV0bDQsEAoFAIBAIkovvQCAQCAQCgUDXIhAk17VdGw0LBAKBQCAQCJKL70AgEAgEAoFA1yIQJNe1XRsNCwQCgUAgEAiSi+9AIBAIBAKBQNciECTXtV0bDQsEAoFAIBAIkovvQCAQCAQCgUDXIhAk17VdGw0LBAKBQCAQCJKL70AgEAgEAoFA1yIQJNe1XRsNCwQCgUAgEAiSi+9AIBAIBAKBQNciECTXtV0bDQsEAoFAIBAIkovvQCAQCAQCgUDXIhAk17VdGw0LBAKBQCAQCJKL70AgEAgEAoFA1yIQJNe1XRsNCwQCgUAgEAiSi+9AIBAIBAKBQNciECTXtV0bDQsEAoFAIBAIkovvQCAQCAQCgUDXIhAk17VdGw0LBAKBQCAQCJKL70AgEAgEAoFA1yIQJNe1XRsNCwQCgUAgEAiSi+9AIBAIBAKBQNciECTXtV0bDQsEAoFAIBAIkovvQCAQCAQCgUDXIhAk17VdGw0LBAKBQCAQCJKL70AgEAgEAoFA1yIQJNe1XRsNCwQCgUAgEAiSi+9AIBAIBAKBQNciECTXtV0bDQsEAoFAIBAIkovvQCAQCAQCgUDXIhAk17VdGw0LBAKBQCAQCJKL70AgEAgEAoFA1yIQJNe1XRsNCwQCgUAgEAiSi+9AIBAIBAKBQNciECTXtV0bDQsEAoFAIBAIkovvQCAQCAQCgUDXIhAk17VdGw0LBAKBQCAQCJKL70AgEAgEAoFA1yIQJNe1XRsNCwQCgUAgEAiSi+9AIBAIBAKBQNciECQ31l3b2zvWJUZ5gUAgEAg0FoEgubHs+kXzU7r9kpReXD6WpUZZgUAgEAg0FoHVG9vysW74U4+ldMkPU5p7V0oYc685JKWe+I0x1t0Q5QUCgUCzEIhRdiz6e9mSlG74fylNvymlZ59K6frfpDR/usgupi7HAv4oIxAIBJqLQJBcp/t++Qsp3Xqppikvk+XWk3onrJF6n9S05UU/SGnh3E6XHvkHAoFAINBoBILkOt39s6amdNXPU3r+Wc1S9qQeWW/6TOnh+wqL7vnFna5B5B8IBAKBQGMRCJLrZNdjsV31i5SWPJN6V5uQpyeZohTJ9ej+ritTmnxmSlh74QKBQCAQCATajkCQXNshzRk+u6gguPkzbIFJj7itJwlufwzH8zjIbfJZKd19dadqEfkGAoFAINBoBILkOtL9IrA7rkxp6oUV6w1249JzuRd7teZE4R4tbl36fDGdOf/+jtQkMg0EAoFAoMkIBMm1u/d7X0xp5jSbhmSRCc4ITaTmfvFcziJSYhrz8Ye1EEXbCx5/yPTjIxAIBAKBQKA9CATJtQfHvlyeWpDSlT9L6Qk9j8vP4SA1jDjZcNLjwquEWXU553YR4+9TemFpER+fgUAgEAgEAiuMQJDcCkNYyWCZph5vPielefemNGGCraS0WJGYkZvxmpObW3ay/BTfs9pqqffWi1O6SeljIUoF1AgGAoFAIDB6BILkRo9d/5RMU95zXUq38ByOKJGYBXRjVlshYWGlOwuWxCeuWyYr7sY/pDT7tjKN64YfCAQCgUAg0DoCQXKtYzZ4ikU6tuvqM1LvkqcVL/rqHWi95elKl0OAPmWZia6XaUuO/7r4R3o+N2/wckIaCAQCgUAgUBuBILnaUA2juPTZYrvAgtmaeQRSWXUiMbYN4JsToRWcpjhEhUqO77Vb22ZAelZaXnF6Ss/pCLBwgUAgEAgEAqNGIEhu1NB5QjHWHX/WsV2XFwIIDDZj+hIfMtOWgfTii6kH3+L6/F4sO92upvjC6Z4FK3dfm9JfLoiFKBmV8AKBQCAQGA0CQXKjQa2ahmnFyVosslSHMNs0JQRWEFdhxOneXIaa2ywyz0gvqzgBks/yZSld+1sd6nxjjgwvEAgEAoFAoFUEguRaRayqz3Tilb9M6dEHtJpSG7uNtbDgslUGaZlQvll2JC5k7JljS4FtL8Dcs7Q5GjWI7rlnNG35s5SeWmiS+AgEAoFAIBBoDYEgudbw6q/NlOI0vWHAeEsfENmLbsVl1vI4UyIevbwIhSlKt954IGfk+KJEuvinbQXpkQdSuuDUlJ55on/ZcRcIBAKBQCAwIgJBciNCNIQCr8m54SzNTIrU9N+cERbEpTuz4vB1b86EOQihEcwJCaNm6XNYXnEvHch0qvbQlc/tiAwXCAQCgUAgMBICQXIjITRY/NLnNI34C70uZ0ZBU1hvy8VSTnZpuaXqfbHwjdAgMfS4gdQgPyM67nWZhad4BX0as1idqS5C73q9dHXGXwpd3YYLBAKBQCAQGBmBILmRMeqvASHdO1mvyblacoXNYoOF5CAqYySRFaspuTVyy/HEcW8WG4SmG7uXzNLlOEtDWAG3BJ/Wc7lL/69etPogyuECgUAgEAgEaiAQJFcDpH4qz4hsrv613hHHy04FX0lsunWOs2dt+R6hW2qmizzLFOxHkkZoirPnc54ZSjiVxXFhV/8mjv0qAInPQCAQCARGRCBIbkSIKgrLtE3gWk0b8lZv9rJBYDYDCSFlZ8F8T5w7iMtMO4+T71agk5/pEo+uJxxwf+tlOh/zPJFrngp1tfADgUAgEAgEXoJAkNxLIBlGMFfkNuWPmWAyEfl0Ij7EZERGHop3y8zmJBFJwRaPEJd1PQ265TQm8VkHPU+HLs8Dr/mdVl3O0k24QCAQCAQCgeEQCJIbDp1qHNOU12lzNnvXemTFQT5YYEZC2YfAlrtM8UZO+X799VN62QYSQnTIdEm9vz5pIDv5ONPhJgvQp+yFeu/cxf+VEs/pwgUCgUAgEAgMiUCQ3JDQVCIgm9uv0vFdugjjqr5PNyIj2n1Ij7g11kxpIxHcBuultO7alrxcgEKCkvQ8fSUPi6+Uxz3bFu65Qa/liWnLAsz4DAQCgUBgcASC5AbHpb+UNwNMPjeTEZZY5jjxTUFWyIoDmBGVBAbZramTUDZ9mZ7hSYfrZRumtJZIL5OXnV0psREdspIgcxjrzWX43BfzoqqTSO6BWxCECwQCgUAgEBgEgSC5QUDpJ+IMyevP0mITvRmgR4SVicgevZkFBxnBeooWCRVvAa+Q0UYitTXXyEQl+RrKA6Lzt4ZnsjPicovOSI18deEGu4fonnxE05baVvD4/EIvPgOBQCAQCAT6IdAckmM14jOPyxJqcVXizNv1ItPzjcTsw7YHQEDC0cjHfWQiHuclApDZeusUegY78ZKvLUtuY01fYtl5HjLRSF7kYeaapZCg1Om1I8MUZ3VQNMd+zZgqi+7sQienCC8QCAQCgUCgQKAZJAeRTL85pdNP0PSeSIH7Oo4tAzdqmlILPIrjlElkTCQf640rk1B5L5lOP+mB3GyhSU7CczRc9uz53AZajGILVchHUfJKAsOq8yuXwUkoBRNKr3d50QwOhuYtCPerfdQnXCAQCAQCgUCJQDNIjo3bl50uItCxWOd9V6sT55YADBuYLv27r7epxR4xUI8tJJHFBZcYUcJYEJR85xci11krpU30HM4IjQ8LFEWJpwqelAxrjoUopDHrTFamxLyhoMgfZRw+l+KLwu22R4X2skl88SK163uatnwY5XCBQCAQCAQCGYHuJ7nlL2jp/+9TmqVpx9VFKOx1u/S0Yr/ZcF8DFptco43fvE7HrbBMNpBLHwlBYJmEICAsq002Kp69wVhED+UmaDvAZhtr+lKkaKSpfJSHWWw89FN2faRGGdmVumQvJcrgmSGLY3iGGC4QCAQCgUDAEOh+kpt3j8jqt3nwh3TU5GmXFVN8wz2f41kXWwawlCAVm1ZkBaXygG/gubxQBMuLfybfWM/h1tVUpTlkKLuvIISJiA/Sr6VFKRtj9VGO5531i/nLPrKzvCi4LwsjQXuYpywhuXsmF3lTRLhAIBAIBBqOQHeTHG/rvubMlBYtEImwgTtbPctk7VxyWkp3XjN49zO9eZ1WVK7OUn85yEj8g+shD12QGispbWpRjGd8xEIT9sPhjJCKIKRk6V3mlqERnvJbTxYm2wyMvXSPs+dx+BAfrCbfilZYcTZ1anWRjsc/rYU1l/9c7V1IDuECgUAgEGg8At1Lcgz8c+4SkemZmltjkAjkAePwtu2LtPyeZfhVB3FM1YtQ59xZrF40AiGdlIx4FNZ/3ypg2wZYsMmztY01TWnERRlyhP1ylkROnubwpcPFVgMWonh5RHmZFtaH4qxcI0PFV3UJa1tC74xpWiyj/XM84wsXCAQCgUDDEdADpC51vEn7yl+n9OyTMoImFBRj73OjvSKECZomfFBTmb8+OaUP/3NKG25aAKF0vVqt2IM1NwFLDoaBiPBx8j2IGC5ZS8/UNt9Elh/WokcWqkXByFCW8/iSDBVHmO0ELFZZKivzWZ1PWepK7udhllmXgaJ2nqf8HgidZ4k77pnSK/Yu8hnjz6VLl6aZM2emp59+ulbJWMPrrbde2mWXXdLqq3f2K0nd7r///rR48WLBnvtkhFpusMEGadKkSWnNNbNlP4J+RAcCgcCqg0BnR5SV2U6suFsvt4UghfWTK5P5gdm/HvaZ3XdjMXV5xLFaACJLavqU1DNXizjY+I0uBGNp9FESkxI7sUxQHtXFIzZwWoJCh2CZrhImvQ+ynhebxslr3nyRHeahdJQ9z/6KATnna4QJu/bYv8Ki0y2OPJ+QdXr5GSltvbMsTFmIY+weffTR9JWvfCXdcMMNtUgL4tlrr73SGWeckTbZRD8WOugee+yxdNxxx6U77rijVt2WL1+eDjjggHTqqaembbbZpoM1i6wDgUCgEwhoCO1Sd/Of1DDISB5TkOVUowS6L56tKQ759Wen9Mf/0rOsR1O67aqUnpcVR1rbMkB60ujyPArWk4UoHZ6lrb9uUYZU+ghHcfpvF/pGaAg8nHXlWRzxlMH+uk1FdCJXe94HwaFTrYOFJaU+hD3efU5T4cWunLe5kp0tylEdR/LHspoj1aUaT724DxcIBALjE4HutORm3aY9cVPtGVXBRxqkjGSKTmLQsmk9G7tWS70vLEs91/1Bz++uE9Fp68BqwJLTVAc4nzYUuSDumSjLb5OJChTqpU8xpmD0lMMkICIre32qep6OxSvPLUk9CxfZAOuqZlU6Gbow18+aksM9rNRk0c0lp6e07a4pbbMLOY+pw/L0a6SC6+qNlE8r8XXLrKvXStmhGwgEAmOHQPdZcmwLmPzHwirTyF/YQdp5JqusWPK/XDQjohEh8M81koguPTanIAfwhzCwlDzMvd9iXXE01+Z6jlclHXTgMCcgS8s9ATlL35ePCYzzkFlk4fN8jmlLbSq3fXCWFh3JyzrJOrU0pKOVWKfykek0FNuS8NB0WannkDpcIBAIBAKNRKD7SG7BXFlxU5KRlg/6RgJwDQRAPxfTZ8WUZSErpqQyGxlRoKjLScWScS8yWVPTgVttXrxhADWPM8LTDek9bAWSr+edg1ZGRU4e6DhBcpDzVpum3tX1nA5dyyf71IlHci6zvLjPDjUcaW+5tDjfspDEZyAQCAQCjUKg+0iOk03maeEIJ484CRgpYPlwSQxRQRIW1odIorCAirCRCnHoo0R6f67HPVOU6+vZmTkU5YzUFMYvw0WU5QEROYGRpAxX5ORdEpp09Kyvh2d+PBtErjMxjdysHbq3drmvctHDknW5otITWsRy7vc1/VlvpaPXOPxAIBAIBLoBge4iOZb9360FFxzlBT+V5KbRHpIoZYpjSs+IC2Jwoqj6yMlDH6TVf/NfJtLZVCRnTsIqWbksx/Z5FQsNff23vPA9vcldjwg5yuQ0FA56NgJDRqWyb22Skr+dwOpInAIex/M5Tm+Z9mdLFh+BQCAQCDQJge4iuYU6oJjN3/auNnWjDfR0ZyYNYw3vXsiBcCYEF3OPXF4RlyOwotjwvUV+DpfF5jlRceNHbHl8Nc5lVZ86DuWIY4vC1poaXVtlG+FK2eqnOK8jBzfjSgIkrEt6dgyZnfzy+2IDPHrhWkIgVle2BFcoBwKrFALdQ3JYb7xlgJNMjNQ0wjP2QxR27qTC/Sw2Nd1IAgKULtN82hNlRGJzmVkfHQiON3xDcDyPI08jJ7e4dO88SqbEDSQ3iYo08lE2/QF6lmfW8zxIxyZkyobwaIPruXVn1dcHuv2sV03LSpRWU/oH7igWobywFEm4FhBghWW4QCAQGJ8IdA/JLdUpIbdeVSEAOkQDv5kzIi8nBichs3qIFzPYSSgayDSYsU6xJMOCNQqdzbRJeaKmDd0x8FmeSm9hj5CvqLI8iId8fPuB3ere5CjKkQ+XD6b4ZR6SQ2ZMWfJ2AyXstWlWMpCS1eFFHZjCPZe7HLZ8JePtBH/+TUqPznGFMffDIhpzyKPAQKDxCHQPyT2p/W2zdcoJY7usGdseYEShexv/9eFkUgj65GiThngsIdKhk5OkDbUfzhaASIAzMnI93RvRWESOswwQFI5kOWmpa3VzoSu6PnLPQz5BytxS1pw2ixeLZNC1VspTXObzMn+rk5M4vgj8CW12v05vKlhJLiyilQR8FBsINBiB7iG5+6dpBeGz6koRBFYN1o6Rlg/0ioLA4A/zCffd+x4zIxDi7WK7gKb6Xr6lpgor51J6OtiH/HBV68tlJrfYvg/Tq6QzHd0bcWY13ZqryhCsoS0BW26m6Ud1m01V5npaWxVfttnrL5k1X/fkRb1vuSylmVqBGi4QCAQCgQYg0D0kxwpCpizzhml7rGbP5DS4M9CXbJRJj3v99+d15VSaERgRuiA6rKd1tOgDOc5IqgiazImoGk9aiConKdI4c5GW+Hzv5Xl6y7oSZ5no3uM3klW5uTaKk7dkPUbYCkPsJTkTRzt1lTKbiC1eGnvDeWq3nmGGCwQCgUCgyxHoDpJ7XKsqH7xfAzqDuk420XhvF0zgNz7Y+yIUfPSz9WMWHAtMJLY0xLFVgJegkkc/J9IxHqqQT5W0TNcUFKIOObHrcGt5oqPLPD6y4kvKI4Eccqw4TkNhpSd1dLnVXXmgA8OTFdGeFz7XGrJMsebmzyJluEAgEAgEuhqB7iC5B+/VgorZ6ihGdqwbju7SVKMN8Iz0NtpX/JIBMglACkVaywPyYMn+dkxTZoggKCMp6RlhKDt4CefkZXkUIsuHeCxL17N0pB+owz1CV8zxXqbnyz1149U+22hbAXWz/X6k1WXkJt9lELu1nfZj1spn39yCeSndoGdzy56XLNx4QICZBt6I8KL6v5x1GA8Vjzpan3nfBRxjjwDHgoxvBwE8NEMvP52vY6xETDaoiwwY6zXYv2SxA+N+DwO+E4oGfojIicTlOlLLlu6btUQikhT59oUl70dw5InMlIs8B8ZbnFWiiKfcMl/kcq6Tb8syjAhRUJ15QesT2ig+XwtujOyyMp6VqUUpysceT1qWlmlup8JXn5XSfu/UAc67kGG4VQiB22+/PT300ENljXgV0aJFi9JTTz2lR8MT0st0IMH666+vR7RrGOHhT5o0ya4y0TgN8A7C6dOnpyeeeMJInWbwN7zuuuumiRMnWhvXWcdPG1q1Gkkf8QqnZ555xuoMsT333HPWd7y/kHcmbrTRRon604/8YNlwww3T7rvvbvJVqzXdU5vxT3Ls+4LkmK7TuoxiZGdA5xmU/JK8SsZQXFVOZ1YIAgLhVTcc3WUER/wA58SF2EjK46v5eDj7nmZgfVzudbA8PT982pJdzspUMTC31LaGhU+q7doeQBx5oW4WHEFuhIOlq+SD/OnHtW9O1tz7/lexeV6a4cYegRdeeCE9//zzaerUqem2225Ljz/+ePrTn/6U7rnnHquM/0jDX01T1VhxfqHAQMnLXPfZZ5904IEH2mB50EEHpe23314G/1qWpt2tonzqTNl1HPUb6mW4y5YtM/K+7LLL0vz589MDDzyQrrnmmjR37twENjjaDrFvu+22af/997f3+kF4RxxxhJHfynqZLRjww+OKK66wut97773poosusj6kr9wRpg2Ol1vikOBmm22WDj300LTzzjtbu97ylrcY8a2sNnmdu8kf/yT3nI7yguQ45cQGd43oPkVYEoq6DALAucwGfv5I7dhmIwkLrctU4BayCvUlJT/SkabqF4xCUktXEozrUQ7O771MZJ4P4Zc4z5AIhau3nhdRhKn/enqP3baq6yxNP3oZNu7k+ppVSwI59IsPAoyOenfeNSkd/EGR+raFLD7HDAEGOqyWs88+O51zzjn2JvVHHnlE3dhrv/L51V/XkeaWW25JN998s5HaDjvsYITwmc98Ju27775GdnXzqqO3YMGCdNJJJ6U5c+YMSV6eDwP5Zz/72fTWt77VRaVP+7///e8bSfjb2iEELgiayx2Egs59991nZIE19Mtf/jK97nWvS5/61KesvVVi8XSd8GnTvHnz0n/+53+mu+++2+qF9YZ1Rh2wsus6LL0//OEPZrXyBvpXvOIV6bWvfW36/Oc/nzbddNMR8a1bTpP1uoDkntGU3Zy8xJ+uhBw0ovsG7ywqSEBxDPZOXpCIBOblT7Pi1tV0SLaG0CgJslAs8jDzCIGxh6kVpKR7iMwd5GO38lH1OCc7i5dCJYkntTq7ngtd3+/ZpI4198TTwkCZEE85q/FR3BZZ677MC4muhx7QIpTLUzrkaN32/fK0hPHRMQSWLFmSLr744vTDH/7QpuYYILF0hrJ2RqoIVoJbeuhiDUEIWIdvfOMb06c//Wkjg9HmP7B86g+pMsAzVTqcwxo78sgj+6kg463xJ598crrzzjsT1hz5DGe9DGwjedA+0l9wwQUJQn/3u9+dttxSz9E76CC3X/3qV+m3v/1t4kcJ9aDew9V9uOrQLu97t+iZ8rzwwgvTRz7ykXTUUUell7/85cNlEXEjIDC+RzYG9Edmp/TMkxrbaYqsE2QQHBaNDfi6138jrdLSkwhLZjnyrEvc+vr1vIX2oZmT3J3nAzEQNrIgkozlnDzybSHkJudB0OM8vQtekpYy0NeHx+F72Qr1tUs6vNcOouMddLSJdKajBQqawjXrNIs4toygTZcQeH5JSjdrpeWT2iQerkQAfAyjUtK+ANbPN7/5TSMenr3xvA2LBSugXQ7CIE+sBMj0wx/+cPrJT35iZbWjDAZmBnW3tobz19YCrmrbGMghCKwvpmfdamvVCqMOlIvPFO+JJ55omEIQnXBMNV5yySXpk5/8ZPrOd76THnvsMWuX16EdZXqbwGLhwoXp3//939PHP/7x9Oc//7kd2Tc2j/FNcjyLuv9WDe5iKwZ3iM2GcQZ7bhjJCcNmNrxnuSnmuCzHCmLFImdUGsEouuogGlT7OcgHpwji/SqErX16VgNTubx4sNY/lvJEXGlTLUJh/xwkZ071oUqEqTNpDQ8FpWMvYiUS640DrWfcjma4jACDDVc7HVNcDOrHH398+u///m/LmsG/3eVU60zeEB6W4r/927+lr33tazbFWNUZyzAYMDX3L//yL0ZMI1mBdesGKZDXddddZ+Q5efLktv5IgZh/97vfpS9+8Ys2JQxxd7LfaDdt4oeEf2f4YYAFHa51BMY3yXG6Pu+PY+BmEIecbKUkgz33WcYt8iwmbAO9MYEebrNn7mXaDzdRZIHzAc79Qip5DlCOO3S4NRnl+yUZ5FLNowyjQzxpsw737ijH46w9Wb+MzxXxemiqK223dWHNkbFIv7DW1GCIz8iPAojDk682I0nLtHBn2pWEwnUQAabV/v7v/z5df/31Nnh1epCsNgUyhWBOP/10s3iw8FaGu+mmm8wK8lWi7a4DRDdjxoz09a9/3RaEtCN//o7OOOOMdNxxxyWeRY52WnK0daFNjz76qD2jg+jCtY7AOCc57fOadXcxiNuIrY9ekZYP/kxB6ioONNbo7qSHz2DPVKXU0+qaKtpK05QsNvG07jum3HNlfinIK8sQmjxH4hlJeWJ8CT1PJSudk5nHmw4ZuBJl6p5rMOdqesFqmqgtBXq+QVJOQiloTDfgAJFb/Wm7wgIAq65Xf0Tp9mtTWqStCOE6ggArJf/pn/7JVuC1Oi3Xrgq5VccqxhNOOMGm29qV90j5MFCzWvIb3/iG+Z3EAEK/66670imnnGIrQEeq23DxTFGeddZZ6dvf/rY9N+tkvYerB+XSf9/61rdsqpfngOHqIzC+SW6xFlxwMDODt5GWk5cAsIFcvuKKTeF5kEfXL3u9jtJsInJguo+x37iEQHYmg2R0b4TkEdk3AiIsBfLFeXLSIDOCct80ig/X5w7d0pGBC7Jv+SDO91Yu4VwYBM1xX/5GdIojyi59kB5MuPTfnPweLMXHtcdwyqWKY1p35bmxsG4oYyzKcRR5XsTgdOONN456YYnntaI+7Wbg/s1vfmOLJ7DuxsKxivKnP/1pmjZtWkuW0Gifi9Ku888/38pbkfbRZ0zxPvnkk/2eK65InqNNC3mzdxDyvvXWW/Xn7H/Eo82xOenG9+rKx7Rhls6mv1lNyICNM0JQmAHdecCfaaFrRKEA8faeOMhB1hwWXkkuKOZbz6+QFJ8uG+hXdcrCXag8KZs07jzsvsvxTbcisGQ5j5KpFE9a4ngVENOurLZEgNzan9vl+XEyCiLHiwUo156X0v7v0jmd9Zc/K4e2OAbfZ5991jbSslm2k46pH6brxoLo+MXNFBPWE9ZMq47BmoUpvr+KZ0HIWI2IY+BrdeEDVgF1Oe2009JrXvOaxL6sTloo1PE//uM/DHPCA93ANno8/UM9R4MbqxVZGHLppZemN7zhDaNqH9+T7373u0Yso6kD/UY/QUbUh2lOnu3Rl6NtG3kwZYplyeKXWHXp35bh/XFOcnM13VhMzxVTkc5oajSDvt36QF8BokooG2hF5YYiB5e5j7qHIYfhHHpGINlH19NSiWo8FavqWhz6urwcS5v1jJwr5XtaysBZGkus47600pJN7E8sKhakWPtNqchfhfgvQLPgrC6Kh+zn3q+VqnNS2uFVJBhTxyDCsvcPfehDak6lrR2qBRgMNuC2szjK+Mtf/pJ+/OMfG+atEAkDIdfmm2+eXv/619u+K9Kzb4qBkpM1yJ/l7FOmTDEZ7amLHbqs3mOf1y677NLxwRJLiPpW60f7IDg2Q7PXjZM/qvH8QGDRBc/YaHsr+NGP5AU2tJMyWnFg/Otf/zpdffXVLZEsbXQS22OPPdKuu+5qBOentUBQ5E3bWAXKyS7Uk7ZV2z5cXem7q666yhbC8JxwNAQ8XP7dGDe+SW6hDma20/Q1MGKZmGPAz05fOn3d+0iGQR2Z7QmTzy9LNlPb+ZTEecKKz6Br+SBTWP9NzwbjSgLLl0gc8qzo+ibSTZmXKRYf1TjPwvInKwncCq3GVfPx4iCrzUVys+fp2Zzm7cnDzrPMCRVtIaurbsjb0sp/Sieg3Dc1rQyScyQYJLg67eoOKF6PVvVJh7X4gx/8oFxq7nmN5DPwc7rHMcccY6d7MFj6Ygfq4fjgQx5MAZ577rnpzDPPtAG1bl0ZLNlnxjOnz33ucyNVa4Xjq/VikGc/G/v3sCarbfSCIAsIjgU7WIJsvWiF6MCMfXz8EGiV5CBXVsC2Uh71pl38KGF/Gz6WludR7Tvaxo869hpSDoSHRV7XYRky5XzwwQfbD4S66ZqqN75JTs+SbC8Yp52Y82k53djUYxbjVQdPyIDRfUMt1sDyMZeJwEb9LMIjHWRh6UmnMKTj+ZVkRFyOd4Ir0xOoOMtT99W8PWxq1bxyurIOui9JjzpL16oun2RralqMtxTMEdGRJxeumt4EWV5Eas8ci3i0UpUfDfZczyLG9KM6EFYLZkAfKq6q16mwE0sr+V9++eWJ1YSQSV0Hwe23337pS1/6kk2zjZQWy46TRBhQ9957b9tczgKPkdJ5fcAUcjz88MPtWCmXd9JngH/zm99sy/Gx4IZzu+22m1lDO+20k22BuPbaa2t/D2gbqzghkz333LN2OqYYIRCef9XFke8HJPVx7Wn72Mc+lrbbbrvhmmX5YuVxMZ3KoQBsrYAk63zP0Xn44YdtyplzL1shyGEr1qWR43vhyaIFtkKwGN1FcJCX/oh4y3fBVfiS2+Vh9SQDP5aOb6IulAuygAxw+H4Vkspn1kFCXlyI5JWkQpy7weTI3HmZ1ft+aSp1KuuaZf5cjbSez2YQdyWe+jkmHrZN8C6XT3mz7ysWoZDXKuTq/OGvQtW147p4FscgW9dh+XE6yemnn25HcdUdYMkfyw/rgUUShCGSOg4rY9asWTaoM8B22jFVx7mabEwfieC8LtRxr732sg30O+64Y0sb2vnecAxYK/vLmGJmOtAtMK/HcD4/TtgkzgrakQhuYD4c48Vikg984APls9aBOkPdX3nllfZDaqj4kBcIjF+Se1F/lEvyfh8Gev+71mDd93bvLGcAt0v35utjLVk8vqISQnCyIr7qXI7MSQSZO2RcJiKcI0yusN8j9mSeJqua53lY3lmRtJ7ey6zqISPey/b81texZBvISrV3zDEF6BEKELY8ctgyUCYaTNK8B/TKogddOfxRIsBeOAbLukTFIMm0Hfu7Bj6bqlsFBmUO+v3qV79qz/DqEh3khoVUfetB3TJb0aONr3zlK81K5YzGVt2kSZOMCHi+1YplTbsg1zqOxSLnnXeeTXHW/WFFu/iBwfQy04ijcSwo+sIXvpDe85732HPKOnnw3cKa4zSUun1dJ99u1Bm/JLdYZ1YuebYYtEtLTQN3OZUI6+lihDcLL/vWi5Kzp8zf+G1kkdmE9JAAztmBe5cVMcV9VisqYQmKWNJZWikoaGktj5zY4ojAZR+ZlZ1FlncuwOLKwl5aF2dC9Lj4Y9M07IsiOZvqc2sWSDjLjHscumb5SkbZbCXgmLRVzLUyqLWr6qMtk3ScvMHqvjoDJQMUhzH786kVqT/TVlgETGEyYNdxLFxgXxnPoTrlwAQS/sQnPmFTh6Mph0H9/e9/vz3naqVvWHhS10qFEJlirps/U5v8OKHv+HGyIo6p52OPPdbeHlG3vvQdb2zguxZuaATGL8kt0dsHlvILTYMzjnGbwTuP37aoAnLLrpcFGLZ0Xj7iiVoqjzWHg4AY8N0R5nJi8nsvCz2TeQL5pgsR6fIwOtyX6Sv6ZXGkkbM6VMJlOo/LdaIOlm+WW1o+5LxcngNp1ehqOs+SsytNnWYb2UlipA/ZKc5+CCgt05dyvXNnCNdV6/igOmRhlW/jx2jLZOWjn2pSpzqQHK/JOeSQQ+qoj6gDGfzd3/1d2mKLLWoN7rQTa4RniK1Mr45YkYoCZMDzpze96U36iubveCW+bpAFJLySphXHVGVdS4dN+0xv+kKf4cohT/Te97732RsQhtOtG4ele9hhh5lFWIdoITnqy8KVum2sW5du0hu/JPf8s6nX32ydp+VKQtEXsBjZIQSF9b+05nTfi6XDa2qqf3D+t1eSj3ezR+j+JXGuM8B3EnKxl+PySpauUuRNATlyoK7lkeM8P088sF6k5eBmSFyEVhAdIMhxb3nnvCQuQhCe3EMzi4ObCY+xq/OHPcZVark4nnGx2KHO1BXt5ZUxDGytvJ5lpEqxCIUVi3UJBSurkxYB9Xj1q1+dttpqq5GqPmI8Wx7qfk8ot7rPcLjMIUM2f0PIdRw/DHzhTyvP74bLG9J673vfmzbeeOPabYTcODiafabhBkdg/JKczlzs0RfNyMvapiHaLBV8BBq0sVg0kGCtcMyVW3c9a4jkeJ0OzgmDNB52OWRghIDAHYpy6HKZju6repaP9NwnDiYp0xDW5a4aj8zuqwpZRsMo3uPxzSGvXMj0K9P2zUH4meh6OKja0kjXfggIFzIsdbRfZ4G2ZfiPhyLzMfusOyh3skJ1B9DB6sBAyTMSBso6baGsTTbZpO0bspm25LUzdd+gTV15vjNz5kx9PfR9aKMjPwicFaB1iH+korFQW3F128NqSqaZ6z5HhZD+6q/+qi3E7e2hH/x9cnXrjV4nrXCv23j2xy/J2cAsqwz0/Q8TY4VwJjsbwHXL46Y+wpESJMdSe09HHsO5KkGh5/wzML2VbTXqUzKiy4k8HpnVSfJqHtX4nKSMH1iHajp0q444zuOkna5neZOJ4vhvQX1A/gWKhf/Eo9rwU+95TrXIFQ3zxwo5DHf5KRLD6dSJG24AqUNOQ7WVFZJYA3WnjqgHLzXFIminow08l2t1gQfP5urWvW59aSMkx1L3dlg8g1m8w/Vn3XpCcryDr67jh8Q73/nOWlObdfNEjynQN7/5za0ksTNRefYYbnAENAqOU7fm2raZu4epStvMLZ/xGscADuHhS4hFV74TFB1uIAAcg39JRDkDIyGXZ5kxg/RNVzLSuSvTu8B9dKwSLijSe5nu98X2har5l2HlR1leHnKLQ9aXlDbrJ2mxYpLzKC1OH1hypFWavsGcPHJa/MVPa22K9MbQMfWz9dZbp6OPPtoG5nYPtN4UBlnOkuQ0C1542Y5B1/PGh+TYvNzKoMvgj1XQbgfBbbPNNrYoYaR28l2gzjyToi/qWjN16wwhtOsIKkhgIL593+W6NeqvR35MMfMDqW5e1IM3eNfV71/i0Hfkx3eirvPy2TjPlHC4lyIwfkluLU03rq4vvMy0HrPcGMmZmsQrXqXD+G/jOzJID4flwkCPpQNBlq4Y/C3OZWUGOc7llmvOnAJNr6KTicTVBs+ThAPSerocVSjo0+Wuj49sMLnH8X48yJy6cZmTzBwyApX2exSLecBzDB0DK0dY8Soa9nl10kFuPMNgJZ0P/gxyPlisSNks3ODdba04Fht4PVpJN5IuRMXUF1sZGJDruAcffLDtlhzlYn2t6OpDr387+snzcp/vHyeq1HX8COP5Yqe+qzyTYxob67JOe/n+crJLuMER0Cg4Th0kt9rqei5XLJMvpig1rmv0tmnKfj5tzIO9D/rVTdTIbE4TtaxHEiMRAnKQgBNBwRB9AieblxAPCY1NCt/j+zJCoSiTvK0eJijKJjiYIx/Pt1ovk+cETOfiaKddCkPwiK3tOaz7Xt0br1G+nR5DpmPr+ENlsOm0Y3k2g1R18KiGV6T8VpZy016embVjMcZgdYY4sZ4op65jZWi7+8Db2Qkir9uukfSoIz9+6mIFRmz6btf3ZmD92Au47bbbtvSDgwOlww2OwPgluXW1oZQpy+ogThsZxBnM+dvGs3t94JtDqOslA6oG9pIk8iCPHkF8/S8uAlVdy7T4MD3iq066/dLqxlRyGZYX+vneCIg0lXwsnOOpo9fHiuE+l4fc2wAGL4g0TFeNd+vM8lKc6Rbp7IcB9xDj2lp1ylRnuJYR4CzJgQQ6VCYMqAxm7ViMMVgZDMBMWdad+kWfZ56tWqKDlV2VkS/TlauyAyOmsemTOsSFHnsb6+iOpt1Y4eRfh3S9Dlh94QZHYPxOV66hKZj1NbWlwZtxnTHajDFIwl8lY23WwK1ftTaAQySQHeczQnJMWXpiMigdmekGUVVMvOt7uN+9CYvKEMRZPuRHQM4qWgQLmeKsjEF0TJ51UfI83LeEypeGo2tFoKf20j4uyqPNYIJDT/vnzIkIe5UXWwoKXzrriOTKs0ALtfishwDP5Oo6BjAsuXY///LyGfwg0TrOB1MG+1baUDfvVdmK8za00m5wAlsnGM+jXT4/fMjf+6VOvq3Uv05+3aQzfkmOXthS0zEM0iItvbBCAg3SjN82qKPA1KUcz94IMOBzLRXJPa8VhGtoEMB6GUgapEEPOT7OMpLvcmRlXEUPOa7Ms7jtp5tFhUxpjZ0reVBWLtZU/d7LQ2h18wj5BKtuqfb7PFds6i62UBSRBV6Ei/bZ80yS21SmZOvIQg6SqyJZO4wl1MrAxHFOnSI5Kg2J1qkPgzV6DN51j8CqDco4UKTtrba77vaM0TSf7wTfjVYc371wgyMwfqcrac8WO2islzWGRWLHVUnGYI2DELDqZMyYg/i4YAM2fC7RAgsnhip5mHLlo9SRjKydvIZMk8uvZFGm8bT94nK+/fLLheIZmWWfdJ6H6eeyTJ2wXwrypX+OE2EU6VO6FpYOactLKo4L2G2iDbtYyeFaRqBViwVSqUNCLVckJ2j1+Rpk12obRlu3VS1dq1ZZq9i20l7/wdFKmqb2Wx2MxjfJvXznYiqSKcteNYUx3gZyeYTLwTvLiYMklogAFmtqyQmDaHMQQiYABS1MGhy6VX2/N5kVjFK+SJDzsWCON2JCkF01P5f183PZ/WTKy8su5ZSlG7tyPRcvSb3anIywx6xVdIRTqUjeyLgICiyurXbUJvK8UV7ibnWdIBeePdUdLNFjiqlTgyXtW7x4ce360M8MlK1aEN3w/aAvWmk3+pww0onvEHiyOIr8636XSLOqP/ekjivLjW+S23YnvRNOr5WxgZpBOg/a5UAOy3FJjpXCIM6Az2t2ntR+MBZm9OMlRns545ZMFuSJq+btMiuHONPo04GEkFk+CnA/mPM8PR5/MFWL93yk4Ok8Ty/f09O+BVp+vFwRNB9nbZdvcCDPl+eFnGndbSYVC3pI08WulQGkLgx1n4GRH+V3kuQoo9WBkmmyVtpAGd3g6ItWFpJ433Wq7fzwabXvmthvdfEf3yTHwpPXvkljPkvgNWi7NcJgbYO4YPDBnNEdgnOCEgnYdJ4RSCYOUPN7wq6LzC8VY87IIYfdMx3dEKck9mFThdznPCxP6pozQp5VTYbY0kuO73pZvdDNeZHUy8S3dJLxPO4RnYBgvUubMx6GD3mSSyFjotcObmbT+DrrpbTp1kWeqIRrCQFOLsEaqvMLn4GSlYwMZp1wTIWy2pNy6jjqjDVQZ7AkzzptrFPuqqBDezj8uW670GM1Y6cwYFO6913dMtp9as6q0C/tqsP4JjmWu7/hUPty2qHDTgr4kBujeVVmqGX5QpHc03qTAbcvcTldVe56g40Z1YEEPe4H6lOPQV2WV6Or+Q2axoVemeybp4wefTylZ9S2fk5y4q0eIjic7lnzYslYicn071Y7WFR8tI7AxIkTa5MKuTOYzdKBzp1wkByneLSysIUNyHWe7TDwMtB3i6PNW265Ze3mgCn9VveVOLUzzor8+GFjfh2MvS8g6XCDIzC+SY6tAa/aO/W+bDON3Rq4bRBnANfI7eRWso1kHkaXNyE/siCP8HmkN3IibQaLe5e5kDiTZx2X+y1xOPM9o8q95WcaOe9KOAf76u4C+ZYu52dEVcnb7qWDiIU2M2YXU49muaqtbuVivZk1Jx3iTE5YCdlWsaOOE9pmRwnCjQYBTvWAKOo6BjGO0urEYMmUF0c9DUZaQ1kHvHl7MP267RmverR50qRJtauPPpbW3Llza6dpRZF8mcrm++FEN1SfuXyHHXZopYhG6Y5vkqOrJmqaYa8DUw9vCWcAh+k0ZjMNVw7iyIninWkM7jgIct4jenCRVyCaEJaQg1BwTh52Q76KtzgrwKT2kZNZwaUA4YA0xsKF2NT4IL+yHIW51/9ClQAuF+C65iP2grOefmGmeY+m9MRTFsc0rq2sNCwUXo6eLiO/nK+RnjBZQxt2X6Gz78gj3KgQYPHC6173OnUhONdzt9xyS+0XnNbLsdCaPXt2WrBgwaCkNbB+PlByxFgrll8r9VmVdcGD02HYPO9YjFRfthxcrzfAt3vhEBY434mBbmCfeTz1hXS33357F4U/AIHxT3JracrydQfpeZJegmoLLTTwq+P1G0i+WmsXYeQazPHNgpHsKU3p3f9gQSjoFcxSQMQ4xYW+uapPhDuFTVcfruJlo+LEVOadlXwgJP9SR2GrpyXUh2dI3tV0pMl5l43UPVsGHphT7APMKkVbuSGBXDV/I37JXlBg/Y1SeuXrTSU+RocAz7Pe+MY3Dkosg+XIwMULL6dPn65uyf07mGKLMgbKc845Z8TTSwaWudtuu9Wue4tVWuXVN9poI3sH30BMhqo4r1U6++yzE347Hc9or7jiitpZ8h3ijFLqH25wBMY/ydGuPQ8srBCzUPJgAZEVR6BoYIfcpGdR+vDFIJx7OVMk96TIziwYUyiQsqCIoSSTQmwCBqQqaRBlg1QmkpKcchoX222/m758rJysX/UopzoAUi+/PD90uGZr+uShxxQ2O1Z67MPKxG55OKspA4sjoyybpKnKHV5ZLTnCLSLASRW8Y6yVI5mefvrpdNFFF7XVIuCIKt5rN9IGYbcOGNghON5a0FTHYcv0HT8Q6jp+nPB6onY5+gHrkOd93jd18n7729/etgOw65Q33nS6g+S22j6l/d4motIBLgzmXJCGhfMgz7FWXIzrkhsNiAx6WHzygIjOvtwkKuItvZMV+bizcNZzciHOwlkJdSu/cm91UYT5Lvf7nADyJR8ceoTddzl1yioW5/dMUd43S/pFe30hTl+yjANFGcmTjW64X1urKv/mY8XqSt2GGz0CLGB41ateZYtKRsqFgQwiuvTSS+2dYCPp142/7LLL7N1odZ+vMeX2pje9yVYY1i2j2/R43REvdq37A4VpXX5MXHDBBbX6ug5eLDg588wzEwdl1+k7SJHZg4MPPrj2C3Lr1KPbdLqD5OiVQ47SMV/b5alI3TN1WRKKWMGex0EaRRe6kWeWzAyRHM+y+jmYxNmkEmGskTNBTBnmcnleAGKSezzpnHHwkXv2fk8+rl8NI3O56SqymhfTlFPuTGmRCBtHW43AWOqNQB9YtuK5Ms7OspQeqyq3eUVK+75dzyknoBxuBRDgtTIHHHBA7YEP6+++++5LZ5xxRlumvjhNn7wYMOsMlFguTHVBcp08qmoFIB2zpEz7veY1rxnRAqZC/EDhYsry5ptvbksdr7766sRVp98okB9Ie+65Z9p5Z62KDjckAt1Dcptvm9JhRxeDPwN6HuRpeTFl55aM4ow0uFekvqh2Msi0u7WlQHuWWJACgTixZB2TuZxMcei4zPVgLmQux3fdItSXzu/xTY9MsvN0ZX6SG2NRZtbhoGWS3DZd05RaRON1hs3AQFadnU0JuZkiysh15XiNxim99X1hxQFRGxwDH8/lWAhQZ1EC+uj97Gc/s2nLFakCC02++93vpmnTptV+hxzbGPbYYw+zPlek7G5Iy16z/ffff8iX2A58Xoc1x+uVvvWtb9kq2dFiQL5TpkxJp556amL6eiiSG1g+9/ygate7+kZb/1U9XfeQHOctHnJkSpN200IKVkwyoMtK0WBuU3fWE3mAZ0rP7/VL1jjjiUUpTZU1pFVTJYk4maDrBIKMi3snJnwu13F9k6FPAhxp5LkuN2WY+HxPkLyqjlvLx/PSPbJb79XimdlE6srO6qGwi2hunqK06Uy7l+wFEdwur03pwCNywvDagcDee++dDjxQK37Lfh8+VwY1LK8TTzwxXXXVVcMrDxHLkvMf/ehH6fTTT9dXp94+NvSw3g499NAUm4l5LD8hvfe970077bSTYTgQ6sH6E0ucF9OedNJJo95SMHPmzPT1r3/dnu8Nt7q1Wj7bTrA86buqfGCd4152S1eBgDX3/k/rGZNWWtq71PIozwDPMzcjDoUrA74tszerRkjMeTilW2TRPa/BH4vOSKeKUCVtOYDlMozActjKUTrzxUTlPfGun/N1Lit1JChVFCBMnMvQp2zqDMHdcV8x5YgCekZgKMmhwz3O8te9+RISx8rUd340pW01XRmubQjwfIe3nEMcA399D1UIAxVWwec+97n0ve99L/ESzJH2z5E3U1a33XZb+uIXv5h+/vOf20Bdd9AjPdNzf/u3fzuk9TBUfbtVDsG94x3vqN1v4AAxXXvttemzn/1suvDCC+0Hy0j9zjQxP2yY7jzmmGPSrbfeavnUxZXv2OGHH57Y9hFueAS0UqOLHMT0lvek3qvPTT1XnVeQAc3jAZz+5w8N8CIESEMDS4/HEc9zPBZv6EubXqsvzxrAg6I7xXNreWUZpAHpmKwaoXjkOCMWC9htmafLTS3rVgtwkaXSjZe1TBbqFK3quncmmef8dZxUftBolqu/P87SFqst7XU6Xidt/u7deZ/Uc/hHMqHnqoXXFgSYAnzXu96VTjvtNMuvDvEwWPJM7dvf/nY677zzLP0HP/hBe2aGted5MIAySPIs76c//Wm68sor08MPP2yDZHWqCz1PM1ijiPvYxz7W8oIT0o00iA9W3niRHXXUUencc89Nc+bMqU3+4HHDDTfYlpB99903HX300facE0sPvBwz9JieZkXtr371qzR16lQ7SBu9uo6+5zkc5Fjt77rpm6ZXH9nxgozeGN7z8a+lNFMWzrwZRa3hHgZ3rBeeY1WJzRmLeHvGJZ27lY5py721rH49WTtYgcS7s/RkKmfyHPZ7fZELrqrITVkfiDyrap6WRhH4OI/ze3zI9/En9QxObZs1ry8v6fLc0fYGFqmLfHh5am6fFckH2feKJDfYOPV86Ph4Fud4tdnnHEisucmTJ9vAV3cQg+gYxO68805bIcmzOixCNipzmgqbkFnV99RTT5nlxzMc9PllP9AxsA7lsBLf/e53p4MOOmgolSHlI5HnkAnHScR2222Xjj/++PSVr3zFzhatQyRgTR/w5gf2udHvHLXFUW88M2NxD+dd0m/4CxcuLA9hHqzvhoKKvua79clPftLyHkov5H0IdB/J0TaeMx35qZS+83mzUpidNALgjx6iK10mLxv49QEpOAGySZztBa/fI6XNN1UKxRvhoOxsMcggYjqSOzl5WZSNbKiBpxpfTYucYqj3zLkiOE1RLhDRTYDAsqNKKHn+lpdEJi+iyjA6anZ6z/9Maf9Dh66PVMKtGAI8MznuuONswISMhnveUi2JQZWLX/wsJmHqksGNi8GUuKpfN18vgylO9sUxkG+88cYuDj8jAJ5MWd54443pF7/4hZHXcD8YqsB5X/BjBEuQk2e877xfvf9ct5p+uDA/Lrh4bshUZavph8u7m+MqI2WXNfOwD6f0gc9ooNfAAEFogCiIBzKANbjkyuX2ijcd4jP5zV+Q0pVaHnyrntPxDjrIw9MZ+ShfSMOdyaQDUZoq4XyhY+mzPmFPi89l8Tkz7jWYGTkt0muBrp+a0nVTUuJgafLmTQvU0+qcF8+QhrbiGykrHt90ZL3ha4BLex2Q0vuO0XRsvBw1o90x72DtYWLqCkuOAWo0jkGR9GuuuaYNuD5YjiYvLDisCsgXEg43OALsPzv22GPTXnvtVXs7yMCc6CeICEsN6wuf+7qEOTA/fpywqOkf//EfY0XlQHCGue9ekltvw5Q+8iVtEpe1wmHMJQEw8Otiyq4kg4yQEQRxuvcBCWtuqp5//flGLUx5SNOYkB36ecAyssrpyzEMAst5kI/nhdDlOYl5Tm6u69OmbPC+7Z6ULrxGzwpnFwtibNEMmciZfvYhMBwyni16W8wnItdph11S+vhXU9psa4ThOowAg+XnP//59P73v19dU/wSH6rIuiQ42kESi4KTPbDgsFRGm89Q9e82+aRJk2xZP89XR1oE1Om2Uz6LhE4++eS07bZaYBeuNgLdS3JAsPEWKf3DPxen60N0OCMZfAZ9XZADROAWnSkRD9lJDgERz2HOV9yUeq/6S0r3zJRFJJLkYTHxflnmpJW+O49Dhtju5XveVT0WukBwc1XWTbendPF1qZcFJov1fBBXybYoQ7rI7NKHEZp+WfVRAAANM0lEQVR8iUtlK5c26lpz7ZQ+9Y3irM9CCcWV7uoO7iu9oqOsAKdonHDCCTbNBLFANoO5TpIOU58cIP2Zz3zGFptgWYQbGQFWL/7rv/6rrWJkT+HKcFhwu+66a/rmN79pm787+T1ZGe3rdJndTXKgt9veKZ3wf1LaXqsl3aJzYjB0MykwxYiDKHBOgnYr1pigi9fRzNGCj8m3pXTpdSldo+lDCGmJSIi3cUMoTDFqSqK8IC0unqFxVcPkTTqsQ56zQWyX5HzvmK4DpJ+WgtLqv9XLF7xQN2O2PFiaPMvI0wkai9XSyl9jHVlwX0npgMOLOkptZbtuJ7cqvptvvrntpWLBAItIGDDHov0QKlYAm9MZJD/60Y/atFm1bhEeGgEIZZ999rFtHex9xPGDYSwc/cZ35GBNef/gBz+wegTBtY68TIcGOL2KJ33hOymd9AmRiaYcV19DpKHR33jBWEEgiJjcVHKiy7xhYshJX7gejr6CLHlex3XPDO3L06/iiToFfOvNNQ2oB/lrr1kQCWmw3LwIy083/JJ3YuOkkidFZoufVb6KQ58EkKVxFPq6kOm+yI971YMpV1OSbhGpdIpzEkSfN37z/O4fjk/p6C8onnauGs7/YN1fNWrVuVqw0u7LX/6yDVannHJKeUpGK6vrWqkdJ+RjsXEqBpuNd999d1u00koeoVsg8OpXvzr95Cc/ST/84Q/TL3/5S1sQBLY8d2ung9S46DvOQWWaG+s7NuuPHuVmkBzEsa8OcP7y91M6VQP9vJka7NV0fZnMQQp+eLMJtOdMpFGclMKXWHriCXababG+7iEinHwIa/FzxZTiXJ1/SRTTmHaJUIzoJCMZZIU+0x78kpdysaeNOF1OcAp63fjC28pQIy4iqEilvpQHieHTHvKhMCNX+WutL3L7XEofPG5MCQ4Lgl+8dQgMvaGm8GhNu53XbeAAZVhbH/SV2O66sYDkkEMOsVM12It18cUX2xYDSnSs3O+rRb0Q9cfh07a//uu/Tocddlg64ogjWnqZa53SwNCv4fTr6AyXfmAcbaubZ129gWUMdc+PFDbd87YC9jFysDZbAarfo9H0XbXfCLP1gL5jiwdl1d1+MlS9my7XGJv/MpqABNN40zQdeMqxenu2jvDyZ2qMDUYS+LqBRFxmuBSDR6GDolwWWTiL+mQ5DxMMooi+E5oRluXS90E8ZOX5ljEuzBGetVtvfk803cr9MSdqmvJ/5/LKjDoa4CSHa665xjYoVweAoQqFSJjOY/DnuVEnHXXjlH72mtWpG38eW221lR3TxbO1djry5i3Q1113XTr//PPNX5EFDgzq1JFN6Bz3xDQbA3O7HRgywLPfayQMHb+3ve1tJYmvSH1mzZpl+9DqkAllQxgHa7qPBUDtdGwR4DU7HMP2+9//PnE0V506DVYH6sk1adKkdOSRR9omcizHILfB0Gpd1iySc3xuvSGl72vgnyLCw1BzkvB4ERD8YFRiXOEWHApKYESYlVEy7lEAedVlAtP3V38AxHFZrjmYw54GRRxiU8365mVhqSNrU/n32MkmFT3Sc6TZ1ttpivJrKR161ErZ8M2Ayx9uXccAMdKAWTevkfRWtbpRHywCTjthb9VNN91km8HZWMxgCvHxQ4ALnFiG7kvT2VYAkfGaGE6kZ+XdFlts0fEl5tSlrmtn3/KdAq9WHFh1ytE/7GOcP39+uvfee20T+IMPPmjTjSwY8X7D937Dp9+Y7uRZ6X777WcLS+g3fuzFoqD29lYzSQ4MH5qZ0n+dlNKffitC0fQhc+uVE0IybRjZ2NSlkxO+8Y00SmuMDDMJlX6fqJhwJMcy1xwpr3SKIxpXkiUMzL3yxgo1RkapCBe5eSIUFdYalrTrHil9+mQdvLzqLDKhduFaQ4BDl3m3GG+LZqEK9/wQ4FBlnuNhtbEloFPP9FqrbWg7ApAw1i6nm/BsDbLjgtic3NiryAKk0Vp/Xlb4IyPQXJIDm6e0sfqiM1I67VspPaIFKRBd9Rma41flEbgMBxHZtoPitpBVwqUgJ8ZzHhxMzXhLSlh/A52RnKY0VGaPxw/MiwUmq2vBC+/V+x9f1LaJVxXtGZhX3AcCgUAg0CAEmk1ydDQW0uTLUvrpKSnd+RetetQiEsiu6pygqrKRwiOlGRDPzJ4ZhiPl6/FOcpAjFtzLd0zpQ1pg8o4PpbS+VnqGCwQCgUAgEJBh0MqDk24FjDn+RQtTOv8XKZ31Y72f7X5tAxCL2PQljYaR8CpMhMiMLgXys7dCD6Eu00UJwpSVZRYYeeq2dNyggye/LM8EWYYOecBmnl+Of16y9bVQ49APiuC0enInWW8TmrFgFgTCBQKBQCAwEgJBcgMRuv3GlM79WUqXnyvie0z8JGLhubXzkZPUwHv4R9OJthjEmcx0FFE+Y6skMtKzREW8WWTkIR30iSod6XBSWk68rjW1NWD/g1L6m4+ntM9bUtLbF8IFAoFAIBAI9EcgSK4/HsUdJ5uwxeC0b6d07R/1NgK9NRy3OqsudQI8DMR/+AYykt+flFCWkwGGoVw+Ryukpm/JPB1WHJlhsOE8z+KuuMfahAh50ekee2lbgE4vecPButdJJuECgUAgEAgEBkUgSG5QWLLwOZ1Ccu80LU75dUq336RDknWcl47w6uWIL/7bghDpQla4kvUKlmLzOK7YzG3BUpe4nnzqSh+nkWmRxgiNMKegUN5Ou6f06n01NXlkSru/PqUNtf+ppYd4ufzwAoFAIBBoEAJBcnU6G0vroVnaV3e1FqlcrjMrL9TLS58R+WjrAfvUKmRTvJ1bIv0zutJHwYHcQWLcQXFKJ1Is9IpNBmWCFydoPYxeyTFRVtsB79A77Q7Qm8p1vUJbA8IFAoFAIBAI1EYgSK42VFKE7Ji6fGROSrO1OEWnp/ROuTb1LHxUFt7ilJ7VGZTPLbHnZrbc38kPiwxug9cIMIVpAslZJ6J9T2ltPVNbR9fmW+otAW/UlOQbUtph15S2eHlhtbVSz9ANBAKBQCAQMASC5Fb0i7BMu68fFOHNnp56H7gr9cy8K/UueCT1LNVWhGVaVblc1t4LutiqwDFirH6coAOiOSR6XS0e2WIbkdkrC0KbJB9SIy5cIBAIBAKBwAojECS3whDmDLDyWBwCmUF8EFvVJ94ObYbgtGmbMG/mhvT8tBW3/NpVp8gnEAgEAoGGIxAk1/AvQDQ/EAgEAoFuRsAXrXdzG6NtgUAgEAgEAg1FIEiuoR0fzQ4EAoFAoAkIBMk1oZejjYFAIBAINBSBILmGdnw0OxAIBAKBJiAQJNeEXo42BgKBQCDQUASC5Bra8dHsQCAQCASagECQXBN6OdoYCAQCgUBDEQiSa2jHR7MDgUAgEGgCAkFyTejlaGMgEAgEAg1FIEiuoR0fzQ4EAoFAoAkIBMk1oZejjYFAIBAINBSBILmGdnw0OxAIBAKBJiAQJNeEXo42BgKBQCDQUASC5Bra8dHsQCAQCASagECQXBN6OdoYCAQCgUBDEQiSa2jHR7MDgUAgEGgCAkFyTejlaGMgEAgEAg1FIEiuoR0fzQ4EAoFAoAkIBMk1oZejjYFAIBAINBSBILmGdnw0OxAIBAKBJiAQJNeEXo42BgKBQCDQUASC5Bra8dHsQCAQCASagECQXBN6OdoYCAQCgUBDEQiSa2jHR7MDgUAgEGgCAkFyTejlaGMgEAgEAg1FIEiuoR0fzQ4EAoFAoAkIBMk1oZejjYFAIBAINBSBILmGdnw0OxAIBAKBJiAQJNeEXo42BgKBQCDQUASC5Bra8dHsQCAQCASagECQXBN6OdoYCAQCgUBDEQiSa2jHR7MDgUAgEGgCAkFyTejlaGMgEAgEAg1FIEiuoR0fzQ4EAoFAoAkIBMk1oZejjYFAIBAINBSBILmGdnw0OxAIBAKBJiAQJNeEXo42BgKBQCDQUASC5Bra8dHsQCAQCASagECQXBN6OdoYCAQCgUBDEQiSa2jHR7MDgUAgEGgCAkFyTejlaGMgEAgEAg1FIEiuoR0fzQ4EAoFAoAkIBMk1oZejjYFAIBAINBSBILmGdnw0OxAIBAKBJiAQJNeEXo42BgKBQCDQUASC5Bra8dHsQCAQCASagECQXBN6OdoYCAQCgUBDEQiSa2jHR7MDgUAgEGgCAkFyTejlaGMgEAgEAg1FIEiuoR0fzQ4EAoFAoAkIBMk1oZejjYFAIBAINBSBILmGdnw0OxAIBAKBJiAQJNeEXo42BgKBQCDQUASC5Bra8dHsQCAQCASagECQXBN6OdoYCAQCgUBDEQiSa2jHR7MDgUAgEGgCAkFyTejlaGMgEAgEAg1FIEiuoR0fzQ4EAoFAoAkIBMk1oZejjYFAIBAINBSBILmGdnw0OxAIBAKBJiAQJNeEXo42BgKBQCDQUASC5Bra8dHsQCAQCASagECQXBN6OdoYCAQCgUBDEQiSa2jHR7MDgUAgEGgCAkFyTejlaGMgEAgEAg1FIEiuoR0fzQ4EAoFAoAkI/H/cDHYO4PB98gAAAABJRU5ErkJggg==;" vertex="1" parent="1">
          <mxGeometry x="900" y="510" width="95.87" height="50" as="geometry" />
        </mxCell>
        <mxCell id="jVyCfuGsHyISrXu1QeCp-9" value="" style="shape=image;verticalLabelPosition=bottom;labelBackgroundColor=default;verticalAlign=top;aspect=fixed;imageAspect=0;image=data:image/png,iVBORw0KGgoAAAANSUhEUgAAAkgAAAERCAYAAACAd1gNAAAKpWlDQ1BJQ0MgUHJvZmlsZQAASImVlwdQk9kWgO//p4eEAKFLCb0J0gkgJfRQpFdRCUmAUEIMBBS7sriCK4qIFBUpS1VwVYqsFVEsiGLDviCLgPJcLNhQeT8whN19bd7J3LnfnJx7yp17Zs4PAFmKJRAkw1IApPDThUGeLrSIyCgabhRAgID8bIAai50mYAQE+AJE5ve/yof7iDUid4xnfP3r//9VpDncNDYAUADCsZw0dgrCJ5E1zhYI0wFAHUb0WpnpghnuQlhWiCSI8IMZjp/j8RmOnWU0mLUJCXJFWBYAPInFEsYDQKIheloGOx7xQ3JG2JTP4fERFiDsmJKSykH4GML6iA2iI834p8f+yU/8X3zGin2yWPFinqtlVvBuvDRBMmvt/3kd/1tSkkXzMXSRRUoQegXN1Izc2YOkVB8x82OX+c8zjzNrP8sJIq/QeWanuUbNM4fl5iM+m7zMd57jeB5MsZ90Zsg8c9Pcg+dZmBokjhUndGXMM0u4EFeUFCrWJ3CZYv9ZCSHh85zBC1s2z2lJwT4LNq5ivVAUJM6fy/d0WYjrIa49Je1P9fKY4rPpCSFe4tpZC/lz+YwFn2kR4tw4XDf3BZtQsb0g3UUcS5AcILbnJnuK9WkZweKz6ciDXDgbIL7DRJZ3wDyDAJAAkgENmCNdZw7ckeWRzl2TPlOIa6pgrZAXn5BOYyAdxqUx+WyTxTRzU3NLAGb6de45vAua7UNI/uyCLrUaecYfkB7Zs6CLLQSgLQcAxUcLOu1DAFCyAWjtZIuEGXO62V7CACKgIBkqATWgBfSBMZKXNbAHzkiG3sAfhIBIsBKwkdxTgBBkgvVgC8gBeWA32AdKQTmoAnXgKDgO2sBpcAFcBtfBLXAPPAYDYBi8AhPgA5iCIAgHkSEqpASpQzqQEWQO0SFHyB3yhYKgSCgGiof4kAhaD22D8qACqBSqgOqhX6BT0AXoKtQHPYQGoTHoLfQFRsEkWBZWhXXhJTAdZsA+cAi8Ao6HV8NZcDa8Cy6GK+EjcCt8Ab4O34MH4FfwJAqgJFDyKA2UMYqOckX5o6JQcSghaiMqF1WEqkQ1oTpQ3ag7qAHUOOozGoumomloY7Q92gsdimajV6M3oneiS9F16FZ0F/oOehA9gf6OIWNUMEYYOwwTE4GJx2RicjBFmBpMC+YS5h5mGPMBi8XKY/WwNlgvbCQ2EbsOuxN7ENuMPY/tww5hJ3E4nBLOCOeA88excOm4HFwJ7gjuHO42bhj3CS+BV8eb4z3wUXg+fiu+CN+AP4u/jR/BTxGkCDoEO4I/gUNYS8gnVBM6CDcJw4QpojRRj+hADCEmErcQi4lNxEvEJ8R3EhISmhK2EoESPInNEsUSxySuSAxKfCbJkAxJrqRokoi0i1RLOk96SHpHJpN1yc7kKHI6eRe5nnyR/Iz8SZIqaSLJlORIbpIsk2yVvC35mkKg6FAYlJWULEoR5QTlJmVciiClK+UqxZLaKFUmdUqqX2pSmiptJu0vnSK9U7pB+qr0qAxORlfGXYYjky1TJXNRZoiKompRXals6jZqNfUSdVgWK6sny5RNlM2TPSrbKzshJyNnKRcmt0auTO6M3IA8Sl5XnimfLJ8vf1z+vvwXBVUFhgJXYYdCk8JthY+KixSdFbmKuYrNivcUvyjRlNyVkpT2KLUpPVVGKxsqBypnKh9SvqQ8vkh2kf0i9qLcRccXPVKBVQxVglTWqVSp9KhMqqqpeqoKVEtUL6qOq8mrOaslqhWqnVUbU6eqO6rz1AvVz6m/pMnRGLRkWjGtizahoaLhpSHSqNDo1ZjS1NMM1dyq2az5VIuoRdeK0yrU6tSa0FbX9tNer92o/UiHoEPXSdDZr9Ot81FXTzdcd7tum+6onqIeUy9Lr1HviT5Z30l/tX6l/l0DrAHdIMngoMEtQ9jQyjDBsMzwphFsZG3EMzpo1LcYs9h2MX9x5eJ+Y5IxwzjDuNF40ETexNdkq0mbyesl2kuiluxZ0r3ku6mVabJpteljMxkzb7OtZh1mb80NzdnmZeZ3LcgWHhabLNot3lgaWXItD1k+sKJa+Vltt+q0+mZtYy20brIes9G2ibE5YNNPl6UH0HfSr9hibF1sN9metv1sZ22Xbnfc7g97Y/sk+wb70aV6S7lLq5cOOWg6sBwqHAYcaY4xjocdB5w0nFhOlU7PnbWcOc41ziMMA0Yi4wjjtYupi9ClxeWjq53rBtfzbig3T7dct153GfdQ91L3Zx6aHvEejR4Tnlae6zzPe2G8fLz2ePUzVZlsZj1zwtvGe4N3lw/JJ9in1Oe5r6Gv0LfDD/bz9tvr92SZzjL+sjZ/4M/03+v/NEAvYHXAr4HYwIDAssAXQWZB64O6g6nBq4Ibgj+EuITkhzwO1Q8VhXaGUcKiw+rDPoa7hReED0QsidgQcT1SOZIX2R6FiwqLqomaXO6+fN/y4Wir6Jzo+yv0VqxZcXWl8srklWdWUVaxVp2IwcSExzTEfGX5sypZk7HM2AOxE2xX9n72K44zp5AzxnXgFnBH4hziCuJG4x3i98aPJTglFCWM81x5pbw3iV6J5Ykfk/yTapOmk8OTm1PwKTEpp/gy/CR+V6pa6prUPoGRIEcwsNpu9b7VE0IfYU0alLYirT1dFhmMekT6oh9EgxmOGWUZnzLDMk+skV7DX9Oz1nDtjrUjWR5ZP69Dr2Ov61yvsX7L+sENjA0VG6GNsRs7N2ltyt40vNlzc90W4pakLTe2mm4t2Pp+W/i2jmzV7M3ZQz94/tCYI5kjzOnfbr+9/Ef0j7wfe3dY7CjZ8T2Xk3stzzSvKO/rTvbOaz+Z/VT80/SuuF29+db5h3Zjd/N339/jtKeuQLogq2Bor9/e1kJaYW7h+32r9l0tsiwq30/cL9o/UOxb3F6iXbK75GtpQum9Mpey5gMqB3Yc+HiQc/D2IedDTeWq5XnlXw7zDj+o8KxordStLKrCVmVUvagOq+7+mf5zfY1yTV7Nt1p+7UBdUF1XvU19fYNKQ34j3ChqHDsSfeTWUbej7U3GTRXN8s15x8Ax0bGXv8T8cv+4z/HOE/QTTSd1Th5oobbktkKta1sn2hLaBtoj2/tOeZ/q7LDvaPnV5Nfa0xqny87Inck/SzybfXb6XNa5yfOC8+MX4i8Mda7qfHwx4uLdrsCu3ks+l65c9rh8sZvRfe6Kw5XTV+2unrpGv9Z23fp6a49VT8sNqxstvda9rTdtbrbfsr3V0be07+xtp9sX7rjduXyXeff6vWX3+u6H3n/QH90/8IDzYPRh8sM3jzIeTT3e/ATzJPep1NOiZyrPKn8z+K15wHrgzKDbYM/z4OePh9hDr35P+/3rcPYL8ouiEfWR+lHz0dNjHmO3Xi5/OfxK8GpqPOcf0v848Fr/9ck/nP/omYiYGH4jfDP9duc7pXe17y3fd04GTD77kPJh6mPuJ6VPdZ/pn7u/hH8Zmcr8ivta/M3gW8d3n+9PplOmpwUsIWt2FEAhC46LA+BtLQDkSACotwAgLp+bp2cFmvsGmCXwn3hu5p4VawCq+gEIWQeA7w0ASkqRcRbxT4kGIICC6O0BbGEhXvOz7+ycPiMMEgCdtgD4WYF/I3Mz/J/y/vsOZrxagr/v/wQ11QTNJJ9kuwAAAFZlWElmTU0AKgAAAAgAAYdpAAQAAAABAAAAGgAAAAAAA5KGAAcAAAASAAAARKACAAQAAAABAAACSKADAAQAAAABAAABEQAAAABBU0NJSQAAAFNjcmVlbnNob3S96IJaAAAB1mlUWHRYTUw6Y29tLmFkb2JlLnhtcAAAAAAAPHg6eG1wbWV0YSB4bWxuczp4PSJhZG9iZTpuczptZXRhLyIgeDp4bXB0az0iWE1QIENvcmUgNi4wLjAiPgogICA8cmRmOlJERiB4bWxuczpyZGY9Imh0dHA6Ly93d3cudzMub3JnLzE5OTkvMDIvMjItcmRmLXN5bnRheC1ucyMiPgogICAgICA8cmRmOkRlc2NyaXB0aW9uIHJkZjphYm91dD0iIgogICAgICAgICAgICB4bWxuczpleGlmPSJodHRwOi8vbnMuYWRvYmUuY29tL2V4aWYvMS4wLyI+CiAgICAgICAgIDxleGlmOlBpeGVsWURpbWVuc2lvbj4yNzM8L2V4aWY6UGl4ZWxZRGltZW5zaW9uPgogICAgICAgICA8ZXhpZjpQaXhlbFhEaW1lbnNpb24+NTg0PC9leGlmOlBpeGVsWERpbWVuc2lvbj4KICAgICAgICAgPGV4aWY6VXNlckNvbW1lbnQ+U2NyZWVuc2hvdDwvZXhpZjpVc2VyQ29tbWVudD4KICAgICAgPC9yZGY6RGVzY3JpcHRpb24+CiAgIDwvcmRmOlJERj4KPC94OnhtcG1ldGE+Cs9ecN8AAEAASURBVHgB7L1Zs2XHmZ6X++wz1oRCYSYBEABnssl2qyfS7lCo3ZJC6rbCUjhsy2Erwo62L/wvHL7wpX+Bb3zjG8sK+8IhS5ZaampodzfZTYk9kmKT4AQCIIihpjPu4+d5v7X22WfXLtQhUERVAZnn7L1y5crhyzczv3zXl7nWnjz//PPHrbuOQEegI9AR6Ah0BDoCHYE5AmtzX/d0BDoCHYGOQEegI9AR6AgEgU6QekfoCHQEOgIdgY5AR6AjsIRAJ0hLgPTTjkBHoCPQEegIdAQ6Ap0g9T7QEegIdAQ6Ah2BjkBHYAmBTpCWAOmnHYGOQEegI9AR6Ah0BDpB6n2gI9AR6Ah0BDoCHYGOwBICnSAtAdJPOwIdgY5AR6Aj0BHoCHSC1PtAR6Aj0BHoCHQEOgIdgSUEOkFaAqSfdgQ6Ah2BjkBHoCPQEegEqfeBjkBHoCPQEegIdAQ6AksIdIK0BEg/7Qh0BDoCHYGOQEegI9AJUu8DHYGOQEegI9AR6Ah0BJYQ6ARpCZB+2hHoCHQEOgIdgY5AR6ATpN4HOgIdgY5AR6Aj0BHoCCwh0AnSEiD9tCPQEegIdAQ6Ah2BjkAnSL0PdAQ6Ah2BjkBHoCPQEVhCoBOkJUD6aUegI9AR6Ah0BDoCHYFOkHof6Ah0BDoCHYGOQEegI7CEQCdIS4D0045AR6Aj0BHoCHQEOgKdIPU+0BHoCHQEOgIdgY5AR2AJgU6QlgDppx2BjkBHoCPQEegIdAQ6Qep9oCPQEegIdAQ6Ah2BjsASAp0gLQHSTzsCHYGOQEegI9AR6Ah0gtT7QEegI9AR6Ah0BDoCHYElBDpBWgKkn3YEOgIdgY5AR6Aj0BHoBKn3gY5AR6Aj0BHoCHQEOgJLCHSCtARIP+0IdAQ6Ah2BjkBHoCPQCVLvAx2BjkBHoCPQEegIdASWEOgEaQmQftoR6Ah0BDoCHYGOQEegE6TeBzoCHYGOQEegI9AR6AgsIdAJ0hIg/bQj0BHoCHQEOgIdgY5AJ0i9D3QEOgIdgY5AR6Aj0BFYQqATpCVA+mlHoCPQEegIdAQ6Ah2BTpB6H+gIdAQ6Ah2BjkBHoCOwhEAnSEuA9NOOQEegI9AR6Ah0BDoCnSD1PtAR6Ah0BDoCHYGOQEdgCYFOkJYA6acdgY5AR6Aj0BHoCHQEOkHqfaAj0BHoCHQEOgIdgY7AEgKdIC0B0k87Ah2BjkBHoCPQEegIdILU+0BHoCPQEegIdAQ6Ah2BJQQ6QVoCpJ92BDoCHYGOQEegI9AR6ASp94GOQEegI9AR6Ah0BDoCSwh0grQESD/tCHQEOgIdgY5AR6AjsP4gQzCZTO66+Mez2ZnynKzdyi1nx8fNvzs55V6WnaTt+PhsZa/Kfzq5VZ5V8VaFHVt4dx2BjkBHoCPQEegIzBF4oAnSvBZ30/NuSBd8DerzzqR5N2nfWYk9VUegI9AR6Ah0BDoCt0GgE6QlYJYtO0uX3/ZUcnQmW8wKDmXQ8TslV28rVb/YEegIdAQ6Ah2BjsBPikAnSD8pYneI/64MUCuI0x2KO7l8JmZ2Er37OgIdgY5AR6Aj0BG4PQKdIC1hc1YL0qp9O6Y9G0+5XazOkJaao592BDoCHYGOQEfgniBwXxKkVSSllp9OE4jVNIPQ09FWA0u0tTNsbF5dBlmuKoOwVcG3CECmqzZzr9y/tGID9Wp8zrbBO/VZEvJ2dZy0s2z8tmVul8Ppmq8iladj9LOOQEegI9AR6AjcHwjclwTp3UHD7H+2+ZpoS0zhNgUfnzHLVcTlNlmuJEjLYpd0Z5VxBZlZQa4iz1JBq/ZOna3U29Wuh3cEOgIdgY5AR+DBRuD9R5B8hP4MxCcc4QwWpDQvbOEshOEscU7yuzX2Em8Zetaq0OW0q+KQfNWGKKLemhqqeEsWtwQM8vRDR6Aj0BHoCHQE3v8IvP8IEm02OSPxObMF6az9YBUhWZU2JO70BenIqncwrVoGvHWpCkq40oB0K8mRHC0TJF7AdEvgcWPJ7nYWqNOi97OOQEegI9AR6Ai87xB4HxKklRRgdcOt3UIVVsY7WyySnpEgJb+luLHgLIVFmFVht/KelWWvevHkmesSGrWqoJUQ9cCOQEegI9AR6Ai8rxC49wRpMr0F0JXTMm+Z1qoxCalZY/qecGZMpnzMJ078x5AJjyMJGC1JJ9uI2U48Xky8cWPzSeDa2igPYWNkrDOrNlWTxZIj1pLwK/clGWf5rdnIPp2erTmOjo6WykXWudxVW2s0mYBQBKJAj5Y7dUs1H84nfPxbG0mY58YzohmsrSeOp6NFacobxOdxhjrMzrSZu+Qh11Ou8joV1E86Ah2B+wCBVbprtuKXBlbF+2mM67OWs7biVw5+GvLcB03URfgpI3C2GfmnLMTZsof8OJE7fw8Tuk9ZjaQoJInLUiTneON6zZD6mFT/4Iw75DNez9GwECMjVHGmsNg7OZPOs1yIHM6xcJ54bSRiJxfOUoaxR+I3pky6hYIlPUpsfSeapiQ+OZpWgpSqEQbh9HJimhsnIVUVL7GSr/FgiUQ27eigVngXQ8Yr/dgR6Ai8HxE40ZkntVsVdnL1xBdNgY68o1MNrYh01nJWJO1BHYF3hMADQ5DmE/tABEIS4pcSDcyE8/iHc3lOpavrGXQD+QlhmC+x5UoAnDmKhzLmiC6fzy8seVbEi1JYZkiRbyktp2e+y1nab6T0/g7c6DwP6aF+sRJxTXvb6HI98QeCMyRNGq1CQ17BLv7KMWQrmZDAPCVMJ8WO2fdjR6Aj8AFCYDLeUC7UeUlF5coMNXIWdaEaXVsR8VZdo8ZaEXFBju7tCLwbBB4YguQ9Rd1BMHqcr7FehA4NpETCNFqMjmNiNd6JFamun0BlFvnB2QzuMTw5jifGqI9mlrO4yHU6YoKWkyvzUtxEuVUDnM7sbc7WRv5TJqHELFsRRKYyRzvVomTKtqyBDLnBW3Jm/GMtRbrIIgnSy5IeOIXAKbcZyiSNk/LGwpOyf3UEOgLvUwRKB5+unFrzFoV2OkrOYjNHZdzRqXPMcsmtCKLkVaFLCftpR+AdIvBAESQHYQ1QyFEGkYPDMM/xG+ayzwJZygDyGqRJ/zg+Pa65/8lrcXWMZWoIMcPEH/KeB9/OE1KxfJF8xyIWLo1yjEErooyXbjmuumuS5JSrnMNbIECpgXL5z/KZHv8Sbr24lvNRANMkC+PywT8Bp+xBIk7ly6UhvoeV1Sa8u45AR+D9j4DL79GzC1UttToqlbqg7jgdspBgwRt1dUtEtFT00knE0lulv05Cu68jcPcQeE8J0qq7j5q0Fyo0WjAIqviMFEab48XxoZk2fjYlZ5r3WggSDMElM0bRODiLAGlZ4mOqMR4TfvLOgCWcpF43n3GpqoiSYeNm8AUZ8U6nt+4hms2WN0+fTrN4Nt8YPQQ6zP1fdmW+Ph26aimu6mz1tRLV35zoROMEgWRUpKmsPpMQoiJSx8oPNm7ElBSJs0LNjJPNmaQJQzoSLQxQkZoktMWovYxrRRQIf2VRFas9SxU0/65C5qcV33QrwDgdq591BDoCdwmB1bq5Mnevp+M9cRjz6iT/vCeLfoyiqevGJDRqYsxTXaJzuT/3aDm7/ZfWI/W8rp7ERc+QtqxKpdv8Vobp8fr8mrrbrROuDJzEGvRc5Ko8x++5zhoD+rEjsITAe0qQlsp++9P5xOkwYMrNeflDhEidAQipkfhUGMNz2FeU4SuJGq7nfPRzHAlQhGAyD8EgXFqQpTrD+HOwT4tpvL28XJ1ON+4YxwgZ7COhGFJImEaFspjJqncjkcFilNP+kaAkCl+J6xFFwaH2DXlRRVcfLUVRFuIjOYq1rRSQCkocwlttBM+RNYrLjQKjLEJltqhNlZPKM9gP1w3rriPQEXiAEGC8qxdLC3JkCIcsEVCUyVHe2roRoiXUFEWRkmg8M50ZGTjf92ma27nj0rmkq5tb7ddmghZJ2KCvomnMW9WDvuK6JMmSiDbsulRXWU6+9HTXETgzAvctQXKoOaBG0uDAmxMXJvJMwW5Cluw4HccqZBKXzQYLkUf3I3E0PlSHAcpRIuAkbxjHjN2hPAewNCmErC6sBHPV3UfluzL6qcDiW6cHrLUdBJnHTdjRYIWZhxJtwT96vXOKkogGMW/JD9/RDl4Z8pEAcVaaxjCJk3EN04Kk8jHcPNx7BEZaj469C5yhgLAehWypHE3jNWUaykA47zBNnWtVMfyGmG93HYGOwIOAwLSUYGlGdOHasJS2Fl3KOFd3MqzVl2pXtUDdeOKVXCWsyJQKoR6/V2/cyREZvWLxpdU8en5yVudoqOPDIR5x1GODiQpNFZlG/UfqOxXar3cEbkHgviRIIUVOtIqbIxNuiI0hRW4kExPf/SNBCinyXBLFu3vWNjgyoBNecYo4VdwiMmM6siCuBeVuhUHmPcic7OSagpx2q4a56TJaT0e95cwsb11iI2keoTuJHkmmZx3YEh9ciI4pJTqBL2FZKMw1SY+kppRNiFFIk2FHtbzGtYlEKASJeBP95odqnIGxREqFYzyOWZoTtWg0CyWMMoLhUM4oWmT0pLuOQEfgPkZAeiPtGb4lPHx8D5phYziDvG1MNolZGrFIE1cHvakOSGzOy3fnKqvxZjIvXOmx0ilah2a5gfOca8Q54IZWXaM2M41U7Uh9RnkJ81s9pU7ir7uOwE+CwP1LkKwFnXwcXI6ILNk4MkKKPBb5OdbqkzAGKS83bGubJJVIeW4cLUqea1HikzzIDyI1+us6Ubw2lj0Mcuf9ZTcqgFPhrkOtinwqEifJ79ZMQ1ZOxZWASEZOu1Vljy9wixJAIayFmBRpOiFenM8OkfEoSkM7XMiSS2XuP9JKhAKqpbfDKMSR6EiKtBzFBqR+In++EKzik2EUVs5TwVJcc8nFMsRqHtI9HYGOwH2KgENbTak+m1MixrB6NufeLA0qbGOCHiWeeil/scITy/OEoxdx5neW+z33H2EXShr1j6RIN0MX6pM06TzO2kHmBWOfUCJ1j2cVzytavjl01xH4iRC45wTJgUhfxvEVj7YKA2qwZSktZ0aEMHAHw8jjyOY8hqrDjlVwgtj/492N4Rw152pJmmBRCmmCHB1zLValwfI02EEqruTJcs1bMjX4M0wjH0ELbhVJqbuoUgYnUSEOyeQkZJVvRRFEk+5AaAYXPrLCbzzEL3zw1z8m5pSLkpC8oGgMb2vWWr8WoToG8eF8coRqih88Q5qIx/EYU7bnEzWcBAuiVelLaYYsmR9KLOFUSEVqoWLlXdyxG9sDxoiJeUkCR6eAfBJwEjpeXT6W+Xw5tJ93BDoCZ0UgOs9hN4xCx2zC+HZk5g99qW7z2lRixLGIEj6GqaonZAi9OUXfGrsW3Yw3HfylF1Xxph/+M9xT/CBwzQWcEKiFSApUxIhviJIUSbLjAzHG3eRmWJVyhD46Qv/ECI9QWpPUdLGKEyF6n+PJHyJYMHkY1l1HYBUC95wgRaiho5aA9Fh7LR/vAjK55kINVr1FYBiWkh6GX0iQS2uyBMmNBCgfCJIbpyVJXocgJU6uMUwzcCjLNKQN6RnI0UiSEqYZNzKcfCX85DQ+ByoZLYWqEN6pY+iyvKVbJEdFMk6HzUtVCUQRaNkxJV8SHszOnkqG6r1GxiNvSQ1Hl9RiJQIbLU7ZZ6QSIn7jp00mM/DhZUsT1/xZZks9uZ78p8Rxn1JqajvpJw3fOvPQX4RWeVS9xhFXpfIzujHVeH77Y/pGgX77SP1KR6AjcHsEMvQYsx5lO9G5pbHK+uONY9GjqTqSeNIfbjUhQ6FKbR29GhrEdePETz7uWYrf9ObNUe2QB1Isjj9J0Dj8JTyK4ceCXFI7khJBjPKHLoQGFRHCn/2Q5DkjNPpYfeZ2APNRp6UMyykdqk99Zznq/tyaqT+M2F1HYAUC9wdBWhIsA4cwO306vh2agTcSGclM/Ezmhkt8GkQoe5D0r2tNkhARLwRpOJcomcZwB7cjKWWMeQ9hjBgJUu6ghjjLgyhpl+Vm5C3P16viLSW7w+k4uBF1GMuj5STjOtpEsBzwEhv8KIE5pZMASV4UjI/EJOQkhMlr5K9i4bjG0TuztcT3vO7WJGlROIl3UMt0R2KmbOQ3KzN3yo2Wk5CRraBJOEkXRWhZBCmiSjeR8CVevsfKEKG7jkBH4L1DQD1IaaO+8qy2LUh03HtUVqSBCkGQ8KF7JTtb/GmhMb5hZUOSFC0SpCJZYxlFlUoXqJeitryI01/7jSBI6g50zBG6Rnp0qJ+/wZbU9tse/mk7JN5kAlEKYUL5kJe68NAjf6ZNKaknPo9DuSm0f3UEViBwXxKkdG679TBg7OB5O3aIDROzJCgWoSI+IUMu34QobUKQtgdyJCEqC9IaROl4IFP+IG38pDFvyVCW7uInH45zAoW/bC9L6I3CLQQnH9MuOHnJoAYWQn8Cr0xjcKuyGktTYViOy1sqhiJRpsgJXETLURGnegpNBkOaMBnvtkgrgckSG0eX0I72c30iEfKay2y2AdcmLtUljCP/2ZOUvCpf6510hEUZRQ6y8JjvRICQlUwJnmMnZTJedx2BjsB7gUD0SMiD2q/+pDRqyBAdrEESH4mRfxshQhWyAUFy6U0KNdKjdfRubEkuyaFfs8Q1z3kso2oWnYAApRkIKwWG3q0bNOmQVqR99JHkSNLkx+sSLcOmkKOSQSrETdyon8m0LFCjprQ06tfJ0XvRrR74Mu5LguTwLHaEj46uUULCkiWaDDb8TtTuM5IYDWRJ4jPTYrS+VRP5tAhSluC0MJ0iVQxaCRL5zcmQBCrlpMD4i/TU4F1s7fkAXAiM3Avno/fdTPUjOYtliAwzzJeedrOcaaw8kikUAIM/+49IlP1AxJ+qEEKQJFD6IUUSmpHkSGTwr0F8sqERq1AscpalhSjx14kOSQLHY+JNTAtZkmQVMeM8FiQJrbIgrWWQlhL5K/nzugYlHYCJwrJiYwDe7joCHYH3BoHolIEcDRomeqasPGUFirWIhzikRBuM/w3/OE65Kd06hiBJm9CfZTWSQEmQIFXqVI7ZExqfZ/WxdlEBw7iP6iDM/UMzl/L58yW1/rn/yCW77DNC1x2id2bqPPQTuaOr0b5shfAvWwy8NvxZTjiXnoqRm7aubwJI/3obBO4DgjTSCokQQ5V/SUFCc+56+DCgIC+1h8i9RFqGtAThhwgdayGaYj3yCTbuaCY8eurgWd/YYpAxyKc7xIVMGZdrWpvW8oYzSpIkQbZCwCBZI0kqOwbm5anLQW+D4vySqibqZh6iZzkk59ZtyY1LZ4vBSrXoTLUczzAVh8gp6GjNmaIwQmhcMiM8JEavZ5IWCdEG4ZKcowNIFGGH+3mUP4RUrAw7glxyXQuSCrAdQ5gGLlSVg5BqoSK/5MU93Br4hoBZlgUqg9Y85DRc5UWLg3UuEo4HLVbXcsULuNP1v/W8YvXvjkBH4GwIZMyNw4ph50iUQKipXDKTEpVW1vIDCeIj0YntiHE9btTemg7E6FiyxIdrxtsk/hpkSoKE9iQP8iN/yVWFlU60jAx/SrZ4eZJ6Qe1wSBr1XDZmo2y0F62hhw/RMb77SAvVIcdDiNCaxAj1kpfqUra68MhKUmi0uvlQulpFS/tRCBkJhsJHGUQgMOjpriMAAvcFQaqWoJPTqctaNHZUu66Exc5e17PnCLG1IPmYvk+mSY6mDFYtR5uQns1NBgID5frBXlvb0XK0RcffNismadSBnMuhug5RCulyGFUZU/Yv1bCqcwfMYciHstzJnSXOkMeqkbgy+a0R64Vrp2XZYuBnGQ0ikvV7knnU2qNlzTSHhygTiE4IFIrm4HAPKgPTQcFIaMJ61thPIF+UNB3cjJVohvk65BKFFPII4SQGfsrMnRrnHBvxEs4m7gnKLBu6j6gUhMr2qwbgaANIqChbdaxTeYXf0S4qyXLjcTg1fBGj5ctjtH7sCHQE3h6BjEejOD755+PNj7+rNpKkcYksG6/RI+Oeo3X0yQY/8eETZOuzjbaO/t3kI0HSbrTJDajvRkp8zssKP21b3MCuk89QqvwlZakbihgpilajo7Y/29MnnYHQ8IEB7bHE5ueQsg1bO/KdR3vtQJWCblf/EQJpQudJnEjvDV72UFEv34VkRcsmVWWVPllQKiFPEbF/dQTuB4K0uhVGUjR24JNN2pAZZ3BHhMtrLpMxYOPneHP9kXZ184n22GPPtosMCKfgCcRpMtlmMpcc1fq0dzZ5V8ZAvGI90m9epGEo5eh3LDYV4Om7diEAy/k5yKuyd8w/2JyKRb02vIWCpPjEGURo4rIa+R0dHECMsOj4tzFp65uafsCAZbPpDNIoEQIlFckM/7hX6RgipcKMBUpS5XKlViTxOcKPEtJa5DLbZLKP37JtF2oBQdJgVISHo3WTZJp/dJR3b9aWvJQZ2VRbHASbD8fuOgIdgfcOAcajTt2SD37umxiSjFL0QNmP+MYytMlN1Db6dPNws23j35qehyBBirhhXeMlRlqaDC+CVRYn9fc6ekGdZEn1ChIL9B99y7j35rhumxpEy5ta9bfkSNIj0dmFYB3kXIJ0cLzfVHvXDm/yLA76i0xdNXDpj+DSKeoYzqp66p1cyMHA6GKCuusIrEKg6PyqK/cwrAiAw8bezLcdWauDVg4/3oUwUefpNQalj/KvMUCdxNcO32qPMCD+27/5V9uvfuHj7QJGog3GCDwBqxLZOQnj9DY3IaeUk3IcoOUSI5O1S2zD2XDt3R1SwljMQlY1iBcCbuPVErTotH794I39tntw3K7vHrare7N2jduq7/zwzXZ1d9Z+fG2/vfbWzfb6W9fajd2Dtru33g4hOVOsbdAcOAo4uLQ2xXQ9RSFheXPrdIjlGuRqKniSI5fW9nIMWZJcYVUKmhKdkCcANozoMUX5SgBeEZAXWaIExzaNctIuLt5juEtvucsbwhcr2f0dgY7ATw2BaMBBAelX47kohUYtogPBwW7EOeRnstPOHe+0TZbeH958uJ3f2247bGHYwPqeVwMwfLUquaTmjVkdGflYnDwbXcrMycmDMBIl9xYdztTNqAb0gedafXYPN/jWas0SHHsh97QebZ9vs2uvtH3iHPm6ETI9hjiFbHHT5o3vDNmlQimPC+P8Et2TUvpXR2A1Aie9dfX1exaasUqPHkmDlp0s84QowXicjCVJkKJYN7QkMSgbdzO7kwttY+dKu3iZef8am/lYSpqu8WSbw4RBk98U4k5oRl4j9alytLqMbmAwGXAntGm8uvq4gvWsjpiBfOpS8YRTQXXisF5yS0Gakp+5rCXHeOJUT+y1z1/ET53J+ybE6a2rV9urezuQqcP2nZdeay/+4PX27e+/1m7sb6Jwjtv+PuRHBQQpmkz3UHaQI5UMlqNjFZZLmmA2waze1lBCKCnjhBBJhGwbhcCvBYvIo1oiHOVlHIXx6L4BoyC7mgsvDkuSlibrUQEJ7V8dgY7ATw+BqI1SHkUe9DP+1hnPUpwp52VFcvkMyxHbFbAhtc3Zent0+5H23/xP/12bnF9rG5vuCyUpHzdXm6/6NUv2HLFlxyJkTRz7Xo9OpjCH+6hlXeabuk8018cvNBO6qNKwkIalvO0et//tf/hf2xtXr1EoN4g89L/OwyOxgpPjEcRIchQdc4oYVfldxQTi/vU2CLy3BMnJcRiIizKVXcGuXwOmrtVQyDUmUwdd0kKK3PTn3iOtSfVOIwemkzZr4L4DicG5z/6ZA+Zu98JMN7YZsA4UByx/zME69ynprZLKM4oXaYYRNM7Zprmjc+SfyaWEk5iLBY6hqfR4cnJ0tWvZuVndkgOxFzmZ8UO3vtfICp7fWm8Xzz3cXvBO6+lp2/vMRzBNf6S9er21r3/nWvv6iy+3b373lfbSa1djhXKTpMRnAjEyX/cRaGEqZQNqLrOhyI5ZVpvwWoUs1bkEl9gciAvoKEKUH5gEFtsMM54vnFSJ2U7RnoMyHdNahzSKX/rHPOMdccsFQ7rrCHQEfgIExpEzjiT1qn6/YwFSR3qzw7m2l2zQRr9k3xEhhrm/yH1GF9bOt4sfvdAmT6Av2AZK0ozdLLGrXTlPvoxhbE9cHNwoxHi+cPSSFqNRJi9FQi+MQpN1ewO9tn6ubbGcd4AOYZGP6y7J+WYkn9x1awEJ1F3oUrdUKF7884wIWNQvnnbXERgQWDHV/vSwcdNwOv3AQjR1asUJCRo7rNfs/Jpyhmsea5DV+HPDcRGkE6LUssQGEWKwuB+JfXzsveFV9EziTt4acZOaQeb9irYNTcinnAPQz5IbxF0KfbenKwpazvI2ZCsEYjnukN1YI48+xeYL3sq5lIYliRPVBPdW7TLk8eFLs/b8pzfbr332o1z7aHvx1dZ++3e/0X7/j7/bXn7zsO0fXm3nL+ywwnazXX/rzbaDSd19Tm2N/QDrWJyO2ei9b97cHbIXSYy9V6zXDECulEtrkiSJjfT10kn3IvFxw3wuqZglVEpKXt5yktC/1CdEsSo41s+YiVue/t0R6AicAQFHkR/1X244ORRpcIiWlp2iP91zpD3d0ewym0+mbUGItlCsIUjE2WA8bxxstJss3597+kIydrx7UxRiwrfn/CfvM4iXKOrbaHwTLrjk4znqhwiNHdttsjdt2yzv7aF7dnyCme0HuY1DsbhfSR1/AJlLTSIM9nbqqbXKPVa+UiB/XotTw5zWMsOFfvgAIvCeEqQz40v/rH1H1VWzZsyocXnHyTP7kRxFdPw81UZYXl9PmO/CcFqtdeYzl/iBiTgZLGmqAxWE6mt7C0KJpWgDi9PPfXi7/czf+Xj77q9+vP3ht99sv/N732jf+M6rmK+n7dwVCOg+5Ie9TscHkhgUlJveUVDQUZRgVC3oqxhpBdso5IY2cVmNMlKkliXJUZbhlEQVxXWjc5ZH/fGraFXZXu2uI9AR+CkioO4ke78zRvFrRfJxfb4Z/R59jB+CxKeO43uOfopy3SHrdXT/1A+yaukqaUOvIne94TtahcpV7cZ6et5dR+DtELgvCVKRm2GozjsxnVmCRLfPm5nt7AyMLNFk/5HLbT7eqVWJa17v/f+Wto/FhlA3rHsjpqnu5s2DtrO92c7Bc26yqfvw4Kg9fe6wffyXLrZf+9lfaP/qj99q//Bf/nn702+/2vY3wHj9rbaFtXyyv8ObAMB93U2RmLPd+8Sr/13uVKlmeS6kFpLjktwBJiKarEgQRSODRqPs1eaYmzjbDCGr6fxeIEmdJ4FHdx2Bu4/AeDNTepNbHMbtFGuR9qKiHX4XOcqLItmPuI5Fyc89c+gDyZrvYJKwuS0gvwvHAyXK7YP+2UclyWMyUL/M64nQpWPumfS94AcAgfuSIIlbyI2dmm5sp66XSI7EBxLEAHZfTPYhMThq0zZhkKZxkM/xz4w8P/tAe6SYZZlhN1Gtg7Vz2xAatMUu62+u029u8TYTXv42uz5rF9u19us/d6l95ulfbH/476613/7yt9qfv/j9duPmW+z3gmJt7fI+Etf+2ciNUvKlnGFfWpfy2KBwk7nXeVouZnytSkQLO8oGL/c7VZtbfpEiNlvS7hK6erLNfLrrCHQEfloIROcOmTsKT2xHJzQpb8hG345WJK02DNCflkh3zHdDIofgeTcT2wl8B9IipcsP5nIHhibJvDDqmeikO+beI3zQEbhPCJIMRlcDzc48+ivIkEzt8/DEyYgmrkcJE+TIJbjcJZgdrnIs/+L3WOJi2AfBfzAsQco83A8kBd3f9+kPSNJ4DfKy6/IWe5TO80TgGhu5X9jBqvSLF9pnP/659r//49a+/Ee8SuCmNige3d2/XtafKfY9N1yjkI58wo28j3ltgG8z0eW1DKPJiPYq0kthlqU8MSEZkVYbiFIaMH5b8oPaaqLXXUfg7iDgTccqxahOjUr1Mp41lsWzRIXunf+FkMwf/ifFuMfx7sj2k+aSh0eytCad86NEftc8MPg4X3R11rXJIibdvwqB+4AgVTfNZImEWhiyz4guHeuRj2xxV+DkWhajkyU0ImaNHJsHk+smhgt+TmRtp23xuOmM5ZwN5t4Jj6876s0rLocP7tCQZsZ5wPSsm66PSi47gWLZ2RjuCnfVpjaBWLP36PkLk/bf/+3Ptd/91DPt//7Sn7Z/8+cv8ZTgQ2yKv8ZDbxIhFNQMszvpj4609KF0sSStsQl7lp814Q25ELHZYZgSack86300jNakOM1Llmm78TxLwqO+OUce1+Q8GGfU6ElRX3OitRDWvR2BjkCNmeAwjp/h6IjLXh6IhctRWmV8K3WbupauRdlN2uhgxuo6OtnN2tt57YdjnkzuiUOPIMcGy/fbbND23UlTZN3Mk2w8YAJVmnHDvMbb/N1Y7hwwPhuXrRqE5NUC3px59V5V455g1ws9CwL3AUE6i5g9zr1CoHRGkUt0jVypXYRP/fVfvNyevvLF9g/+0e+13/nGj3iSbRvFiYmbx/7X3YzNhm986E7Iqi9wk3BhVZJ9+cRarElYjI59q3eYDn6fuMvj/xIfkgwkLSRotC7dKyB6uR2BDxgC3pLAGzIWc3siaQpxwi4zbN6uGxQH8L1wkjgJHTYjPt5Q+Qi/VqPIrvz5SP/ulYz3Apde5t1CoBOku4Xk+zQf1cp4Y6UhBw7U1tlLtP/GcfuZp7baE//ZL7Wdf/6t9k+/9OW2t7/Wts5daYc3Xuc3g1m+487N9O4DICUKrCxEHicsx+nye3E8AacC8887vKTiTjXEibNuEQpU/asj8B4i4CgM/cgxfsmHZIS/WJgYoL4P6V5SDzeTl8YYZOMmS72TJ/AG+SvGewhdL+p9g0AnSO+bpry7FRmMNygfLEGcuMQmpdGQM2UJcwMDtu+Xury93v7eX3u+7RzdaF/6/W+2N6/zFpJ13pvk2zhRXlqOTOseo5lv4I4dW4sSpCg/TzKY6CFNPgnnU4nZyI3WHY1G3qWO1qS7W8ueW0egI3A7BCRFbmvIUb+EI6RotNqw5EbYvXQha9x8jX+eF2niKKFT9yijyuteMrl7CVIv+x0jcG979zsWuyf8aSMQMkQh8plsvIYo6Q7YO7THawCO2IfgW402sSg9vXmt/ebf+Wz7wuc+yWO1qKMNXgjJizuP3b/gizvZq1BPGcLHveN0rc7lND+c5/1WKi8JFcrMsjmpb/LrriPQEXiPEXDcU6QEY3HZSmuNpl1vWhyZ0o976bLEN8hTcim1simj/lGTxNu/OgI/EQLvqQXJN2AvuiydrBhfCR/MB2OcNWfqjE27PpOsE+04UDOLsziTp7LY1Osv07IRWNuEs60/kWgxR8QbJ98VxS6K9oH3jzRF8oLFenA8yA+uLpcJJA+5YRUC0xkb4wn+u//RJ/ldtx+3f/0nr7W9NX4H7ugV3ra7i6GJJ9k2LpDEtqGdON/AeuQP2GpZ0mp07EbtkCP85svvweU3ldy3RBxfAJoLWJpmtPu8JUcz0yiiR7NacqsUeZVfkaNoSZPqLaVdtcTnhs/qS0uRh1PT+BdFvZRp0q2Qe5WMq8peXeKDGTrifhbp7zYWZy373Za7qpyz52n/XNGhlwHL8vVSjxyJw2Lc9MvFAEddlZChiN93B21484LTEuzfMQ9G2I1jQUKeuXUm4/YM8iW3u/3FCMMS7eZyl/68h3P5Xt3luLNmsYAh+wYPovg7j/6Gm+PMeviiWus+b4u8wJZ0XHunbp7XO83gXaRb1c/eRXZnTnov63xmId9hRPvHA+HGRhiPEXpRH+BfPH0gKvU+EdIn1Q53b7QP8ePA//lvfLE9/+gWCvRmrEgH03Nt8+IVyBB0NdYjn0ZEmcWChKpCuTmwQ57RwPoXB3rOJWRRZSovQaPbGg/fGP9OR/vN8mcsZ/FoHypqc/JdBVnYwkcRlHfFJ/GGuuhfLpeAlXKTe3cdgXeGAOPBMXHq885y+sCkyrgfMaPWpQcc5N11BAqBB4YgKW7ddA9TWO6EahLzgn9DhN627yUCEgBuPc9ts5zGe5Geu9Laf/m3vtiefIjHgX2Ef/NCu8rLtTd49fZkfQuOxCsA/N08lt7WeDTX39SrD10Rk9SxZqmQn9znUZMiUKMyqwd2iTJnK2esrC/FXP7Au+Rq8q/xyO2zt9B3/EymSDCkmx8dTYpvuD+loj/VIa51WvicUeoebY6A495l3rv5mWd+H3vOWu9Out9JI0qH+rh8J8h9MNK8p0ts7wbSOTkKD8pXESK9ZjyEv/3Cx7uRoKe9HQIuVR3BMjR1a6b/uY9daH/ti59q/8f/+2/aDX9he4vlNZY9J7yjhJeSQEhYWnODNq8AmByxHKoJP68E8MWVLMf5u20DAZoToWy2VJnVXqg8EYdfBXcWN+5HWIxb1itDJC91xeW99KeFiCFnC+d6lcu6Lro8kVcdFa5eF1etfJhmvL6YvhP8U2jccpJl1ltC30XAUvu9i5x+4qSr+tTqTBTyLIKedSSsLuWDGFptIG5FLh1/6oGzoP1BxOuDWOcHhiCl26bnYiviOKqD0XLkcQz7IDbkvavzMev7k7a7d9w2eTOnbbCNBeVXv/Cp9rVvvNz+LZ+27m/kbfIapHr/UX5seNignaU2SZGPzcmLPEo+YnqxVQ10rxIH3dD2ySP9ITvN6tptvtM3kGnZrWEFKlcESYXpr3uPofP4hN8Spowpfx4rkip/yM9wzTzlgqcdEg0E6nR4P7sdAra/n7vp6hUTdznTMwq4vB/z9sm8IbizjNWdTsfrfez2qI5XRGxpGI+X+rEjkPf+vWcwjJtix7unHJlQavphIqG3ulzjKktmH26/J27k5WWCrlt4Lb8jxowzYU+LVgQ36flL9NMZk/ChsyBvdGZyXT8+RzhzLhu3Z5l0ucbGX55BT9Y+vj6+vfs9A+D9WBAmFy0+2xv+pAjwijmf5x5u7dd/5XPthz/aba9cO2y7R2+xskab0NpulvQz87H+ddqXl0tOs9mbPHzzeaw4tLfb7I95nUCsSoSTpt6URAHe7fHnb0JJgAhI/0jeLsPQl7I/SA0YslUMyZ9TGS0RSWc8CRDhpnGDp64mY8KT3pJOOyefpM/MxNUUmciISf0iInlR7IQ3iJttJmTj4fdXyHUjyTK/A5fluEZFci3Xk89wblled6nwNi51GZiEG+gTn+RD0JCKcMdSQDIIVOdZ6qmTbKAfUtSBvWJpnNScaHUcx/OpqMY7i0ubElEZjZ8vyidvmy1BCh+xhnbg/FbZiDCAOcojplUv6kebVIYpgPT2nSFfChlac6i5xdNP/TNby4tICuE1ZEs2lVcCDSfQGOlKFSGXBrGqaoQYS5tr5CQLc0lpQ751XnlPHExzN4QZO6J4jGCOlAojivl6OVH85p8eSUjVY3JIvVIhbmi4UbEnWIpxHH7r1H3G5mvzTv7JC5lpjwP0Lq+DbQfTg+bfoWM4eXN4z5314W3ZWKGP1vjBbOQ6oj/lk3erYbVmrlhLXWx/N3Cz3M/HthUwm4lccu4b/g1bNbzSVsv1E1JdNUu8aS2zyVl9+RRwzhfCi5yfRFoY8mM3zsWFrBOec3RHbhBPkkfucRCPaTz6yoNlN7bpYnjqvhiw4B/jexSisXajzPPjQpq8qmUAwYOfGhJgPQo4xB/zX0h+33jvSwuSgJ3ol0JZlZJZR8KE0sj5ELZGfDcBT1y+sTPSKQL60EBRGIP/vkH+fSRIOr9rU3Z8PjNI6TFK+HOfvtI+/tUn20t/8O+wLvlU2w2ULAo5G7QlrHzUutFSpawNO/Z33Epz0c5kGL9qTEVmIaaxVHtBVFIVbFSUh3fnmUBJV8THdIaRsmYvIpKEUEf8WJbXT7QQ3nm5xr3VzQc2/c9R7yFfkPCQJIMtI+GU4yRtpHTlCh/TqDRUKpFrJDaeWIdkMNY9QbcIU2PGCpy4qo/xK9yDBDLOrPX4hRAhC+OFHJFvSFcVMNCfI+a7Msrx9FhNwnxVOSnhJHCFzxgVyzE/xuc4difD/DdoOCrHSdyx/c2ICOO1wCtmTvKESuTn5RuPsLSHKTzxCzccTTfE4mjfqbOKNBQ1xJiH4ampcJBjfkF5UyVSlExuz7Mw8zV2LQFXXXJuzPRxgDjlkIXzSIesJTvtQruOZJDc7I7UWb3oeKyyJX3Jmyy91dApV8L056/SpSYVhTL4w5+xpkx8qovmSvK5V19qADEYPyXHUE8CRS/14+ukrmlR+pOBldI+Yk7pYysrY7xlV2GmHV3Gx3gyHL2sDImnB2fZC8lyva7wPcTJYSGSsuls+4hdp0N0wshziDJcsX8tZDDGPx1pHnfwzA/mFx1HfI+jeoqAho0pvaZ/IV+9SjOGL1waUj0Yh/uTIAlrepNHgLYx8hSUFiAmUJW86xa8qPB4xh3E7ADWz32B5/60hVqhu/cEgQwASnIARFllZBDKXd3jl9fbL/3sc+0P/+TrPP7PJm7uOhuWvskRbcV7lCa8lvsYMqFq4jYwxEgrX15KqTJ3UpPARMOj6ugTGWjjJJ8y+cLZR3KRoz+y63k+g8YLf0sc8jPPwa/Hm6wQJzOyGP6ibBLJwNu7dFM7qUB4YOaIUoH4qZvm3ViP9fBjXH6KJU5O7zkf71z1q4hqBuJEGQwYvEmbLwIWXNUnqpM0dVQ5KsNYjTErk1k/My2lqt+PznzrfLVyLaVpCSX4mC6J51+pUwk7D1vpUT7jkc1YXsnmOSkM94+7/6l7zgysf47K7xSozH7KVUgp7RFbJ7/EGgCOf0ga5Q/GmfS54DXJasW3dBzpgt9wTEmCu+S8WRtEzNHcrFe6IRnVpDz2t8X6OGlXWhNaeiQw4dzhV35c+liOOQ0R8tI4kVWdOCevxXoltib6IZ+5rJQWv/0zRYqXlAgLPH/JjxCtM/ltRDprYtAmhWzJ8d5+Fz2KfMrI3wx5tBSl7yOMGNrMwij2vsBf69lIEB2FQXqA1qqLwx2d+QyRclxI4/l4TSy17unGKLk+9JN5vIpy6nuxe41pjYDWTGaGnYqD4IvxjHSq+5zK/SwnoGeGFDfKmXPyHc/NxW0Jy31ATIf/FLQYPwEPyNd9SZCqQQZlIfQZzLaSy2rOKBIhJ1cIkxYISFLIkdYHiZTHQQE8IO3w4IrJOLDz5+dDUgutd+uxNOy9NWuf/8RD7VMvPNW++mdv0kxuyqbLsScpxGidp9m0/KF0fZItv2Pi27b9fTYUteTI96042Mpku2AFSPsO6k2LkVrQMelH/c+gnRMh82G/kYO7LEx6uA5BmytS8igtmtpw3f98EYfjklPFpuJ2S66lv5U48WudcGIKuYMMZY9VriOHCUKWOBiJ61F09GPJf94tpaLn0rwbc6o8lpO4ynYbN6pJJ4SQDuua6IPCtFpeMw+OQlfbsRTMT7lKo3+hLLyjTPPjEH/xMHOt5gzO1tWlLOX0r8RaCLNptHIR18kvcYzE5HdqCWrIi/xG2VzKKItyBdoE3kAFR5ftSaLKEPM0j+1C/iEVHLPUZlMYbGSES1qu+b/ockpf81j9Stz5ECa5q+Xd4Zp1oe7WKylSF3wEE73q7pWs9xh3cDD9EJQhKP2KfIRb8ZStZHbKCuWibtSHPlZ1srX5iAG+qoJylNxDR+SatEMJyyfx0JcPQiqD1/y/l0656q/kFAQxD4b6EU6/lp3UWGzTxjwWgqKo/lG4BQ3qU5i8fa3sD8lmiCYM+dgI+odMlKBCEjy/NoYlzVKB9oEELYQbNjp1od1i4TJ+x/ZJiL6hpcdk7/Co/P6Zo5se6FMnxRCCHHyl2oSPYo7LzcuF2j8fJHd/EqQBwYAJnmkPB2QGpdpqmFTVbA7cXMMCEcXndRo0HzJy4NuAD1KrPFCygrWTVCwig0JG/jX3eh3dbI9c2mk/+zMvtD//9p+0G3vXISWQo6PxRZ9MUBKTmHc4+nz8uOymVrPdHPQZ+HXMMlT1CMJJQ7xE8WgWBiWM+J5z8Li2WSdz0kT4lJfHmVXIwpDm2FtM0/CVtPOjYScu/WnoY2P/ivWoZqGaxOyK6a7Erm7JEbz4+PJM/U5U/uK4YVM0rktBE2a7vAyTa4ljYYhvvy51a4CfW91I5pTdJFalwkhr2EAmq4rUketraNuQj8U8FzXyGJ7MSEDRGV94dauU3syGSO6J8jZf4AA41su2MfOx/YI/X15zCXBD2T1XNqJK7cY0iwX40sBRPiAjtVhhaeZEcpRJMXWAOAgxos5JEvmKcixIzASmdGI1Tbk65oriLjhlq5+5oD74ldEqST6VU5Lui1a9NqWfRX7Sp06UMfWHDnGBQSmSh3t8RkdGhIcURf6SRdGoBuF+hjqlLzks7Ut+9IciEMdJznipqbWlLP26yrO86FRzTl8wbSGZ9s42B6xLLKcPCZPkvf4qmfhmHnCwKa/1sH3sgRJQQ9FGXB/alXO3BVaNiGmVxS7pqj3wnjgieG3RicGh7aMz6/JBVEdfBXhmD18MFc7xPDl4PmY1XhjyC/SD34PR6N3VR4a4hinKSJCGrEKi3E+27NKvFgLNRixWudSczHMkL2Mt9pTkPuBj1cfS0h/Hk1UZPyBh7ylBWn5yoxTrqABQdnTpdGsaxD9dLEY0Hy/R4UMzOuOgzY4P94cOodJkKDjoUfQz35S6eZOfwnirHWw+0g72efzct63622H2VLJFFSW+mxVTxkJHP1JT2g0Mixx0vBWdLAlv+Tprj6C7WY+VTmVl0eZlPB+DN4wfiUSBah3f54mxrQ3RIgbimtXhMQ/Ub+4knVwlym96hLGGB+c5dynSaukywZT3LnwrJ+iq/BGm+MWUDcfuv2bzNbD/yuc/1P7Z73+7feu7rwPmRltHzoODPdpWtYVVyfb1zdlZcvOnDZAVS1MGbX6fLeoNuasBnQQs1VcCcA+YGWjNZTULpw8cIcfaOvlQ94Qz4zgJOvHMw8SXYjKPO2lxPR/yURkU/tUWBZIlnjiVUXShyoGJxqWVehs44QA+5fXjmVSDPf3SicqGsArMVtN1l4SRx/ZLAyH3AcuLhOUOOOnIY4hv29kNLXM2vNpcifKhAyh76kdYrAFo1mzEJULCOUqCnDBitRjC7RS1Z8u6kknyHFWgE73yiLedR1wQbDxTpowN78SHGAGFcGagTE3UO2TF5HFkmDTD2QC8JShnJmra0Nw8lzOE1A7nqRsXPHqdiP5XuhyFlzFje5iLMqpXJAeUewT2kiJlOpKIGgbGIUlcO7Sd/BvimVoMYskkL9uxnKVabn0iBHEdkFZJUlT1YRzQp9bAbV25+ZhmSh1DTDm3joYf8bCJLYC3+iIRSWEpFsWhyk6dxJBP1QW5lM3irZdH5U9969wuVgTca2JBVxzqaLa+VfrYcUNZIXR01CPG6hbpbJMZY+uA4wYd8oCtDPt03PVDtjagQ0NSyYOciTvIajcxX8VOUCJ4xucOLumIl75m3Epben5Ib5A3V8jiJm0HyjFbLdaR2/ZTB6yj95UXeJkbuCkj3MYWUwm8xHHMWyFLTPtNlcfFuMjvF6DlSo7GVvvYhyh+SDWTnKekiivOO4qJJ1a3xKVPUL7X+M/RgmiOGuOGGYCzmekq1EGpS0bHhg8r5Qd5kSvhnCeMNPYfM1DkGpVKOqQl0JsEoyw6X9ESWfhOPzIGcStskIuTDYRJXRKvxlSsRebLda/5J9alSS2FvKysAimc8RKEx+BFQe4z/3tKkH6iugPciJze6k0CSuPaCH5saAZR7U+i4/vEGkPk6v5O+z9/64/al/7wJa4Bv53WxrZRhqPdasp7eew2Dmqv2VqZ1PTamPlPIkPO4JLJ6Xjksxw6r8/pmPOzKBkS5YcWecLLTuXd5zqkaAqRuHxh2q6cn7QPXdlpTz9xsT35yPl2kSfEeMqeWuFUdJR7QNqoXPKaHe0zKJHFpay76NQxDuDgGjSHZqPMja2ttgf/ffhiax9+7FL7zg9eaofWR+xZbqNCKCzeIungFO8CPOcZQRnpyCxgfohirGqbkwCaF3wIN744hSyBGSRpqp8ijwnP5ORkNYSZLnnmGpHMnLDkLFaRyeJSKhdPO9WARDeTS434JJbwOJHmyTwy88k8zz2GDEFwaCLqTng+lO1MR+HJT3JFHhJfpreSiw6afm+04KIsSsApZSji/GO4fUbg+AQWvqhm5pSQCxKlJQBHfPJiS8aS+eVDupAVz+PHE2SCzslwDAZcQT6vqCTNIf0Bv3oxVct1L5o7rgZc8p4TNgWKvCWz9XEOtN2Uvc6rb48b8a1b6m2d9XDMEhTllLK2jUpfSBhCVG0L2utQnMFzRuYhRvglEYlH3FhfvK7sqQvXlDF+64Kz/BwtX1kkQ47Tkl251yEXCePEuoQsTQ852heJa3jS2ueIa5zUZyhjyN+DrurDEdlKrsz7yMlR+fFIiPiHD/BTQUSyn42EKBTC/oqMfJMP7Q7QGoKrDmSUC1zkqBRVptTjRCbz18Wqm+Ah8jwRFw03r7i5Zwx4++MQHWSTB9AMwgxHBUiggo8XT2dpnxBL3/1qHczItqjpm9pY4YTmQP1pgxOBK5B0phScyoO89CfP8gNvVJZtYFxHkkdvUrTDeSZJEb+6os6zr5pvpRnHGyFzV/KkqVKPkehI2JXc7jiqPkM8N9xq2afUDboxnxyx4ics3/VlDSMvX2O9zEmIDU+7k6n1tAzDpNOGGz99gfr4F+trYgz1Mk/iL7o012LAfeq/u7PlXaxkAE2HzvCgBapjpYtpSXAPkpuyaTSV0oS7RtNsTK+2S9Pr7Qff+N32TW4sptuX+NqhVTfpwCgBFIGdRKPr2sb5ktjeZD78uexiScbRabmpaaOivv23aSrdGG/MZzwfj3aqUy6diJKVYyjbvNaZ+WdYx7wzmeRHX31CqkqZtjfa9uar7eLOVvvCp9jr88zF9pnnzrXHIVDr3I1uc2uqWV18jtnvc7i/y6Apsniq7Hd1Uu1TCsH7nDq3LRyHR7sH7aFLG+2zzz7SvvJH6+0Ai5iTUv3cCEOtmA11Y3DziXWI+npbzXCkfWkvzweFoCJ04Ae/JBcvPLEWccGkG6RFa8SKlJkKaWCPIQaQJt+CnXghSuWPlcLy1Ta69AcPXF/hDLd7RmHSN4euWpqCChbBoaL+o1Wy/ObxkLYwjN+kC3nnqNbxVQmSgVzjB4HTD+zz1o3JLOmJGo0XC5I4+8dRbMBFUZ0MpqbBn+Ucz52EJURiTDwhCSzGN1xMqXfy01/JycdAZRGAkiVy4C/LERco2427trcYROF7ndz0Z2JFbqaC+CNYGs8UlL9QXsRWJj+2H8dFOWNpQZhcR27lCqEwI/IRC10mvzSO5eL4UrHb78TZMSF5yion2Hp+iCVEq5FhY9yRNIUokX5el2Rqxrih3PSTyI71UJzB0BXcIkPVFmmHtAXXuO41CfxY13WuVZ24ZiX5T4dIQX5Vwala5KnLynWI7MqvrPlQCfVGnWNhTv24Rt9xaUhSZJoj/QBPNaovEG6bJCDFWRB4EZbNuJQ137jt+ITpz6wMYz3RqbPYSvwUf+6s2E/s7M24IamkL6J5NMztisbAP7a90U2FRIjkbFFX7B3UMkQ7YaRxqbFc9R2zzLgj3ilHoZGDeiXmcJ5lcASx91c54IkPWMnbfug1Xo1gZoknckP/HNJYjxo9iVR6Te/glNk4kd2qciLpAd74PQJ5XffINfUcwcFAA0LqNISJnxl63UrliFeZPa/fuRzOCavxTD1Mhzs0jFSee/T3TSWA1lPbnNmkPpRhXZXNayGlpBFxz3VidL+7+5IgZdIBdLt2lgmEnYFb3Y3wLLVgmiDYLlt/ntJYe3SgjXPC3zbRUiz2MEHJdfmpC5bp8r4kiMYxSzezY96ZRKo06zDjTtgfY04Jo5G9Pq3Z485tmTzsIndw5Eu2qx2dJsqY/VTNAABAAElEQVTWCCiufd7tpBROFA54Jz8VGutU6ZA3UPg3d/faP/jdm+2hr/6gvfDERvvCZx5vv/Spx9qH+LkPX9q4d+Nm29qCJE54koxsxetuOgelc7ZY6VxuOmDEHThCGECueHzm2cttG4vSjV1wb3u0h0OFuomtfmcURzt+VRk1Tv3XbA8UdNSbipwovuYhxIH4kqDc/Yb4JAntTyQIU+7MnVXNapO4TDp5wg0whXCqYjc/8glBsr2JayFKsnj0dNF5PSiqNK0nZ965x5rEXfsa/TVPU6IN1iA8sSJJhPigs1hOoyz87llXk5iHVi6Xz0qeCi+OYjrzIE40lSWXBCq89FJkDnHgihOc+EzByTvnQEDekqQiHE7iA+QkyoROmhAjx4z1J5356SGqnoSVUoOwU27VH0VIH9QfK1ICHanITOTEA4tcj+zmxVnGCrlGjso7ZMdyR5m4FpLnOWNeS4xylez4ySmypb5DvhyMU0WBjEUR81Ds9XMBceLfJ0wS5FLb4QFH/Afg70TsZx1S4XWaj/zIy6MFFgiUQ0H596smZWCGHHD7Jd70JduCZxIiu2FaN22HWHtJX3202s56JUuONckhs9XSkY810aUew6mkyPN6/w+yI3hI3lAH+5Pnh7y9XgxyTiXsqy4DF0ms7FWr6QOU4yg04xBiygad4eMAUZLhj868oekJGWxLQXKpPfsKF/XhgvzJ4Ixf9olkjjx5FYWFCFKchXqd8vlozxgfFlFKPxv0HfulfdkJPEtbxDzOwBrqnXRDnmZn3Rcd5ZVOts5Kw1/yA8+cW3JdO4R0RZpgVpIJi2GWrzY3rhtLlClkMsehVDFfKN5+MFX+xEcOjq4EeBufsOQ5hlk/woWFOF7PTQ5x9Cc1nugp4xCmc47NnEJAbgIIS72I41GnIYIuE7lp3RCp6hH2vQrXwu01osYRjJTUk5LGenqeJkt4XTfsfnX3JUEKqkMHKzBLGUazObvQUg4c330UwBk0Eh4bWQV2iJJwf4t7cg5uOiGjlNb3GcBYVFhici9PJmBfJknLOJkMXZATlb1diYxsaT/2rjO5oWcsxE2nvCVYeW8JnKeqwVhybW1uRwGqc7zzO4pphGu8lZqZNIPF9+ucuzSFfBy3P/zObvuLV19q/+JrP2y/9nNPt1/9+Svt/M4OGBxGQfIKzXk5d8NjLRyQJ84Qh9UEcufbtdfb/vWj9pHHdpDjXLt6g5fMHbL/yEf+XW5DS9TARZHpR+FLeExvG0RVk7+Y2E5aPGzHRGHCWWOvy7jPaAIbEJ4pG7IlGaMFKYRjizCLYxbyY5uGIHEs61Vdz02lVeCjBPMjQYtu3n70RSeoEBf9aguOKiHv0tUexxIkuy390vdDebs23YBA4V/jBZsjgfJ36IxzBLPUn3Rak5jIRNSlI2WyPEXUOT7EyfEwJxjG4lz+574jj1ozatI+maRj4TAOmIYr4hfXkBIzzkggf/O2xAGTXOHLUCcfROZoqMd8xzoxEqZaohKTRDn5Iq2blctiUWU7aVh+iANyldWrrq0zETtJGidtjr9kVTTrj/AcnbbSJoN8IBcLiqJl31HkBQ/3uUnkseIdrjNpgTPNUVYWxxvZWbeQJmRNnkNa/RQfJz6ejFhrFZrSF8VX+dYhJ5Il3zjvnkC736Z15CiZyhF/1YX64Tfv+nBCjTirI2XF8kgQXQyZkEsZOYbIMaYO6FexFIUIEc5t/wGVOSSCy2yeS5bEUdlDsuy3lkJe5SwAH5HM36tOcoVu7CTosCDdrn5nrz3EEv+BTxdTV28MGH5IzJcyeiCuE+hZnWnKWeLgo8JZznP80NYHP2J5Hpf8K0q+0x4Ibf0YGYSN32CtzARFNq54VX8d8Y/AJ6fTX8pR0jAeSXA4CCnhUR9IDqz3MCulfWYIkSVO4tiSIEQZ6rXCzoId1Y6B0qP25BMnoRrrYS3MgzWEkD9zqZtm+pXhyGB8ulriGVe/dbMzSbbizBA3nMVvHaxT6ph2dq7hnICqN3IOCczX+CWPgdaYWOZPAkPsOsHS9ATM9/ARbn4Piru7s+U7qrUdQmBJHOSAllatwSTR4bqIT7F+GC+kCLJjt/K3vJKGxuc4YcnNH0M1unfwNtqahIhZM0qYjcoT36adEWLXkdPbkDY5g8QGJm6GSzpxXZvkttGYJy5xT07jWz3+T6erJNWJLFNXVbADIwcymHfFoJPyJJhPemVoUJd64gkZsYa5nyhkga564ypPiLGMeI4fhD1GAX77x5vtf/mt77Y//v5b7Tf/5nPtw5CGm+CzxeAoK0RJ8m6/ld2JRAR1Yq7Z3jEoHg5+SQfGo/aZjz3RXnr1x5ACiOtsj0mEWpJ40vzRWtplXYXnZvrCIHnQjsaw/rUMJjmiXZlYMAeydx8/s/vUJTQtR4bTq0OSCJM0SYiVcJ1465sbie9TL05MposWEXFwjgFRvO0LuPRDFTPCjK0SK4T143qeCJLAMPmotMXhiM2rMycLI/jE3iH1c6ZFgx5zy36UW/yasCS+WYKj+hrTYmGiDnmBOJnFwkYcy0cA2o46GM/MnbmUzQmJ67EQUa8QH+KqQFXYWl6cmD1ugNe6H/2SSD6VzrHip+JFYau0q1iOtglViHUAJCxeBGjczK14nUDzFI/Bjh8GbvZYIaY4jRN69giZH/VTxtwlU5DEIG1iuGTIc9o416kz3Z009gf8yGaLuAQtaRL70hkQHc7VGZEHbISejh/sZrTHMe2l/Lu0g6TigDL2JUmQi+xLwowYUsG5FhmedUg8iUnIROpDnrgQOAQa61JkaA2cbSfJT30Ke8Ih9JJR3/DvzUMsSshL84SwGz8shXNlFAT1Uz7VAfAzmdG/jrCMH9rXaIDtvP8NuZFNEiQRPOATqxiEaZ9hdQCGWsT2kUtSPgWLqWQJv2VJZGNld9qln7m5gFzSlg4qX6tyyL5NJ+VD9LCk8vuzt9pv/8//tJ1b22kb6KRNdNA6Pyskxupude969K+WlZpIq0/ZeifOqtqfPKrTx0fwU0/6uePVp2Xz/m6W6Y/47B/vtZf3Xm6Hm2AB9Qhppr1n6Dn7B+sEqAjrlnd+V58Ba0oYyra+yDiERB6AGOWq8AiW/iQJipxECF7D+bjE7GxyxHhys8chEaytYecYM+pBb9WZoUKSaFHO6F8cLbEsN8ayc0Ug/P5RB/Kyf483Bz6ZplXJ803CbY/EIZ3YOm6sg2VsMj5G/1hPEOIqbihnXieDwNpWt4LONTRjzh3XDIPMs173/ICPefs1IkrPSh6sfhK36m9BLsUhckXmO21twSYm3v3q7guCVOAEvXjLZyNxOgY7GThyDATQ3J0zYGJSdRCk+YzvjEMXRdGoyxNf/0CK6GqkcR+O+flfHVQN5wAosjT4bewMglEI8xsc4cuuOsmt4cvxqg6GUvY8OkNjKKsmZy5YxiiXs6fkkPO17EVyIDmg6n6CIQIsdmqwWMM6g4KbcFf3lT97hbu71v7uX3muPXpuk7tlnjwZNundKtc7CBnkF8W44dw6jhAV4WvtQ08+iuJDRgjLkfXg6CB0j1FNAtZXAlSZiIekRVzriQ3yVLnzqSNXGIlrkBwJUcgOSnviE34+1p9JFWSYkWJNIi9hdJRPYBFTJqg8+ajCIPr6psNhl3Du9jeYCPismUBxkNcKpQeC84Qnzpx5D2mDA56icY8HmjnkdANCtHa0A8nxOk/9YN082qcz5nGp6pcudRzvM2HuY+nch9Qab9ungqgv9T/iKaFjZjTvyNG4Qz9Mk0O47Pf6VXn4kSuEgUCxU1QhlPutU1cJkcRIC8YGP+3iJO6bnCVSo0Uj+2OIL5d0kk5+1M18xL6sJBSns2wPdF6PVHs4Ujev8cmkwXUtaXRbzgMi1zg3AuNPuc3BskLwJGtES/nIoHVpDHe6Bqm0/bpWN/sAcay/ywhlNaB8/rbIz/Fgo2YfDmUfDSQg+40YA4e8rX0NsqylxaXgTZY85a1FlAhTFi0xyO+TWu7XOSFI+C0aRxXSp+haqYd4S/w3Boxd5tygP47kdJNrRWY3IUi2AU9Z0dYhUo4J+pv7JM3PIiaz63ZNynGcWx9raK35iL/EKDgjv/KKNRepLlYjSR+ECBLkpLlOP3Lp27GjDNa3Jl3aifNjMDBj+xbf2bSNBky9uErYyUf9O6OuB+jal67+sG1hsd+EGG1DkDZYylcvkQOtUATJcjb4m6J7019Tgu0/5kq/0G/9EMCfMJFIu0ogKT9Cr0PPiiBxc+VexgPW7v1LStIpox+7hfmau8fRWa8KP7lmDPFVy+g8SxzHlPFt4LpEzsom7pTokT9E5LtuEiQT9nPv04Casc95/CekqLKzVGcsyjCf1LnGSo2JkiT1IQ96RJEg0uiXfPiagvJbngS7erzHarOqiWTKGlHM/EhPsAADyFFX9crYVDJlAqyRFIX4EUc5vYWl2yS/+jIHJRWHSmcrGDcWKy6M1zyOTnl0i2EVcn993wcE6ayAAKWatlq6Eqm0HNi2KJfXUGYSGnulLyBEwxGP+wgGmMy41lkZoGoflKpEytmkiFFlXHEcMmNB1WGWpczAWQq0Y1S6pQu3nNot/FjOiUvZ5pFs0s2J4uRU8o7yW69jSI7LiL5wMSRith3iUe/mQOFyF3XIs/Y3ZhfaP/rqK+3SxZ329/7KE9mDZcn3wj3z4UeYOFTSVBH8xSsva0TxqSjQirTZUF/qPZU4BQ/rzz+TjRaPNSYZJ8jwRMhfCBDkJhYGyRHWAv2SRcnTOozHvWcb5wjEkjVbpz8wye7NbrTt7e128dzFdvH8xXbh3IX2+EOP8rty2/Ff3LnQtrHIRcnTVv5lwziTw1XSXuenU67v3WhvXX+zvXXjKu95utmuXb/W3noT/83ddrjHRI4V4vzxBciqS2kofpZG97jrZ8tLO2SZrW2CAkSK56aZoJjsmNAm7qNzRkMTHvEYoPuiJFhOnC7L2cXVYipw+3o90YLyVEmi2DJJg9Mm6cRbguQPCW+C2Sb4aN3YwA//49pg6WBCL5JUeWQpk3JK2arsbLNhrFEsoyk9GD2IMkQc5HGy8NyPxCITCWNUq0v8wzUVceoASXIEZDiSfwgblbJsiZplGpY7YiZM461BJnKdepp2gychayMq5SoVec942WiGjMvuCWPX2x5WZ/fgsRfxEJzhSNgq90MmDmgMgkIYdrG0HNK+Xg8Hhm0oQz0BBhqoFetiXXVzQhrZJKPER/CN9DvbYsbeOzC1Peh+IaRpG9qAfqglySdTfcdTejt11mrm+x+O+X2xiQ1IZTJxEhxSJCOln8SSqTwQ5UzSBIckgbekz6U2x9oWanCPsul2CV/fhzSB8YHWo+BNHsbNbA9xRXfSQkU8Sb9ILKy4U3usQYAx46M1yT5o2xzYGRjPebUB49dxa09Jn6CukorEJdaiDk27DXFDPLBWpc8khenQZ5hVDyFGh1iOPB5Ff9PG6LpqEOSgLDWLUwJVsxC/GEpiaK388Mc16ZtWRwl6+nmuGJs/0/Nlm4xu7PN1ZCybinFkcwA55xIhjvGP51gnyUeSga2PEuv6HmnoBklXUimzPXoucspGQupBP+LojYDHTeTNzQ9+LW00LWFFSbMHiZSxuhJujtYhdREP3CLunjv/ZQyDjaS3cLcutjJdjY/1kuzZkNbFelTefqeFh2/xs4415gvNGqvpGlwUe519IlnW6X35LbYPhHMQ2MFVeLEAIbV3dPVnFexgGRoAr3Kxanwc9N6NaFXhLszbvSIapNRvE9HJHFBpdv3mmiNh5ImXsCVHB1h2DvJktHzhjueSMBUMBXGs8q0Z57H2cORa7iKVC+UBGyKM+mju4JqTqMOQoUIHhwUg92x2s21feKTdhPb/P7//Yvvkh6+0f+95LCPKeQ/cFX7AdgfycnCdNqFuDpsQAbFEdOvrCyZtI/1OurWUSHTuFm2HkCOr7NKZ1Q8ZgsIsWpDw5y6ZmW0KS5hu+Z4m+gQbtTc4v3zpcnvs4Ufas48/2x4/93h74vyT7coWe7WmF9qF6UUGP2SLv+Bv0TkzBAE4szc4KTjS7TeqkQPura4dXWtvHL7RXj/4cXv12ivth2/+sL3y1svtldd/2N768Vvt+rVdDJzI4wTOpCxxkazNIC3Ktr5Hm3FbT9PRdQnDApAXLjJ5ORHzYCIVxy9jsFvTt2MIxR8FmmTUkfQSJY8uo0mOtsBE68WWZAnctCBtiQd5OSHbzex+8XukHK0MKtb0RI/WFS1n70lX56gnypXAEIfhWNYNZEa2WJEYq2OauaKkQYlBGZZn2cORAC0u1nkMqz1lwjLNxtuqb2EUMkV8sdEyfAThyNI8BTl3ziCp59a2LCktdQSp9u54FyKqZcilp5AJ4mplO8SKdwAesSYRtmkY8axLcQjKHXDI5Ep6+6aYSUAlSLUxG3mRS0tREVLw5tZfq9IW5pxaXrM+G5RBBmQeqxltxBCwk8eKI/5iLo5a5gSMbz4c6YAhoHTHI0kOH5cJJUousR1CnvZRfZv0g9SJ+tjOyrNP//Ka7ewPJac1IIT2QdtqCmZr5OGNpxLY36rU8ueHwp06h3HgWMiGX2JFYL7SW8iLS/myD9VFPPF7PrqTiKkbwbaThMR6IjlJ6qg/HxpFAqE20Xqi3HGJb5+teHkhLXGSmjixWnIutSxtozj8UcfUlbzMt+QdslQWMrBOWrdj8R/C1Lx+XFqTHGRPGHlJ2daR0WvYh/nQLuRh+WWZAVHxs1SOJUVBkzoRnhsfjmiNjPMN6iRBUm7D6F5ofXWAH8Yz+VsXj25S50DoybFeg0EgboRL+YTMPq4VLBYkOqG3GMpsXnQDvmpZsOyZ4IfM9kuBSh0G/IAh51WG19JayUN/yXRSvvHuRyemD4ijE0F87LBZLuNuhVYM0mkfUacZco14Kpt0WY+ap9GUx6Txl+Ojfehk2RRsU5kpXUgF6nJCrFBDWBozHdf8F1yuL5zHaz5+zu4yjpOmBlw0LcmL5dOp1eaUlR94deakLr6NuthBKSx/dsXN23xTA2HZ4M7QJ/b22mz3NZT1VvvRjUn7R195uT331NPtUfjTvXC8jQDLzGZ769pNJgLIqWQoy2uFv5Oa1jAnZXFUfdW+I8KJX6SIUKwuboJ1z9Eak7yvZnBJTWtRltwIk2BIoDa3WcqgzI0Lm+35Jz7Snn/0o+25K8+3Zy8823h7VNvBouAPo2RJCO0wO+BVCEwW9aScKGFWPtwFU+Tho2QqbV9qSQnBW+WzPdtq5yc77cNbT7UJFoPjCyjJJw/ba4cvt+/u/0V78fUftG++8mL7zssvtjfeeK1NbvJeql3aj9n5iCcVD7nVt9yZTy1iIZwwYR5DouwHHo9kEGDjvpOJlik7Pcn9pXI3tjs5qLS0HgEL+KI4+WxCfrboQltgti1BQptuiYtHJ273xBC+7sRNP689SU6OfDh3flE5Wm+/chOAx2MpQeRUlOET4kA7utcl15HRJZ8oUdAKdsiZ7CzPD+chYxQkychmco4SH8M92jemKOfUA5PI1iaWGuS+gGXUpTI/RvSmZ4I19dhlT15rcbDLS2Ox2t0E7z0sdTd2IT5gDCqk1wpBE0ASaiOzDxYgL6TAo/t2fNAgm7QhHU4etcwmDvUB9mCGmBzBF5xjQQLj7Pviwib41/ImbUK/lAtJVCVRWo42wX5rm8KOr7dNyPz21nk+V4jHgw2XZcUIwzgpInTcbly/DhHiZY170HI+B9Tr4HiTfureKWIjfyxk9ButYfv71IuyDih7n3poccWg1jYwdSiPL3nNB1k1yhzZD60PatQejreIA21VvZ5zsEg4X+4AUm+6BIatNno0N6EDSFn+NJ8oO5mfKc0zh3zpdXTRa/D5bf/JtM2RMK1PnI/Wmyy/Dfpubh1xrJg38ctaFAkzhspnX7NOfhwzdBlkkghZL8da9quSi9I4BqKTKkuaAFy4JJERH+1sWlUs036ttJIfmiBWJEmS19UT7sGx5sEvabCJDXhKlHTOP7r0KY7KWEuTjm0+9AHHuWTIj9Yjej1GaMIIz1Ib8tHUycNxa5nmKrbml5JyB0agLrIgr2OUtLEgEZy6MHdaF8vQOlb7iOhTOedLR7mFgZjwSQmEeSntYAFkzEE59HqkuAfCieU9dTUgRhFAT5eBpN/mpFE11TJ4HXQV6uDBx6CpHoufxsxdQkiEk6/ajCmDkezGbIfGJCOevCRJan6UaU16lEND24WKNHHNki1PEbiSgad3cMpxi0vcW0LvEGDeOMqPDBboLd5w7rKicmSzbuRFAaEMc2sJBrnLibj7yE5zkj4kzy7I+TF29TVIla8++KOXdtt332jtypMMPNLamYVBDO3Mbq6WCPjL4CVV4XCHCpzpstDs0Fy+bmDGhHDICyJd4nHzrpN87ljQSG6s1IWkKh9h2XzJ5BOCRNV9AmyqxYXqrktGNsSDOyfy29imb+ywjIVl5vy5h9sLT32sfeyRF9ovfvjn26Vzl2Il4n4dxQE2TCRUPHsZ8ltTlDEhk1FhOZqVZgrBtHfo/FbpnPQH4/CHVUCTdPZEmC042p8eXX+kPcHnc+eO2htPXW3fufbd9uLVb7c/+MbvtR+8+r127Q32mByug8tW22UJQYKnlWudJbUZy2suHx1RF/u/Cq7tMRG5LKcGMhjsfLlhfsiV8l2ycQJ2Wcj9LbwNAqzIn8l2q73OJn4sFttgt8WrH3g/mPtjtCidI37IUUgK8ktQ0vwSN8rC2SULAWvMSZqKfuOSjAo2pIhrhO8xDn29Rp7aI+5sjWWRA94YGlSop+R4sh9yax+wdhK6jQ2WZ1imclOq60NbLIVeJNmFh6bt4pXL+F9oFx/6mbZ54aPMDE8gNK/0wNIBKyVvKquQEA0K5oPplKXQNrvGUuXLbffai+3GW9/CmvfN9ubr322vvLLedg/AnYruc5OxBrsQasnSOsRV8jBlOWoTFiUxcs9O6soYy7I+JdIswUmMnKi1BNkvi6+BEuESpFjw9PPZ5vr5dZZ3L2608w9fahcfeaKde+jp9vAjn6WPPwlZfRSCzDvaTLz2+IA5zIXeFZbGrwi4V67N3mwHez+E9L3c9t/4k3bzjW+1117/EQQca+bVjbbL+D+gbdY3rrctbrT2dy+0XX5ZYB2MN+gHvB0kk+wMNjVFSFf2ssFbK4Gza6ZFxhX7nFzuXiM8TW5rUWHbVhEDOeBs89TwBpZt9xlN0TkuazmpZ6lcnUWepU+LTFDc3NmjdH7T9ZBXsoEclKUktexGOpbWtMD5QI5kYZ84vujT/ncEKZak+koDWHF7iDuAfV5xYlfbtH3NmxKIEr+6RuKRNqTTWo55Skp0+R78dYKUdSnkhtvPjD11pmQnRIF81AM31dtg+ta1a2DLQylc34fgralbzYMv9S3VDOEQC0QMAHWDiL7junpaOSVAIIhsyAybOY/Oo9ZtEwJ8gRtmX0qbd+bRl+HehJPOTw3iEp/0CzXjjOIEHHfokiZXSZJ6SP7EYr5cSMTMCoC1z9je30N/c8e7zxYDy/HGyPnGeswOeD0xYPt2bgvwkuGjs8jFzxh+Px7pOvfY0eDzXjeKklZjYNia+GtpLb0qyFYnBfIB+Fhb8PsOGie89AIbh07qeZGpIk0uz2X/iyPbqCmEcoajT28k/4x84uAWGzcB7/IrQ978TznqFxm46kjBX+ZhiR/XCIvFJSSIhODikK77EgZj6oqyyCCsH3sNAaSObqjUEnODO81vfPtH7bNPPUon9r0yTGIo/kLW3PTpSJRPTu7alwNXS9CMQXvMRJ63oEcpqAwYmIT78jzFkAxLCtdc/lGj8XF5zQm/NmUTjTWkGYp+GwUZorSDksKysHPpYvv8059on3v68+2jj3+yPbHxZLvg5qMFl3sjyramusJgsf4VOGIi2rox/qKvUlV7xj9mQ/zcZVKlDSxVjzGZX7h0qT1z6Zn2iSc/0b7xyp+1r33za+3F7zNxX7vOpLnFO614OucmRm3aFzRQUhA5JwAAyofl4nVuU/29tgnaa8LknckLNQsaKFAmJGYY9x9t8kSnZGMTTC5Ob7RnHttvz3zoMeogjgdIxLZZSEAIKLN67qApx6FjV/RxdZnYMDRyXTJz4ojkYLG+HIsg0V8BaQbpiwUMqdyMf+3wB+21H/l0H+qeOrUZm9hlg7R39j7Rtk6MUx69n0Jstnf225WPXGhXnvhYe/ixz7ZzF/8Ss+bPAuRlZjEYU9KifCduG6W/U6fcSFGeY8LeXIKBEQK5Efr8ldfb+aM32mMsgR5ef7m99eo/aa+9/I32yg9+2K6/uQupW283Uf57YHADnPdovS0Is8trWmJqfw+iI2f6gfICB80TzNyDU5vg3eDP5ASR31g/bOd8Wo28Nnm1xeVLa+2hK9vtkee+0C5f/gzE6PMwpk+QwZN0FnDx7fKyW8WP4rEN9HjfbsFcM95Q/w2W0R9iabd9iOuzN9qzV7/e9l771+3VV/+gvfzay+3VH6+1N958Mq+O2N55M4Tz6j6k0qxQj+tsqmYaxuJEO6D74DwpyYk7xYud9QQD+0XtH8KfVKaUCG1Bjuxr5OVTm8g2kSXScbJPirx02+DL4wt18jbfbsfew4p6RIGOnwJDGLhp0DQGPpvqQc7X0WmHLL9rPz8PE7pI/zygHW7yU0YbTOIuYzqWYg2lL8diyZyQseJNAPlLmuw/1kkSsmEHvoMzhrrTh00ky0WSWruG1d75hef42uvcBG7zCwLtKpvLxTAlcCR/rda1HFd4ewtfFrbSONV7lU/dUXKZp4TOF+G6/+r89kY7R56bWBEvcpOwrfU0OsB2LWKVd1TdsS70b/oBIzdt7lEbwi6b8NLzkN3+QHA7T7k3IakP0QY3b1xrV9RN57fb98H6ZcjfDcJte/VS9gQjUQifmFqpyubUMSf36Re97AFx6bQSHgcYzRZFTacSdFn5WA0DvJ1IFBolXazaZrzr00Qa8iF5In7SOpj92CN0lGOnH65W2B2+5zLcIV5JU4oiZCzxSe1g8+DrCAa/e1AycCR2KGl6nSMsKWJR47pCuwTneZ66QoNnQg9p4t6L61qFnLn+7Z/+Rfsbv/xo2+QuxBdpcoOMkqeW1JUIUYCpcwS5Y0V+oggW4d4Xhh+WA5JSH5eVED31VkE5SUrm0i4c50+gMclmaQ3L0cSNsN6Ks1Y03UExM/GwiNIuPXK5PfshrEWf+GL71EMfb09tPEXr8x4m7iaHbvATyXs3IkcFU4998PeO+jwq7RzU5JHpFZY7n20//9TPt6++9NX2B3/+5fbd732buh+yLEjdWBY5fAsyBMlxrUPr54xPVoj5LT6fZNOg4Mv+fJRZMuUkwfTKXaOf47bDkqPLSFtbB1g0jtqTzz7V/vrf+k2WGz9lo4P/BcC23RlXzpZx1bdUhrnBcHQkjvGWnWF8nDntL47RjFP89kuWJiVY7fhq+/EP/n77g9/9MsTJCcRp7yYpuYaCndIZjDY53m3nzk3aI49/qD3y1GfbQ499sU0e+iW0/UcoA6IyuUF0+yoWFDdkORwygOxMChyhuY4+CKkgQpzyMalMLtGHHmmTc59q65dmWFL/crvysW+0j7z2lfbKi/+ife8vvtbefPM6j/+zJIsJaP8cHywVh0zCM0ipT4jlNQDmOVS1CJI3IMhPte3XW5g/NiBW59ZZwKWvrk1+3B5+FGvi4x9tT37oF9uFR7/Y2uVfITIvb1Uu2k8L5pob+RkAwSXWmkEfiHE6MIVatym4akGSLEkUpo+ETBxOPszbUD7bNh/+9fb0099qT1/7MiTwn7Xvf+dfth+8dB3L0gWa53y7fHHWduVhlLXLcq0vwt296din21ExMXYDMr2ONnHStW/Zz+xhFKnfMNJZz08/+on2zFPPIAd6CJ26zmStuqmlNdvCcQ1hpsFqNw6ZvI2ztk6qsbBYZVJm/xN9ZQ/ioxRT8nvz9R+3P/3uv6Gb0qcI2wH8x0j72Y9/sl144hIPqNxgLE2hbywzsgfVLRa2V35Wh8rOmOhr6nc+wMsnB8o8kyOym903GJTenB8yzvfQTxfomte/91L70r/851gnj9qbyKYFSez87CsPaa1fCKl+CxzKVQYFkrhJ7OYEiU7mstqWA3xvtz0GBlOeKnji8SfbL/zyF7DoQHxJLAl0cNhO2atqfm/rrD9tl7GbYRVRprEIiROiDde28N80/53ttgYx27x6s/2rr36l/f4Pv0dfukE7kR5idZD2Oyl0nF9OQh4Mn5rlwXCMuOoyHCFHWTqj/TMQJQf8yZ79t5VyP6ACwdm49Vg/o4PWlnwU+WHiNA/Oy1qTy3O/jUp70+NIZ8Q7OSKfIVbyPImX4V85Rw7JgXIRg3M/WYKwog7qdHyjj9eJT0c+ZuOvYW5Un5me4bHm3ToTX37wF7JkPb/zCpuIb3LDiYl2SjxN4WYleVwjrigWzpaR2uu5Kw79wQ2yWKOoaBqJUmrvqKKNvC4ZVDFIBFVkvgiy9htRH7jC1NUUqpq9R7z/ZLbBI78Xz6GgP91++YW/1D7/6KfbR3aeQSleiNLxceDMvhCle+GoUjA9ZFI/QjVmYmHyc7LZPNhuT+483f7KU4+0n3ns8+1L3/zt9tU//1p76Uc/RHmyvHaBOu9KCFgipT9ww0rrO9HTSm52AJ8Jd/5yAZWhk5hmcZ+cylubWUrZYclxE6Xt0psvSZ2ee5b1tM+z58QlFbd0kpiy8qJVZQ3RKaSy/4s8iYAMHPkffzw5J0azz9tP42jNKFLLY4LDbO+dupaNg1epL/tsXMbSaUFE/PRJ+4OP7l++/Eh76oVfbpee+g+4VcVitPExIvBk38E16rgLKabxHQcQimhtAbFT6ASBfMiSPjTEM64hBqIjIovLfpAeJ4SD2SUIxS+3zWc/355+7Ffaw8/9s/aDr//T9qPvfb39+LUfQcguYkmSmFEvJmf39shLh7nCklLPbGgXH/srxGqHzo0tiqchr7Wd89P21DOfbI8/+++3y0/9CvX6TAgNJiwyupFq+LuEU8nSER3bNQ0wqxffsqlfbKPHHDBcc6wIHOzYH2cNmWLMT1nCmoLRDPJ0xNLSZP2TtPXH26WH/3K79MS/aI//4J+3F7/55fbSD3/Uru2e4zo9Zsf2ryfa3MdmB9OCrsUsy965CVUfcE7Z6V+ErXPdfpz3HkFKPvJfPdc++muf8AFB2oyP4mXGJ0tVmP3V/K2anzs6M1DXUXK8fpEUduNk7T0iQ6n96CsvtRf/x6813gWMtY+JG1xeoc89CbF95i9jofvQpfYW/WqHpaBt1pB94kxrpXsXfYjD14EUnupNMqYN7UbBmcPbO9LSp9S1vnNPwRjS7TrWrItU+tKffat9dLLb/t3/93tZ1lY+5y2LCdmkfi7JaTlyRNhz/SPTyBRdyJktJKTa+baYhzyfspR4ASvNhV1AZmn503/1r7Un/uv/orVLWGW13ghygCPhSWfl5PZOOqUbx69HdUolJ79cRHZ+03MHfeLrHbYhaNf+4W+1b37lX7Ufs+yrjoA2MWbU7OBLvzSl8iSHM8pShd0f3/dm1nhHdaf7ONmnIR069Eb6ZXQzinBkqHYxW1WyZCPXsDatA4Bj+gH++h/SOUAyLXNOBBWrSpGskq8D4AzO+H7u5KoDV1y7YTm7EDKnhoZxbr0cTpZvh+df5ZC9VCPxyZHaWj/lluQwATh4sw9LjTJoFe/C9hlqr7IP6bkPUwSPsGgOVXcFHkutYlI8p3fVqSjduKqM7hXIr0pztFDLzRuvVc5oB3Ffw1wrQXLVgVesQI4I04LkRljP2Utz+cpD7XPP/Vz7wgtfbB899zwWGvY4oSTzHpV0EOIyUMn+HjnbEEJI6fZd5YjhmvY5x2sEoC3hb0+uPdX+40/+J+1jj36q/c6f/ev2Zy/+KYqGn8IRH7Wlt75uLlKx2wm4M7XraHFyy4UD2acTs0eB+EDHtX02/7Lcg9a/CGfYwALTjpyYedcTFpigYp8h9UTmqQP30R1rMuG0+ms8absEjpES3zzKzZPvX6P9SIMSRVj2Sey2y1tME4Sx2MQ+EScWFejrbRsT/ZWnPtce+dB/2DYe++ukeY5JmtnWPSXtKvlYURrcTUCSAwvJ5KY47DHJGCJOBrdxtQwgk50Kp/z5uSHTgUVuGLi2sc04IcuDA6yQm59v5594vn38/M+2xx/7x+1bX/8n7Q2WqM5xbR88DxiDtVmbYiALjlP/vHeSDDLvxvqzgRVok0lzmz766IeeaVc+/Ln2xAu/wR33F4DhUaxQuyw9XgNxll7oA9ppeB9EtcswFiREEwjPhN4cS5FxrI/1lCylnjspn0DO/XDXA4FbO3iIbIkzZXO6fWTjcYjSf9oeefjn28WHv9Qe+97vtG98/SvttR+zd8TlEGTfw5whVHWTBB74KYnsbD8+jknKTD2xloxk3L2OWpBuvnpVkIOlr8+IbubUMLtu2ssj+aqK7uTM34ThgfPIJnYsIZlwEGX3TdoeArvlk6GQfzdF79Fnvv5Hf9wuf/ix9tzlX2oXLvuaDpaPtCLjrMMwCYC7fYRz/9X7HD3PTUJi3/7Ltpf9SRzdA+VSm+bdbcj5TZZWd154vv38b/xGu/n177XvvvU6/cNbG0eC1BZrMsljQfKccVsbnW1jhfDb+tNHHcucuwvS5Umte+r6dUiwZX76C19oL/ztv9Hao5d4ipZVAZZfWVEnA/Rr2J653ck5guiD5KsbSZLbIUqekimi8csOqQdPerav/kn7rb//f7Xvff977SrEiV8np++zr4/6O2cFoyFP881cunBu2P3u7ilBOsNYmeMXsG2ntBVf8ZtD8e6xcT0fIg0NXnGGW4O6PMQpMsR185KM0OFCi6JYCaTz5xKXz+Iqrt+n3S0hBIz9hO5O5IGMDclyN6NiMmEmMDpjNAuyojUiXqo1+pET0pHhR8bpiIPk3oeRODVOSZi/r11HWXDnd8QEZbbmZ1FlmTNjz87ojG78CIW4p5JV29SAUyGIL3JCYGIJ85zJBLMCyVlO4toUQqT83uGyDsgRxQI5yJNq7lPBijxz2YhJ9dlHn2tf/PgX2y985GfblckV8mA5zZwjvvdExHeyCUESn3vhbCNJmn1JSkJb04buFbvG5uHx6S1oDC/b22q//MgvtMf/0pX2+KUr7Xe+/jvtRywjbLiXCAz2UDpQS5Q8KEs+vBsWG+z07kNyQ+wGSnGD/FWsPinoEmUeI2fC3tw+FyvSBLJxRD8I2aYN7GMzNoULG2LiqhUzGSWA87oQjAtFIp5q7P+fvTf9t/Oq7jzXPefcWdLVYEkeJNvyJGNswGCDITgMCUMISUh1Uhk6NXzqU2/6Vff7/i/6U6+6Pt1VTSWhiiSQQIiBYkgwYAZjjMGzjW3Jsubxzme6/f2u/TxXV7JsXdtH0pXtfe9znmk/e1x77d9ee+2188NlfzG8OTs5MVazN03Ox2ICkww9pt2GkCIKOEYAasPrroipKz8Um65xBPwBvrfWWALfotOF4SftUq8ZuvlONO8dh/85Sq3rVtriG6ROmd6kSRNZtYlaEpwAg+fo4iA/ASjQOQydIj5A2YYPxdQtV8bNm6+J5x/7uzi5Zw/pV2OE+nH5O8H3SY9GGKXLFlIr42owd2ynMNpcRAeuH9uuuTuuvfEPorntIxTA9uys+pSD0pdoTHLvtJDZIG3W5RCEndnwKWkz7WnwVRbNdR5VeWSjte34Xak/EpPlnfOApgn/wq8invDdrhi5Zlvs3HIr9sDG4qnHfhRHDh1nytMJHGxDEUUupefTXORBRsGw5Bd6NYvQlCu+0oSBYIlDmVxuDaTCm0I7DoJDaZfoAWulqgoPtbPPcspM8/48Lge38sA6334PCNLwqsDOfLn4ICMxHdCB7zuAzunOXPzqoZ/Exh1TsfHO3XHKNkFZ2B4cYDg4U5JUpvGJIVEcn1sjJZnnSZ2v8egcN/zGsrGWZGWMNKg2CmwUY5kfuDtu+MN9Mfv5v0SeGHGCMjVf49CnStzz8jO+F9A4FBAkmQTT4WBSKAo7zIGP0qNR6lvdq1EKdgK7aVs2XRnv+z3A93U7APltFqAAo0hLoR3CkT4khfM5/PUapNdPKwQrn9KYroNY6aHYRjLP8Gl4dZw4Fj//m7+NJx56KOZpNl0WmTQBiO4i0KKOaBrkx3zwiXVneXlK58PLw11UgFR3lGcUTZbgGU/OeZNthTc2t4IdLGSuOXSlK+YtlZBvZBxnvSsf4tMWzzs7AJmM9VYnw2+tzwp2JUFL9Ge7AkJe9jRDPfvpy+6JoMRqPCX9XgljZDsC/6JDUUYmpjQ7K96aB3WKBBqmUV5U9DC8EuT5LaFXjd4CEXCVMqPzIeuCE/gXzJ1RKp9JzLkkE6ZXRh2WyGpdlf6MoHznb/Jt8mlZGp9/Sq9ypQkM3GWxjj5Z74HnMlUwTBgWdW4oi47RUGXw0YbuMv5U2RhDZM5Uy2033BofvfljcfuGO2AcY+gZoZsg04Px5Aooy0pH8laj91A8X4jfrBBqqtRwHYP1JGjSWY/WsPU/TB1czxTh+B2/FaMbJuP+X3w/juzbn9KJ8UnKaw4gQ30mSXIWLOW0ASJvBRBSqqArlTRp3Sq52494n/gg45JmpCHTBpPnJF8tbvnizHsrMl1J89mX5qK4+qxuDXBOAstNoV0Vxionet0l9+GjJ904ATi6/jMsRoPJj93J56OwXyRPBDGE2YREIyiX14OIioh5aRx1PMZap8n8eGtPtdKRU5+fkQdCRcqSEhniQkuMgkPqglXzZvPGmLxqQ+yikezp/lUcPnSIsqVdMn3mgge35hhHT8w2nFuR0PG6kHKJadR1G0YBRh+PK3Z+lqnMOyC+zQmInbpSVTvXzpO+0mZNY5V2O53qcjnlNunlfPqy8KFkbbWnzBPvar/o2aSzPeYl5YQkMR1mKGLiHXHlLX9BHifi6V/+MyBpmrbK0ETFatLQ08yFc9iARYQxyf80XprhE5edtsCrwVSgIEksljXBj+lypVuCMukt81OlzQrQY3ouyXnFX7zmp/r1u/y2+p7yh6gzPRphHebeqWA741wRKxSC5o/u3ReP/+BH8cHrro7muq0xrlVZEtg1UwCYsiWVPNQ4qmRV4OBl9fCKCfUFZVDnScJlJWqugrPsp6bimt//dLR//lA88uMfx6Z1E3EMvZ2yythpKP5It5xK8wICNp3llgsLbN+MMEaR8rtYQD1SpcQCpBF44Ps+86mI978np4CHXfWIbQrtqiXns/6z/DLIV/3J5BOu+ciiTt/ekBbpy1VpAKDcgFvGM70Q+7/67Xjk+z+IOSTUCpMQHKY5jQXF2VmOGWoVr/2AXE5X8nj67LOVfr1fO+6iAqQLlW0ZvUVcit5aBQhwyg7AX2o9+Ud68Kccp2nI7/Pl8tm01s8KWPHJClcR84onXCZpnvnIlJ2j/k8/gnBK1HxnOkgp90756Uy7lxkdFJxbqFQtUpIzZ7lEPb/mO6OrMlZAnOHA3G3IBLKEqHkUqYJG5Vw6mi5PNQE7gq/d6av6yarPJgRXGka5dpTadnVDjt442ynoj3TY3RjzkDpH8LIWiohawM5OfRQmiD5xl1a4acMUukZ3xr27PxjXjl0HO4SRw5GNIeu7zlPGfpn9UK+K3xWqXxU74rev+2Qqc3976JuxFxtKmiWYACV25lFwhsmb55z2UMpGpy0zKwCJe6q93iRVxeHagrOgo8BqPq7q6IKUUsXMs5dGEtIHvbUQz48yFdRm1dXYpquRGn06WlcCjkZugalCx80Tmea03OhUkuAqqUI2JYVkKx5YctW5oxA4iEvxB+XfQMG636Mz6F4bE1f9SVwvwHziq3Hy8HN0RNAaYKrZnWaFGp2tmAbCbAJAkAnE+MatseXGD8cVO/5tyRP1tUTdGEfpBgWjxqmzpi6BW5pCD+qe2Lp7EsX99fEEIGnxhQMpfdACfR89sS6rKMdGNmElng4XXuJ2LEpq1A9UlpfSSpiS0qQyGLkE+cgooQg6bCVVNvsE1tBJB2mo0pRnH30yNn3n+3Hr738CnDoOnwCipg4kjQPdPSotnd/rZJsVay0PzvMr5XikMwzT4I9HTgdTx1s2xa5/+6/jxT37o3/0JPxsKI4Crpsox08BMHOrIrxJDZZv9kR5pmwJXSmlq9NUh0igBFhqwUhv/417Y+J/+VQsTY1jmsL30BXRZnqWE1WSwu+rOvMsrvF7y8JysCz7GMtqEF8WLq/TZAyDhPlv3h8P/H9/Ey/RlqfHGRzMQeeAohMkI+tC4Fz3Y/CYC8lmXjVjA3h5eQMkWkWCAFtHfRQS41dUUY6CzKk07mVVNXBIsayFmN/iNy8FV4Tndf6WC4nmDFf5WfmsMMGVT7yG5M+ikDqo03Rc4j6dDtNY0lFWdJF2kYINBYaQU0bEn3pT+HNEkqmVMPO6xGtzLYcx1td0sihnLjFn3FDBFcL2rfnLg+skcs51Orl8zU64tQyOyKh51crvQpupBZfrM7/TUMeEjjQ7JpmtrdIpNpZGD9FiFReresJuj3Q0vbgCJd4P3nZPfOymD8eOoatS/Ot+TMbTAgWY3jeS5tecyQF/YNpzoosicVn1ptgYH9rxoRhF6fTbDzNie/yXTFOhe8IoPUlWauYjNxxV0VkG6wNpRg6nZMnl5i0UHlyVJbO1XqyNpMmaqI140C5FlaaHXqiPpBLJxgi2l4aY/hgZ28L0xyeiddWfUt/o5VCHfSRgKqCmonISoHShJIhnTpllzVaSkEGllXTlNFaKPGwLSFgacwiVZtFlYfUTNonGrvzzuJ5R/J7e/4hjWEYfQ9qikERbPHbO0mg35lgZti2uuvF3YmznH/PyuhR+qT/WwNiXe+pB/WTB9JsfwBg1fSmchgAVCA0Ps0rw5m7s6szHiVP/GCeOHKUDZJp6ZCrm0UlSutZFSmEqc99A6kROQdNEiiH4ppPnmSDpQpDPasomKdkGAG80DZRstoGekmlofwjdrl/887+wgGNrTH7qgxjLBOyR/zFWv/aQijhslK54JAvKYzXx1n7qfJsOnWfLK9uZki6mm5Id3/2euPuP/lU88J8/j+YZhj6JUFMnw/BDKXxOto537T6Vdk0YPG/Bm+2gtWlkGtd5B7DactPuuPZf/2HE9ikoD001I7aPwZMt3DwlM/ecgwwenc9Vn5kn4zIj2c84oLK8aJ/DLkF+4Ofx47//+9jD/ntzGzATMgP/BWnOwK8XGAwMQ+LKsOQzp/u9+tr0nC8ha+v95Q2Q6rK03KUsXIIbqZJ7r1OvKAmvPFsGHtRUGl/Mr/SXgfBdaTYZVhKYdWrTW407d+1XSXtZAPoufZRXVRqIK1cPVWk3Dxp6BDXkIdFqzNBnQ4iNBTmeM90yCvKquLbko85TVQ6ELWNbhzRWMlah13NRSvS6pCfTxO25c5PezvuzjAkJpwZKiwy5F2BMjqKbKJA2aHQqHBuf+C+nyOinmjS0hooM6maMs3pj3TC8YFv8xq33xId2/QbAYUsOAPk48+D35JCcAKpeqbDPm+JL70G9JOtNhVPLXvA4zrTkuzbfGb3bkfqhKvPCoafLdI8dU9IIStp2BtY7ADktAVuekICduOXsIFCDkD6jNpKXGoF1VIrLujfGQTomNuG0uUoSqQu6yyg7U/fj22L9lZ+K5laAxPA1JMI6JK0aeswVXMq3nJojLdJx0qHAQjfoNEqcTm0INO2qKEf0jZyiGR2HLvtMP3W3YKvx07F18VT0n/8ys4UoWedAhTKmzPsAvqF1G1h997uAIzqt4RsJB4Avu1EG4HSO05gWdgI94+OdRX4JHFREu2MqrT/BIofbYtsNvxPvpl0++rN/iuOH55GcIWmBVtrY8xnFLlcPNNilglyhlfpG5CuNPyJVatFoXXZ+KR2pKDRCMkyJfKDLqo4ZgN96eF1/djoe+ea34z037mDa+mbMbbgPIjwP3pImI6QvWA2f5ZFtYrUZ8ls/42eZ30mwTvupJ6UOHWWkEdKxz3wsrn/2qdj7Lz+IzUjmFmy7ELlUZyD2OoIrQahhCjFyqx0Cdip+dNwptoj12FG7449/J+K262kuGBplE0H1fprsGKC5A7eGoUllGCZl1c48VMcypkKK32V1mrpoWl2PfYfj5//lC/H8U48zfchiGGy3CeHE/9p2GofMZ6GVLgko25kUYFSXDXckx9xdPg7qusTuPJV4xmvLti7fPPMD8UhUklTpMKQOiCwbbnkvt9I+UA2efJdkKMgwSPz7TeFqPqkJ1Wd6sOmtwklhL3NVGCuer2SORlvSb4oEdUZHc6nSk2MC01uBngQ+6gvYieZRQBE9YX6XYIpG2edw+iVJMguRH/7XYxeEnTcIj1EW74tUwWkd2nWmhYv0vyLBr3bpN/hXL6Y0BG8Mg47O0YeB+Y5HSO7ZDoHloEgTlHhoPVupUS65tdqcKoIiWyh9av5Hc7pDdFSbkRy9/9b3x93X3x3bAEc9GqvbJuRUEXoutdO6r8q0Trldji71ECAAq16bR6k7RQc1gWb6u7e9K3rva8c//ORYnOiwVYn0ro4PGdVAIYXKiJ7cU9Dqt2tcM99RTvbnrihLaWTWCNIP6qcmV6tr4I6+oY+4QfBhK7NWlgBB41PvQWf5M9TtbSwiOk5nTTrtfVMkT+Lp1Ex32YYG3SAJJ41B1r3YAFOqEjSgpRhmLcBdI5QauXM6AbN3lC30OX4DOkkfj80Lj8fMCw9ip1FlYcqfMlyHNHb9zg/G2DXog7R2ER7fQdsNl+w7TYhOCnvKcIagOXIBhvpOmcsB5mW1QVmexC3N9LEi3gAkXXlTJ47vfzrmTz2O0vZ86oqJiLACkTOCOdspYuXQOjK422ri7OCNiwxztQkYnD/p1mQpecxOmbM83m1Yxl2Q0J5OA5YH970Yj/79fXEXdtJGdm4B/PHNGTydQMiD0jWd4Z7XnZVnv5F/U7CUIQM/wk8DvTJFl9yyqm7XH3w6Dj3+eEwcOBwn4FEdebYDhGoxQj9pKgMiHzznUxc0uABHwORq3F0fxizFvR+IDnQ3DJhnxIlu5nDyVZo4+eBHBpLpOyuRr5Qpv/MzvPtFn0K1KLRn1ERq1HA68vhMHPzqt+LZxx7NuLATwth1OE6sG2MbH/Q/YUGw6jiOEDa3G+Kepl2SsTJey8P0Lb/xeu26iwqQstM/T1lYQTr95jWV5TkVU5MEZfQ2BBow93YD2olJ4GBPkH65tSEDIFzZYOeh/wIuPNOoPXAJTvBrpWX6ILAEUhmOVGMcL6/Ec+elhJkBv8qPoUkjJa/ZrKo4TAPvjC/zbd6UDhEuaRQ4mY/yzNUnTj1omZiygJBbjlDJbw9/ovrsmLhvMKJSY8V54duvn4op2ivqfjELBa8bb2AkTskLDTt7I+Mvx6tkYfmV0KfuaA1V0wIpMSIQrVX7nu6Y+Idi78keEuIFLAojCmHlWt8WTY+uFKnBMKUxjK0bQRIoqcHSjk5jNrawPciHb/1w3HP9B2MzsiOtz/bxA7TKVKY5++XUKA+7PMGRtSMta6x/yU6VokHOBthxVUw7plhC+75t744jt52Ib5/6GotyFa7zB124wYmjeVdbtagMKAVSp+xhuGV/OoAAU5R9ytn1g3bsPaV40jx/6X9FGQ7qsgA+6ok0aZ+nP3k9U1a/BSd9V452lRzlUmLSCUGUaGGyOksjrdvgp7jVta3a96rOaYLAeODmogBpyu1JTBePGUqUYNTBGd8VG678RHSPPpkdoLxnkdH65BW7Y3LHvwHw3cK3slN1wQyLMClj23MgrUmHJCmzk/ktjy76LwnIPSlpJpkW8zh2c+zc9bE4ePAl9Hyx/I3ys3u7qT/VhXKFdAAAQABJREFUYc1/2h+iTbpPYMOp7JzSlWqkvUvrZN3qRLncv0c/IIWr0Oz0mjXoljcdPB37yQNxePeVsfWPPkOdYAohJS3QJYVgHRWgXjhyqbTz5KsU3lme+N5Bi4nCWW66FuoMiQvuuCN2f+73Ys9//UJMLZxiWkpqgWbmkGphr6ze1UDQJw21OBYBW2NIcpqAkJtuuyO2/imS181bUik6aYwVZNKsk7bZZIizDCpIyznTqMcznbm2vxiB7Rh3jleoW2u4rOrpxNz934nHvvY3cbI9G210CRcBbWAkAJqrMVlqQzbmqYcR0KfvcmFQvrE/NT56AvqGHJhRGP6ZwHL2/dp0tujLxNkILGxYegKcwtoFDykRkiit3XxHzXHWgGJOowkqEij53Gv8cnZqSaBTprTwnxVGcRiMDNt35eZlZXRugCQlJDW8zP/KB8VHhpze63SkH+LMh8v5FCDxL/ir8jbkiETg5PQazKCAQIyEmUf8aeFWiZPgAXZNx4hlW65bgJJbb7mWVWA0rUXewMB7jkIIf1l6xI1kW9K4MtXnvq5SmwzgXD7sC9qarCdNv37u16SPuGAirqpKYKQ0SYAEM87kI95ngU32NevHN8fdSI4+cP1dyI2mWLGi/odwi5FNAqE69nPFfPk9q0udIsIJLF3nApt3joy79egkfeT6D8eh4y/GY2xRsjCtjSCqD1ppsexX8le8L91KB5QkUjkYkUyzOmRLHrpk2nitz+XpgH6V00ODArbAVlEP5eAtV2ILaN37iGA9cZ6iEyAlJbMDivQCBZPAZ1s0pjC6uPP+mNv7BLMnx6O17iqmC/8teboJQRFtUYNdTE2taUeDVGoBQijJVEzU34jl6ffHdTc8FfOzDwEWMJaxAL+A7pyKcg7Uvdm0U6ZUw6mfWnoEJCcc/FwyJ78iP9kLy7nk42SJH5uBq2VNXhv6f+gb342PXLsjxu69KxbR62vReNzDTFcWvxBW8Z7PBvUDyyJNBIwuz8bf+1TMPft8HP3uD2JoYSH3VZxHOX4cMKThVqVY5sI91hbRH9zA4osJpqjbm6Zi67//XMStN2OSA/1RMzcgZ0hOgddt0TLoMc3cpQ2PMh0YP38sfvalf2LvyINMvzrYFhI5Jag+G3zKg89ToT/fce09R+Y835dyzkd10lc8yudr8EfqvkycpcqRhCFQolEIdpQe0Rlkh+Az9HFy6onrlLhkDwJQcuSD/9qfDcneJYEOYSbI4hsru4Afn0mqeDsXMdaVvLL0ZDyrccZX+TN87xL4Zf58YDjmlXPmER/mkXvz7RLVBEcqWZuHPFQwJRzFtoAm9VgUdTbYyr3NaGmIUcyV25bi5mudQlD+woaVMA13hy90aoqIh5uSurzg2WtzhiWvyn6RsuwQvvPxXcTIz+55HkbEO0YYDPGwz+Noi/fqIyk5wlaP6lTtBiuCUCq+69a74sM3fzglR4qTTaGNrgAJm2h9zcWbwikZM1/kkIJ0CX9Oszk6RqETPMt+blvjk+/7NDu6z8RT879MIOm2Cznesy5zWhOwiTTR75229FhSBp4DCEPnj7rReSr0PtgCzPYpEWTb4cyUWqz/IMNpdCesfjMjyM9aHGzcAw/NaVwVq0dviJFtH46Fw4fZfqQTm666i9H8b/OOfNA8NQKZS7wHnoBBB2i9WP+e5TUoJU5igf7Gj8a+F56PzsxBVrihf8RcraBIW1vui6ZFcWnFlWvD8KWy75/frw0nX5DkEvOY1iRxHuDmof0eiui//Nu/j7uv3Bijd92evC/pk0aQkqRkTnguH+Z3b/jHNNjG4MOLi2wavG1zXP0nn4vjTz4fjWefTdta7l7cQISTrd24OYY5nKqdoJyX4Pd3fPYz0frIPdFla48mvHGgaTSTlEHdB5mEPvxiFF4SLx2Mh//qi3H8mV8zcMUMB9NttIYCjHitcFXAlM+SWwGs+N57pUiFX2cRlGv883r5Om+4X6vu8gFIMtpszBVIqBu30iAOAURKlgQG9LIqUp6eYuOa0V1ukqk/uhPBUkqYbD+GaxjE4dyrFVjikiF4r6cz3bk7lZf7O/OrcpdRGnC6cva3lo4JUDJOHib4STBnWkgzh+vgVcwuB/ZVeabxv0w875aaGP0COLq1xZi7PjM6YaY4Pvbuq2KbCtqIze1QFemaQZkKF/5wIubsZL2vnuWL1/bTIwyXiPboSIZJw8GD++LkzDSNXj0j8lIBo6YagAIklLLzACSJeW/ccX18+Ka7YlfzanRtqHOqyBGNtVFYsiPF15++15abi+Gb/MM21AvL2oEIFf5YjtoqSmvSjtyh1ev5u+eme2J6+ni8dOwFphyhC/S29JoK99RrE+MkSUeCIg/CLaVXwFHqwuBPMjTGvBhgNlV2ds+0AtiZEtigJemrSaD5nKW5OSlATZpo41/LTkCPgnkfZNcY+Xi0Nj2MqtEOFM0/A2hiYOI0AxbelfchM1vLOSFtpaz7gNOU4DFQykFXn2mnDe+Ma3e+M+ZZjo6SHwa+aWOp0GZ7LXQkj4WbJhBUedhr3lwyl9Iw6ShpqZzT4CVPpP/ihqA4pDKAvQNPPhH77vtWXLNlSzSvwYCnbBMRT0qS4JPlk0HSI60L0yqqRQwPYyZiAen3LTfGjX/62XgO4NHbty9Xq3Xpl1zNKfVk/0S5TzGV2cVcwaZ77orxz/0O7dw2w0pQ+7yEICV3A/nNouInOwP0nZREY0j0wJf/KV546GEGrT0Uy111B+iheBIQ4T2lRrThvOe597V+o6VYhnw5JMtk+szjcnGW9NpyFU1nIVbXSbVecwhM8rGghusCKgo4SikLhFaAD6RmTyt4ADR5XVZ9OdoDRCFpSYM7oHMlLrkSLCUyXvPM69zPAgDC+ewjv/G7s49l4FIDmHOcUwJEOvCbWsmEoVZyI58z9+85wzUdpJv0lrR6Nh/1YdglX4InQVEpAwHicGzasjXm2dSwgeLo7h1XxIfeeXXOVSs5EjT1mC+2MfqnK4TrSILGkWAkH7/6Dx8V+x319yWkHp2J1q8zaJjri+yYruFAxxSuurKJuXLIZdKuGspD4MSxecvmuPMd78Jg4tUxjH6U6XOkwtob0susPYCJQiKspIRXT98q3prvlccqPhm4F3PCGD3Lx1qhlLKOxgQSSjDIew8mtYjC8gii+Hdf/a7Yff1uls6Ps4KF6VX0FOzMnBJxRiibB+Uuv8vDFNteOHkUx1UlSaqfDO4MTcM4ZZBLzfVIKG6hPTF3iv5ZQ6VldefM5wWLf3A5cYoyTRqz11kM3R4jUzfG2BY20R15L6CdKTWApvTe0iLnmnfWvu2QtpmAgGuU1RnGcL8lrr56d2xYvymlyxocNeuJkTgrMVKanliJuhOs17xjrWS7pnX7hYTenmkDrYlx2g5SEQYSj/3z9+IEy9U1GOlKSw0dZqOw5z/dOAaTJeIeon3Oz6EzSDNuwtsX2SZk7BP3xsZbd+Wq4knGiJblCPOXk4AQdsqDd6L8D3qb2HJFXPvZT0TcfE3MzS1Ga4otajR2OUCXFCEDIt7aDSkGeuSp+NHffYWBGssVmO6bZ6PgwpsEQgKlAnxsxzZjw/GZ1OV16qJWzw03fRsFx3I9+WINu0veoi2oLFoIObk6TS5HwXlPh0nH75x3doZ4TvQseAAApIIbmHtJi9D5jOyArjUpr0SloSRF8CFosqVzLkCpgKZkEsRTT6/ZgaQUijQIHLy3odFTvbwKM91nPc7MnOvFmf4MkkA5To++SgzVva+yhzM95bqswqvST54k1AR8SMak5cbIumRc2Skx1dLHhsmsBu/6s/GOK0fiLz52XdxA/+SUl+Jy+aMKl3UHJY8ozghfC1lQUnCittM4Ahe40ZLKqJR3hzl216bPs6LnF/uYZqODH0W/Ydj16vp3+kfpkYAJS9k99sYaHuvEb173G2y58V4aGkqKGCJzHyXGX5QWiYYSuor5eGtKLcPX7wxByioh5bQT3LKUNYBM6YZFRSVIgcUvZ59TP8IWV6pkN0GZyhrKWKqEqbXkZB6lws+TTP1SX7UvAKora1WqTrDM87pWWmwLMIpO1l033xvP7N8T+449GWPqdTHib3YQEdLh9cfQTzLNhKEkr5QzdeBGrQBmSTV11mhf+jHvnLjO33KW671eJxDCRAEZICy28SAbGZE6b5kTVjP6pIrOt2vXkXgqo4Fy3FL/WPSn/iPAgYQjFWDXG2jX5kQ5DrbfujDFURV4k21eBKmCpFRQ7nRY3TXCFCIAadvNMb//qQIcspLIKu25KQg3n2jxyh+181ov7LgwiT1fqPLAMiiUeiUxMY59hPSc+ke0VblGl+2VlFrOwH82oBT9EnuIbdx5RQx/6D10/mhSsaKv3WDwgY5NLs8/X9Sv4b17Go4ThxvbOtAbZmk+yznjqj/9s5jbfzTGHn8GnjybZrIc5ChJ2oQEr40l7pv+HUrZ77s95llSv45pz2BqnQ7uNcR+fq9yt6bTxID8Hos5XBXX//bP48H/6z+n3aajlFkuBGJ/RNd2CpN4gvkCN+rxzD3l3kkJk5yZoCx/3lkn9ueCVLmJLCU5jfWU9154tTZdzXPXZOpSWrRcdlwIdOiYylSTXQnXPCsHWamkLUsJiiAm96ZRGmMnAFE57VZ0kfCbzwwD8jBMQYOghDDLuTzPgiHqxD55U37OOcWWnpYTvML3q10W/yV8rjMNnCAaCaqsiCBNpE9mICtOiRIfeC/IERC2sceyxDx3jMDEse7b4hhePBZ33jwef/TxXbHb2Y1FpgIyjFdLz2t/Jy5KyifFSp8EbxoW67ikf3wifr3vSLx05CCZ4n2lZD1EQ3RlVY9pmNYYIIPDlW03XXVt3LX7vagjT9G3duh7hpkRBHAxx2Z5FIZsszNSgszf1/dTlMVhDIRsqnN0zEjJVWHGkJIxpHIdRmw5miYyAZBK4nbyLl5vJVBfYp80pD/kzVSViQfTmwXDE0MbnHO8L0i7ZuTquPOWO+PkwweY/sFmjysCBW/poHdoJFeTmG7oSSZVi7ytrxzhWWf8ySTfducpAcpQPqHy8mVbWslooMs0nSA/8Rp6HkF/aglw3d0RW7bcEEfHf4WwD6vhvJb2Cx3ZArN74yvLQqq59CVhqmx1hd6h8aTtTGpF3bRupbDwHwdj0wy4DuzbF52//nK8+4rNMXH7DTE/7i71k+zlzP6IZnqALgfbpE/L7UrzKUx2BWAy9vbdcQP6SI/+p/8cG4+egFeOxeyp6di6cXMcAhBd/TF09u69G+kr+mDzLjGDzyBlcqqw3jNtIMm0AMlztzsHbdOHPPpcPPGFr8T08eNxktWA80rZKMk25zYDQq/rQzORqXMEGaDamuBICpGnyIkKxXAWGV16UnnNxWULWXMuwYfMiMNSTbAAoEkDbXbwTiVVU2ZOJdXTT3b+SwCGJRiYACivEyxxL+r2W/3rT4CE9KXEQYM4AyAZLx2cabCyMx1nFdO5nr0GCiifF4qRiGrqKQBQAivP+gkI8VeDOACShNhybxwlYjI4GNXY5BRLdHnHSHe02Y4tY3vjtz+4Iz7+vh1F7wge2EaqRD9uzjL0QfzIOIUM9r5e9bi3Ybh7tUtH57BI/NivD8bRGRgAU2lYKaEeAU7DgB4kSG7Z0BhldIfNnE0Y3Hs/24hsY9dzk9hiKimn+wjQqbdsZFnGpV5ON7/XlxPLT2Ak87REXNXiCNn93NxexlV+XVYlpbI0hQ57S7prsd2HY2j/+gxZlaCNIbHU7lPZ9sXQYBGUxYVwXZisu2Y7Zr5j5x3x1Au/jP0LzxKVIgxBEjXMiLDPEF9FT+2aCGLNpYdUg4e8tiuwXM9Jzvp721UlQF0mk1eSRAl6fVm6wnOSb5D+AnfkPhjAZFASPaycb7whJjaMsxCAIQCdMav+oWUPfqCl5EVcKzVLO0iXsBxyVozEyXNKp6yhQq6q6nHVnZeZbB7mHmdjSIvmF+LYLx6N/V/6Wlx1zb+LxlVTGJUEHA24IRh3AZdKaShIdXuEF7TPBVaojd17b+x4/NlY/OI/RZt92jaNrUe3sB0b73hXTH3u0xhknGCpfzcm1T8i/fKbnBkllEE56zYNg27EZgDGIH/9l1+Mww8+DDBqxwIFqIVvTSEtImFahKepi7QAr1skPW4O3uF75NIFKPGsBk+1BEmpmbkudTSoVF+ccEAMa89Jo1aargAYLyAuOoVa8iPASWkQnVotQcrpNEEPSsGKU3OKTR0OQFNOU+Q3giJAUgWQSriGXQ6lSck0SEQif88cVXvLNOWPiTzb1Yk++/lZ98ufGoTflP9s1GW6zxfEySmlEL43vUqR6KRVjHQLA3dadrNMbeV0EZGP0Bles2WcpfHb4gO3TcWt1zgFQMpZ0k9hEJYkqjP8wTiZUg8woc0OUytAUFJBikjjUOw5cJwByQHEsmw14TPBEdMvQ8xNpG4DDTB3b+fzW665IW7b+g4UygEgKpHCnLtIogyva7Orku1J7OG5fvZ6c9NjNGmHR0llHPNxKo51j8VLswfj4OLhOLx4JE4unARsIHomssnh8diAlO7qiWti6/j2uGJya2xsbOJr6AoUUmyykCfKobCE15uyV/7OsJ1y7C0uxfbR7axMvC2OHN1HPYB+JVR6NBmwJatMqw8wTekRBWaqUvHbtzDbnugOgoT633avWAIV4cH8l10S3/LdZXShJIU6Vzt5GcAz/QMfWRJMw/9G2ER408Zr48TBAwAk6IVDgO0YUlpJesFfckj55iVy1kZdI/LspHWeKdFI6SidOLmFFzn4KbwzdSPlUUirt1Cfz//wx7H9lhti9HMfZeBGmah0r7RpQM6ew0Gh6gLFZCqJs/1S3g0H75Tnxj/8bJx4Ym/M/OJnaTF7EVB0/R98KuKmXQz2h5lOp/9igNZBmjNKPlLDYEDpK8HQy0jPM4sx/c1/jhe+931oYRFwVFakCY7m7GsoT8FQTquRG8GR02wJjqClsqKNpEpe+PNwmtPSTKnecsc30MRf0MDWJECCavKvznmRIMH0bZQCBd4mwLFx0vEnQBL82IKZUmuiDCo4qgFSrUhdJEgyBiQFUESusKHS6uk1x0QJlIy4YgAScDXmrpOT52XgdsbTVd6YfEI1GzbwBGTe5LV5PA3KnBrJPxt45p3Pshy8R6kPsewWbGR85JbxuHXHCCBjMjaN0jEuQLjThD3BCBDr2RK3HaKSj4GyNJKdAMlGjHMKxwaRlogBcXtZJrqHefb+GPHCgN12oaHekdNRfJt7OcGFN7D/yTt2vTO2N67OTnwRYCRiHAG8jCD1W6Q51ikvJZLRvaEfgaZpteQX2Jrg4JFDcd/s12Lf9N44eeokaSUJHvlnIy9lny8aP2KH8LG4Znxn3I4BxzuuuiM2N9iWghJW96isrhEoWcODdea/Ty8wAZ0LRK/fcUP89FduC8Hu9E5d6gRJmTMoTVrn2rxYPymJo2z9s4zTWQhvu3OXgISgc/S/XF6XaYHRBiEO8sF02pB6SNIAPNH2i+QZJTaUZMZjav21tNNDCYrMvqxVviH95D3XOSXt08GTOKGv3tku6yQoo6aWksaLxNn0omDcXmBFL9OjvFNncIENY0+iI9k8eTR+8ld/G/e848YYuvM2BpzaWBtg3UovSHxVcHfPMvlBHx1BrWf7bAE+OHbTjtj42d+K2RefjenZ+djxmywA+Oj7Y54BYoOFNLTslBp14ePDjoGQKKWB1dUX0av6lEW5s1M8+Kt4+ItfjfHZhTgEbczyvItOJuOwmLXyGdF2AY8C0OWDXKkNKlUZRK5i4yqveSfPWa6cvDhdtqev8LNG3UUFSEo86s7f8iggowI8MvDykML1SgBQpsPcFFLSHmJ5jtajc0l7SoUAOoq7ReKKIAFFblS4NDwZn/zMn8W2TcMxnkYViwGuxtAchKmCM9/RymsjYUa7Jh1pTMID3AgmRphmcqHMJvYm2wDguGLDSGxZP5rbhyh6rV1X6A7Ps0k6GJIQLblyVfsazLnJ0HKyOxLzw8iISGSDjrlFpPOtsXj62EJ8/7GnGJWhQMyIBHkQTBfGgLK2Rghc1t+ZZP+n/lzcdtWt8a6NN5JexlpIBWXIptdOnIk7/Esnp102vNO3r3pVoADhaiJWKQ9TsAJGG7abRu7t7Ynv7f1OPHLi59Gfp5ycwySCHmUqqExkhF8oEtorqUJxKmYAbc/2n4m9e56PZ089HR/Y+YG4ZeLGWKfNHCRqmltYxP5USzn/AN0wTLcDEBIytpAE7G7eGrfuuiMefPL+GGWFzDA4aWiS+DHy1qTzyz3aGHbabqQTpXxOIarPZTswdTK+Yu+LdgHjXgYCA0z3OYOibas7UgYn+GClmBJFk5DcVclkueEdzxzlW410OktMIcoZctmeBKEEjXxlb3LOyF7nw9WCokynoNuBQDUqN0rT5rBa4iF31sEQ07RaCi8t3MfwMP2ZSUEMbcTOdKhfP+fVIJzx0OUSMfE5WFwEQM9AC3DWnqs4AEiNjTG0ZXdMjD0YcyfYXBh+2mXHdnWR1Il0pkgxhpLMXto0G0TCXnsYZkHa1giuUowOfG+Jw5baha6kDgGTEpem4AhdwhZ1eYqprVHUERZb4zFjG2BgtO8//WVc83/+b9HctRMSZBDHknzW5DN3TjjqIMpB3T7G1mLd8Gc853XJMASg+geA4pId+Cn6DgzjGZ1R37/zkdjywsF4cd/emPyLP2OD7nEWtFjeNU0AryANWfvqwZF1BL0Rs3w66cv8Asq66KMOT0zCI+Ai0i37xD38+S9E9+BRps8QJtHOegAxltOELNEpNdWn5ggtp9jIT5uwLPdU0oameZ1SpDrOvoIIyjvJOvPPNf58r8vfbBN5uyZ/LipAei0l8DIJDZXkSDiRAoWa0hQagdIjel3uyYoHU2ryoluv3xa/dy+2h6l7ZnUQT/K6wZJ3GE4XgnBppyP9tezcAHCEFV/mp0dei65VISzoldEO14o+sTWUituXIDt2tm2YbA9QMQyw6dFM3BBygX237n/wkThwlN6aemv2WKUhZ6ATs3O2A3GJv7ZUtm7cGu/cdRsTa0j+qEua0ICrRRBAV0R8WhdvAwZUMF3k7/H5R+N7j383nj/xPLMOAFHmEyzb3EfOxkz5el/oUZYI4eBcy+Fli05mEd2BR/b/Kg6dOhofvP4D8aGtH8hpwg4WpEeQaMpGButKGrK6KUeBm9K3X7/0RMxPH2JZMZ0FwCwn2cinTDUPUkJW+K3+knlxzdlu5ZI4B03Er/6UO7Crw+bqqtyug0Tn6jB+ofYs8yVXXwlyc5rcToxGYMcjqMhvS9nw8KK7nPImlejf4qhz6KdCcwBQeZYdHumzqGnXaeXc3psOeAldtzQ14sgGgN3raLQWg4wtO1XzOChnmiRoDgg7iwwQKg1J5+6B1xiajLHxK2JsjIlntmeXPhyPWsRlStb2KyUJBD1fWpeSIss06YhUkREhTMIYM8W1lr8dUAjuRsi0dn7SD9cd8vDUIz+LYaxFb/sPf4411k18QiV2WbXF8vxhDTPqsrCqy3Ia6O/Yf/iD2DHLis8d22LWDgvgNCnfp8osZsbHeZ2RrqK52qrdbqjpcliCaWdvzyCbebJhdJ1iAdMD44DlkzNx9L/9Qxx88CEFz3EcCdcpeTVlJIQXJFl2DqjU2JCblfK11crdKGveOa6UUh145sCrqo+6XjLdl9lPFtlaS3MNjjzXh6OEBEecExSJemm1MpVcqVatWBtlVOD2Bq022xvMrGep+2x2Ul38ATdoKIzw+FRmNuKk6Rp2wB7A3Jj9gW2k/ECdSyCmHKHy1M1eHSLlklb8X2yXowF4+jDAorvQJr00KqbWHnzmQDzy7H4aDnPoTTbAdPsC3mkgUsOQSyhl8xESo8XYueWmuGXqJkAFW6JQ53bfg8yJYdnhJuihrCSdLk3+6YXH4jtPfz32LLwAo2CMuAB4VueJhp0jnQRIBUDAovIvK4E0qrzqNFfWBaPTzthi7O/tjR/u7cQoOnDv3fjemIAmy75qRDhglx0aYZIKxrat2DV+S2zfuCOePsGKNvZ1Wlog10hXZWq5gk2a51EyNvInKPHPvA4+davPrPuCmYYCPemclUiwmiaQKsqWNWi4xGa9TXUKHQwBHpaoo94Qy53psbUrEz2mi2jz6k24AECQeylcA/r2SIlWSqrLAC4F4WwCq6SUHUDp7OhyAM/RXgdhcjQ5VPahU5IvsZcE+VKSShtRV2iQNQQ9+DfkGv100rWDktLu1EFqDCG9GN8a4xPIN1h+nvv38V320tBbsYJuW5Yr1UcV3EU+JTgiTmkoO2nSU/Re1J8pICgNsNKWO5SvBg+VPqaRTMp6CCmOOR8mLy9iQHIKvZ/R3/8k2AQ6YlZihOlGkaPSMrcjEWglyjLfMpZBOvjG2JYro31igYVrShilY+jBOjNaDqNcfbT6pHUnD5AHQmYiGAYgHWhQQffIzEyc/PLX4+kf/CCl+/NEKehpAszUO5rjcyiVQSUUAgJqUw5KkBYpE6VKCZBIWA+6kdcodZfHcMqEWj9JIZwvR7cmAZIFWYOk5UK141RSpIQhwZLXJN/pNcSBBSShBswISKs5McwycSq305/MDnEOfuBoZ4ROTYEslI64UOazdp0SrhFFyBWxyYxkBMPYDJIAPWQG/pWlqRefCF0Kb8t1g1n3XFsanYg9R07Ft3/0eJxkPn2ELZ57vVM0OFLJyGRIpl+BJFurW4rctP06lvWvR6GclR3IkV8bE1hd/ckEW5Yljb5P/Hs7z8f9T343Xjy1BxMDwIxFOiToAdtx6ZZgBgmSKFLLP6UcZtXUkZduGwG+nRq3Tv8taT8Jcjo4tz++/9z3Y+M7N8ZtI7tFJEgKBgtBMg2UeYZK4pRqTQ5tiJ1X3BDP7H2EqYNpQKkQKimmACTu5O2w+aQZOwivPfxLz6sryoH6Gmqsp/SQCrWfiTj181g88lB05p8iPS/Rpo+SMvOJ6YrmrmhNfjBGN9zF9OG7obeNWTF9xcOtWa7tTMhzAoqBJnH1gUnjgLYlep4GHWvDTYc7B1HgeDoa0w9Hb/rxaM/tZRbrGFIMBnBIWWN0M/hoJ9s43BzDmz5MDqCZxjYOu3X2q0vAtfokrNqn4eo82YaTBgpftA2oxzmOiY5G43i2A9gvNcEfZwcx/um8v5ROjidPzOni6jqVicmYxjpSG4aOnJz5lp6BPgAekEvXObvYZZYNYV3t2TxxIh7/0lfiPduRnt3zXgBCG45ghgUplpDMgAtHWF4T1kCd6iJIfOvwXZgir8ktg4jP6cRSV/ox/vO5qp5y9TADqaxrwiCvPcRRY864PPDjePq/fzmOtudiEQSlvlGL6cXj0zOxAH+b5z4lSJSVW0S5ig2q5vCs/wKIXOGrXlIqalNGpayq9OFHV4PZ6ullcVqTAGklOFqWIGULlTAqApJIHVGuOHLpv8vGAT+9HuJDNvkbxzaMTGacDQGXmN4ZZlQwBAOzs6gEp2u6opzftTmqHyLZOe2mReokfZ9ZHrbeS+ZIgyI5nMY4T4BEv/KNB+LF/bMxbJnHCRLP1hKUe5dOwcYpc8nRJ9uMbN20OW645jo6SUTBSvcY2baWGVAG+4Z/bJ6K0SeakzDNDtsOzMbD+38RB9oH01zCIpKvJfIwn+Mh0kYZW6L5K3Osh0M+9QWPZLiOWJVatJBYTNDZOSgfGu3Hi5398ZMXH4ptu7bHla3tYKQKdfHNoFzWP4GZHK2iSwdXb90ZI2NjjPYwPsefiw/kickXOcvbZVz5Rx6X/1bFbAngQrj5n0Xn2P1x7KXvROfUw8zAMkmLQbpF2m43sOUFU6ZkaatP02k/HUPr/yFGr/hATF3FNh/s7dbosjQd+nLcm3o8fJtz6hcirecL03qwh1D5uXkklmZ+FfOHfhiz+78XS3N7YhFFYeSL5I91SeSrwS7szaETdEjkq/WtGNlwH0YaPxrD238bQ4J3IKFcDy+zexok/cBFTKKdlheVs5tzCnyJA7yQdDWOBegWEroOg5/ctomzHWGRoPhtAaV1GJfkbD4q55VZctCY0gzP0I58swvfsR9oKqGEf7ZTd3Uk5hjojMCbTsKLJjCD0v3lY/HSl74aV++6OkauBKjydb/NN8mT5HNEIFDJNmPLGpzTdpwoYwQTLl2mv1o5tWc91XXlIAcaq/J0vpj1J7gTtKd9NJLeYSunecLboPTgV0/HL7/wpWgfO8J7AQ6gB8n4UQa2i9jUm+Nb1Ts0e6I07hQqCK5ok/fpNwER10qPpFCPWkmbS0sqQVHWi3m4DN2aAUgWpjQn43ePMJl7SoucgwUE1QAhOwaVv5Qe5ahRhWv9cI+1Uo1DjqCY7ahUu4ndNnaBGME30VXo0WlYuUlgWWHGurYdE4glgUlfWUqlrS4n+8IQnivTcjl5t6QgpQ9UkCMyXsHYZRKMzDoLABr0kGD6hxZb8bf/8tP4xf6TjFCauRHjCMAjlaJVkFeChOi6ibXs3shcjKFQfPOWW+Oq5s5YQI+qwW7XaSvEuhlg1VjfjNUZCgGERtvxXPvJ+OXRn8c0atauYVafRfA8xCjJefS6LZ82uliSkzyRl4IRRdACIsmuz1ThPJzZDXX9WLtOzx59NJ7cvCumNm6kk4c+BbLVt5QIpSg7eX1OYJbMj86q9HG0GRjYtontsR1pxN6TJ6LB6sXOwnzqLaR+HrpSfZTUU58NhlcGo7Qm80H9ab3XUJuOKnVZ/qaZw1N5WvqF6vpVT37ndIZpFThIQBJOYxyaQZrXouxnfxhHn/pv0T75y9xGodtjOpk82f5zOpTyMk2o49D+0YdxkcYJgPfJr8XQ9Aux4XqkM1v+EKnfZNHVsWd3DoFoLrjLAqlKJQcpVYzwmiGn0l76Rhx67ovRnn4ShVisDPU3oL/hyrHsRli9hGEIOsSEsOSrj77LaG9fzEz/19g4/VBM3fBvkGz+KZ0TunvSigNB+ZyGzJIQ6xzyLOnLtKwi43hzqiXp0XrlhmKmfAE/bj1EA3BrCflsc/Iq1BEOZJpb1GWb8m0suc8jQ0vqiL6UpKwizjqpAz7XOZbUBEIqjGtUVpWEDoMaN9clN9CSNA1IQBeHIaZJLxuxkh9KDwlSL9bBp2aRRk7Qhzzz05/H1F/+Q0z+7/8+2OkIK9hMgYIMuiPyrVJGWSUJmgaXqdS3I+3q1bWQbJFYnA9wpFlXoEi5Pu+vGSWHbdI9qmgIxXSNBmA0PIKVxS/+9d/EgV/+MmbpJ9ttlNbJz5z9JODR5fuLKLPPQ2vzJMSjT/ktZLmiUkCh07rzrwPfVM0pp9YyUbRf/Gfyq3QnvfHucpMiVdwwc7Xmf2SWWd78KHh32b9XqYWPaDKlTelHfzSGrKHLr1LWQkU0cjuBMlqxY+sjlVOXxQklfy1bmc0SgLTJFiGHTo3E333r4XjwicN0fpNIg1gm32AaAZtHaAnikxEcHFUlaXcHtwGN8e1NO7FBgiC7iaQvG5yMFz+GPjhnitHngsnPA5xfOMRoHvF5PuXHTrw0YJ8U4HJ67rykwtTY5MvEFd7tRGAS6rTBH8irbwtTEBB2YLpP738m3r3xzhgdQiESpw5WCeeNdiolPxkoIcqOlLqN83cFCu8Hpp06tlPFHxGWODl7Wx7lp/l8xX0Jb0C/giHLxwh1TK2qdIyKPCNjJD4nfhpHXvhCTB97iik1NsKEgQvenC5Ji8giOPPGvc087WchKWqypY5TPCeO/BpDe1+Pba1tTE19CK9IjrLjBiQRywV3ma06HksSJ1Bh5VPvyJdi31P/I9ozBzD+N06+xlPXro/EqHQq0AxtoUtnIz3ZrJTeaGer32nH0YMvsDHpj2PTtTezmuk6CoX6zIoz0tLZWzbFeX6j9FQFddZJ/S4lR7lyzTSS3Vxcke2leC4S7LM+vES3lkQWU3XOqTc5jTQlLVXpcnoZzqXMMSXymGvLa0vWKaQRVm898S8PxO27d8X4Zz7JKjYkgvIt5h5zpSdgNTfxteGvZZdIGHBE8p3/XyKjwpqJE/Mx+4/3xVM/eZD2BdiZRyMTehQUWSZFr+j0OQ0/UrjLU2hZmkU6t1zmfGsBq5Nq+32zuLqFr/38ZOu0hYr5s6VWLZZrO1SfcyRYWlE/2TisvLfd6ysBwZGdHWXe0LI1ujotRpmT8myYeRO7A4+92Iy/vu+ReODxfTQ0DVgyykfDqx7tpCI3W4q4zF/dL4ew7v+0eXxDXL/pGmszwxea2IWW5eb5cHA/Tt+xjcjhpSPx68PPM+XmNKW0BOM0fzJ94l7uh3yTDb6cTYidQbb9pC87Nw47fT/lmVKPEcT0HUTyrvbZiz2lFzt7/ZTXQnoDLMw6H77OH8MqTsBlPuw2m8CjsbjqiqvRz0EXD+adCu+1V/yYTA+/8qhBII8G7pbUNdMl0DEtlo/tFBbc3hOn9n49pvfeH4szR2KO1ToLbObETGce7qowh3HTeUDTHM+9Z6EgEgxGsOipddBJWsR459yRn8Xi/m/AyV8sGEGtU+jq4jgyZNlm+fKTNHAyYvqBOLrna0jFnklrzW2kYjOMxBfQz1tkvfQiWq/zrKNGuBezC82YReo638bWDHldRLG+y0h+fuZYHN//Y1YXfZ3wkbQJdHXZH9taKh6YD4k42+eg841EFFMW0lJSLrSf45a6rWR7yUxnKi7FT138mZQVCUhao0KUaJTOvSgTuyy96M2oYKzUFxqjUMtRpCTa+5lFsnfsxRfjqb/5x4jHnwLQswBllPw7LQeTMtcpnFkR51q8dGqtByh34NBlerSjyG+Rwcn3fhAP/fe/jQ6Ww9tI+l0hrXGNXMJPBi0bYD66R6W8lvdco6yyPHkuiKrLt0xpSp7yNsrnTdTflr5pLdbuWWkS/ysxkunTU3HQ3dBil408gupz6b/P8n0JoNTVoJnHWYl7M95SxMloKuCgRElsM8kaZqVB805Gg5IeeWEx/p+vPRUPPnWYATQgpMeWIkynOW2TEhaKvsmUTov5KAFSduiErcRjx+btqGazEz2deW6PQTm2YEK8Hqgr6XBaayn2ntrHVODh3JRRMsm+xwg5BNeOlj3cnDP3mqppjLOec5k2Z6X2SzCc3NHceTZBX3WvOR4yHQtMIz536NdIEMx3ocFBjLiVypROwR7TsuOAcWurZdum7ayiY3kyz2TiybA457VnU5IgzWuOAQA2gjmHM3RiN6EkTumj3Xp0DkX3wA/i6P4fRXcevYfuKLaiGL0yxbGYAEhwVOhrFqA5nwBpCSABmJjH72yH6TiAVJfFGHRkxw+yK/vxx8jITJXXi6hZmIXLj5IEyltF8+N7Po8+1XNkexMAb5h2sgC4myEfdMSAnzmezS20AEt0SACkOabf5gSGTDsukMdO373ch5E+7Yv5w/dTXocpNHWanFqTsIjPhnmGy4Sc8eSN37BSU4AkbWfjKCEma7VtU6/SMi2gvH/jEb6hEOoSsSSkcanPDlyJnfozllwHWs+pI54LjlyF5SFAmoNG5/DlCq05QeC6Zhx97LHY8+WvMh11KMbUXQJMeORWJkawxp1lUsAiuAipGPJA8nI4Hv0C4Oj4iQREx5mSnIexz1JSAiT1jnJKjbJa4N5DoOSqNcuvBkiubKxBUilvypwIa3CE1zeFk/ovC1c6FhqkIKlqlDZPQdPyfkB0XPmXDfd0k8nKqm8vi9xe+kRmvwaRyxB1lqE0vwBj6DNPf4BO6js/3B/ffeiFeIkpkhE8jOtfPRz1TAAMmI+ky0bZkFGM4ArMwdQCjJXzKJKWa67YxntW6rk/Hle5aiPjMiAuBuhcjt+lk9l34iX0P9qMmtzlO7tsYjFnHlAPQMhGbvRApGQwCeDyjvdVgfTdG85rgSN5TTUQ7rvoUk2MMK3CWBVbE1jvP8F0G+CQlYeGV5xn43u9roRTUl3S6lJ/LFDF1NhG7NdMxDzgAx62nLOVMdXfvbE0rAzx5ddDKkuLIiGkHrpn9idNbfqceCIO7vufsbDwNOBoR8wBDNzot825A1DqALx7cNoc7FgPfC+I1TieU7OojmIjCKmL0iL0fXrYntp47LEY23g7nrAfxFQCs7UXwVWRILFaovNwxWNj7kD0jj6SEkSLf4H0u9qx11Yxmzyif9fVBAFTZsMJGskfRdREb8otgxpKH5EsTaI/1uxNM/34XIy1j5H3bXhi2bcNRxoq1c+196Zj+QHXg3PqJRUJICfykuITwUPlsi1clLKuYzz/2eSUgw6bNKdeDPXj2ef2HtaXvlwdJm3JfdyN3vbpKmftQR5GCn4DtPTCv/ww1u/aFZt+97fYF20D9IU/6BQ2tvYd7aiF5LzNwqVJQfyel+Lp//vzMfvUc7RHBiRU7yw2uCwLjBogVS8AUimbh4DIrUUcbAmMcuoN365DyBLkfYIj7rPMk0Z8Z7vl4ZvAUUQXz+Xoe0V0OZK1c8kCLY0/i9UCrw7bvqCIuuPSCrGj5WGO6CXpCjAhJoTcQbEoP6KkvYTJeA1rOapPOzC80/Eow8mbt+BPYROUFMRsWVhmqRNEwebyXhigc/K8SGXZBabVkLLTF1H2Tqmx0eNPn5yNL37nsXj8QCfGNrAktneAOnKFwzzMnE4Q5tJk9Y3TLOAH+gPqiUBtOKmojS7Q+gmWpU/spFtnlQzRycJGqPRMn/EP2LXY02g+DiO1mIkNjAK1DtttuREt0ALlRTPcN+1MgTRBO5aLRJeD9UI6Z6TI7/qUSY9OX/pswoyadOItJGzeD6O0LnCfYVNM9sSOrbGFHDIdRjm7Ka4Bp0Q0Y7YuSn2cEckr3OQ8f0lhKoAvEmjf/e0If4q/jZNXx6kT+1I5XuXo3GMLCZ6MzdE0E6VZv6ZHUGobsiWRcJ7L3My911UCsu29QmJe4bFpTFs75hP9oFSTb77AMv6fxfQh9I7aW2MaCZCKoAmOKoDUpS56TMUVPaQiqWi6yAIA0kKp9mR/XYwDNFpj5ALt7Qa70B8/9o9x1Y7fjqGJ29D1AbkPnDlLAHIe6EPQ0ENp12uMKPbofJoAtqF4JA49c18cnYaOyHMbCVFncSSnDDUSucjAoUPeUE2ziIHm6O5JdjyQn/VQyl1CL26MqZxFeqWx0fVxnDCG934jNu2+gjhvhJk5hVg6NHUCLeNmD17nAgOC4sLfgTiHD92hqRij7XcBuILPjvSdUchnqVekpJBP8uaBRPoaA5E803gwBVp6AunG8pWi4VvUVRsG1KZvUIprHSptdaaJashO30UZ0rkdujPA5DoV1UdY8fo0Jkp2zpyKZ/7yr+NujDey+zeAHEnMunXRmZlmla7azmvZQauYazi5dDy2kr/DX/lyHLz/gSyLOftQqrVF+czwTimR0qI5yo4WxADEewGTellSeypI0DbheZSh5ebkPqTNV6VfthayT+dZPchcy6WzmrRdVIC0mgS97efClkB2/EQhScMSJHGAEAcNYwjgoKE4dhXgGQAT5jjJqH0Jhn3oeC+YRYuv/+L5eOSlxZjvbYzW+m5abh7JITsfEZ7NpXDMs69h5oRVpqHY9BUz9+sm1tGkCJ+jOL6B6Q/aKS1aRAfqOILkJdDe1OT22MByfMGDW6OYZG18JIDZVBq5aSij5nOnJssPRiBjrY8Ed2ZhxbONrQ2somQFGX9OHiYjNov48eQ3BDMgR/iUpWCQCAYU5hsJpuTQlDQR5Uf7cJw8uR9MACji6AiKWG7cZqVpgiSm2DrUhxKkoqxtMZEfnidAh86UCWjqQqMuQ4CrHr1d12XYXXQrqGOpaeB5d/5Sl9uBcCae7F7JQx9xA+t/6FH2xMzcPqRi0BpSiEXzhLc2bacNCHJGepH8Zt4Ee4QgQFK537Fe3aFo+NUDTMjqPfOGZWWVhAVTWafmT0ddWw6Z33zwlv3JUqjI3SKxwxYrUszLbTif8bx4K+Vm+VmzOXDgnZ2/K99Ya8tfPyapL/WW+ujqPP3Vb8bN26+MkTt2M807E6MTbMuSVtzXbrGrO9rHIOlWZGS9b/xzPPWtH0CD7ZijHZXtQ5hOhK5mobeukrOqDMrUJLRHMdH0EgzV5ZqK7zyzfH3mURXqckFcABa+HPbFvngbIF3sEr/E8TndJQjRnkaHEZYsQ4L20JCY2yTIsB0pzywsxi+O9OKnzy3GT1id9uIxhxwsVWZ01epj/LE3w3QOHRxTSDQVvhEcccBcaFanr7PFEBMNMUEZXqfWb2APuXXwfUajyY6qRBjOgJ0SoVF0P24ZvTGuuv6K09IshoxaxhUcObuuAcnGEEYJ7War1m9qBDUvc7yv35XXlZ/qee1fYOQWLJaPo9oaIJWSqH1591rc2WVUwFaRBDWpE+qIkr20q0lIY5UpU4dAnw2enooTR5+DGdMJaYsG8CCQ8FgA5DjFJlACd3BQvoxUpcUWwNr97EZdMQhY0VK+CMOtOmTgHbS72/NHYmQKySUSycE76VkUo1VvpSmMp6lnzRcgP+Ieo3onHovZmRcAR4AiDs8L5E8dKmZdAYQ+FwDaqaiP5YChtLVhp2uJQdogq4AjOidBEuBvcQZTBugwZfS0ozS0ytRlWnQGPBb32qin+uhNcVKCITnoLMO6ZdTt1+d1p24t6sPZJleu+tyStxaHuW9a/jwTZPM21lN3cyDVcershR/+LK7atiPWXXclEnXogBkKYdRadj0ki8MTENkDT8ej/+XvMD3BgggGKifVo5IeSb6r/9MyNvlVzyin1yiDMp1G++J9rXdku7S8BZt8vny9lsvgjabtbYD0RkvwMvvevaGh/3SFGTheokOiEz9Ji3n+QDsef/5I7D2KwcNjQ/ESIuV5VkctKW6fomHNT2MPY4FpTJWeR3IKaQQ7QKklzBObT15XoCjvK7DUB4g4MpNJbViHZIVwXSbPB3SEdjgCN98PlvXIDNuYItCNYtNEIOFocRiQqCJ2Nnk6XpmiUp6EPjzOM2V1LoAkkyhuZVr5yOBw+W25JDbm990lnBV+iqcJMH342qty+EX1sS9e1dVx66kOISfFSP8IRlEBSCpFrTq8V43sdb6sO29SYZ7Z2mDu+OMoJx9i4M3UU2eRjop97ABE80pcBBGgB0FED6BUj/6tnybgaBiwkFOS7DY/DFAByyJZKqL+RZa5LcwdxkLyDDne8jrTu5rPTINdgyUrMFKLjYQvnYwZpjQ7i3MAoYmUji0iGVsgX4IkV+cJkDrkrUveBEjSOtYgEhBlx0OVOiXrFJaDFE26gSFjYWY/H07n5tNOJw2pLJxaM5Sv5ZrtSZo1TSvpggdvEWeulw/KLwERT2yjpZ0W6cgyTSktpuwEqTYRz1Ajl9IsAInHTeaQBA896krw1FhciGe//d3YxR6fGz73uzQvv+XjNeyGzfDeF2PPF78Up/Y8zzQ8wzVszTnd2GNqbZH3AiBp8fRKNa6zPARJgCPeF6OQ+KWMpD4lbjnVxrXlm6tl8fdmdG8DpDdjrb5KnmommjoEcgdGo+pAiGc0fOhgdfZ4J46c6MdLyF8XUaCeZCpsbmaWg81ZGFE5TbXQnmEQD9BZP4nC7TFitOOvDp7ThE4/y3sBAEyJIbIj5nXjWElWomJnUTGmwubqxA+S+cj8ykqynMqgYxMc5TjprGj0KddMgEPaPAtwznanP0uf5TWMpnY1qCq5U86QE2wJThvELavxyxLO6e/q71/r2b7SvcrsuEdGVZC2A32toQzOfxmHA9ogrATFDNunT8CkO6yXaU+kxKiPEdIFRC0LrPBic3FAkhIkKEepHklxo037oBb04lSaYantj60+9H6kJQESK+H4qNNmif0SGs4XxClTMC10ByIzzV1UaUMzGxRzIuZPMcWHCYJ2gj0BHyuAAEbYJk1zBW0AU4d3YDq+LYOBFj0N4wwAIfni32nEFnnEcgYLCqBY3rXnj3Lj9KGtBwdAy33ErF8/EthDTxbNW9HRRNPluSoDT8sH7xMY8czyyybKy9Kx09q5bgNMNYfbTNBEPfGB0+2n4HXreT+vnthYk+nhQ4CN++L2XTfH0N3vIpAy6MoErMWfk/Nx/K//Mfb/+EEw9RIb1zC9Rh61wCE3nAXkpToFdCkYglQ5XK1WlLITGPGsyNcpEwrZ8axScctbnpOuqoPqLsvU8q+YW/34sjxfcoCUDZsCrhu4DDELlx+f5XPPvLAjtS5yFYLSCGsIppUMWKaTdcLCzi4icOTXol9HAiOJ9q3WHDOkrxooXJa19gYSXXfnWY6UmISuJVTLY2qiEe+9eSTec+O1MPpenGTbkIefnY5v/Pw5Nnalk1+HsiidcGP2OC1skR2hmzGNSXzUkakLAoLRWF+5OoQQFc7YtdR6FVm3MP4W03c7113JO+xz0CnUSqZ0D5mON5C9c34q5ThO9OwI/ZXcaaBW+TBL+S2ZehVnkOnDDOJWRmF5u9TY2RBVou3kZUf6OU2Dp68ygFX9SM9QPp2jU06WOeNCnjRj4xJTl/af9saIIcrUpm2nhnpyNg96YJ5eCKedqx5K8I4umw45F5+NmaOnEljM0+F3OuOAokXOMGU4s4YiF1OJGcCD/+zUaNPSjpa1l5z/BcFr4mBxFAvI+G0BOroo/y/0XP0FkHDLEeMauJMKqjLD6GOT0feS9pzsaZAYxcKzMTd9GIVgJISuwmNqBlUP8uf0oaYM1EdiZM7ZvDh9mFOFXOfU4Qjho3vVQJpmvQ3DuIYRK7V4P0JA/QX2ZENytoQ19IZ6ULqUZEF1TvM5Z3QB6tFcF4Br6F6XaKTgpCkbu8cldFr+zrQ5/Up5JcfhZKokBY1xOhkmlEkZMZkQ3JqZ4VT+olfATwtaKyY7AKr4RUbJMxZicBa/qqQsmu0e3Rcv/PVfxXVXrIvFXddikRvfIGFPHaa0WENJ5IAsqkkl+hHqtOgsEOjAHLmR37KScx76h8KIB57CqjvIDWl1h1Vr5JkVePu+9i1s12HAAO9pAV19OPLqHmqCRG23LUA/fpeGInnu9FoCJq7lKJafZacFfy1oWybSgE7Kq4GS+bWYypu8TD+X84+0cMldlisFq/NEvWRjrB7lM0vdgi9z/954UMVZO76RgToyM4CVDKOE8nq6IEJ687nkcqWc6zIp0o7T5SSTnmSV0ATi2K13jcUH79oaP3tmLn702KH41XMzcYJd78fHN9OpsecXiGOptL6sJ4NPhkXJGWItSfEmrznLiMaw1WPTtp1TYbXv6tpnF8IZz2mXUZ++5er0+5e/O8Pjy25e3T/h4iGZSnosYP5lgbyOB6Xk7Ly4kv4Jv5gvMKIqnuKpahvWzlnOSnjZw7P8vOZb22JJT7ZN7GN1QEKqq9lp9XNVFyNVerF8Ri+komiHs3o6ggjbMXiazgc6ybBg1NBal9FwKjsnkCIsOoO+y5UBUFVWX3NqV/eBoeMyEjsX5Uo4pFcd7B3lVJkdMuxH/V1xS5f8OI3oFGKHF6bVZ+DazJN1lqvYyKjf9Piob/nwbTmbV6RGyd+MzIoyARxZ55mC6tmAK9Hg6iDzXOWfx7WrX9f3F/ucScz6KDHXKVx5dkpTEhc/WWflnZ2+QwzqiCdlykgwRXXy0JVbo5Sv003DNCr/NPfRopIP/eJXsfEf7oup//hvosveh60JVrMxKNdILCg4E2LVGHb5yUcD/IF4CFxbc9a+ki83bu8jrhyaGE9bdfG9H8WTX7kv2lgkTaBIPrLdkS7ZdZ1fz13CSekQYSVowq8lYzllmUGPXp9xeFM9W3nOh2a8ep/3l/HPmgBIqym/rC4JgYK3urxPcATRKkmSgbqp3pLLX+kivE9HZdlpvEnqazVFNRA/2m+x8Q2jELGREf8nbmjGR2++Pu5/fDa+/MBL8dyRUzE8MkaHhT/L13KuCtzrLLqNIjoAAEAASURBVPTqeXqwEnzMX4uR2DDLmos8MB+//fNmKwEaqk2wwDFWYQGQ2hj5ESQoNXK6KaVH9Cf2KanIDJBwikqQJNiw0aqbJljSBITmKARPHiqZpj8iyVWYoguuBWVJexekPKVhEpYMhQ6WdDl6X1o4Tl4WK4BXAFBRyiZf9E5Ot3lgTBsQpKSDdNLzuEoe1kVwRVI2TENKwEj+7cx6SIeSr+npDAZW2tIFyeKbNNDSHxSa5Df/al0lKCclJF3qQcBA0TO9yeIT7tVNUsKE9QUkSoAmarw/PR+Pf/O7cc87bo3Wp38TY6CzMarFcQOqqsbpU+lEcwyQ8ECdUmMoImlv1Gk+JWJIj+ahH5eYxDMvxIG//6dYePSJlLCmgUyemxfzpFDLM18mWEK4WSRE5D3BIn4tm5S44UeQBEkm0OL0lnL18GPtZ1rGJ6Og2nJqLZmGjANAlMMtGWR1r9/K5dSc8xtvu9dUAsNokGqvxxVGS0OuNmMjC3qlj71jMv6PP7oxPv2+KXawn0mGnwYTYQZpk8TOw2tOy8+NOR/TXfJumGXoAiQlSG+7N2sJMHCBs2ohHSiD7tFxAASjWQBQ36kogILAqKtuTl4XS9pKWlRw7mBQUZtIvu/yPo1Icq3F7VwFl2CDsARTgKMeSvAsLYLO5BEDdknM5kMiNnzyRidVpmpYxCBAYspZUCcIcirNNGe60asqaeec+fKed9hw6vquOtzAN3WUyL8gSQlZkUJZXvI+edppvjbgHL4lglsGRlmDBQCkpW3KVSOJTi1p8HOIY4nCF3irzN328D3HDJIixN/RnJuNp/+GlWEPPxrj6Glm9ySKkKdBJhUDlFIGXrYJrqFJhQSJlLhuk97JdVhhP3Ysjn71a7HnwZ+wIIX2gy9IMg/xm6SU02U+59p3+Yw8JiAiIwUclSwUvzwj7z5/q7nLp4eicpIgEgTJLwoYKgBJ0ETl8UyizlEXxJN99VutRgeU30WM8mEGL9avp70jZ5yjdS3S2S215+OG9YvxHz55Xfz5R2+JLc1TCXqWo5UfMJKpwRGVlveFa/DLfVMJEgBs8KxjORVvX1zqErC9Co4SXHTo9E/S4Qsi7PwZAfNckNTlusd0m89cvSao6AkkAA7obhdwwfNcIs+3ggeEMYAkp+do7zL87MyqAZKdxgVxUquH3YxxyDo5kBAsdk7Bd9jpnfQJhsxXkXTRqWZaBU68ozfyKFOK5NO8ojvTAwx6TukR/gVaHinhSL5mfBcqXwT9FnD2CdJKKUmhUqlJa7MGAZ7bAGANr6qsnNNQ0jH8zHkJSXmRqdxFZipanOcf+1W89PkvsdWNhnGpPzXuoYEMvCaXpBNvBueyH8xIDFN9OG1xQYvzSDHv+3YcQbo1jG7ovHpyy86vkH4hLLDtZVlwlrwsA8gt82gZFClSAUxZXiQ/3wOSvH8ruTUzxVYXvEQoH8qqAPDkslZqx32vnDrzdYPnViz1xQsZsdwEzgPRDoHmVUcIJB708YhFCUPihUHRRCBslCElDHpqV4msbUfaUc4s+SSrlgN5bqIobWstf0xUUSgSdhbOgDJUjA3CEGh0RtByTTINbGiIvdPQ9dAk/0feORVbp94b//U7j8feQycxnsYcvNuK0OJGhjCOiL0Y+0inELTY6pjNujD9RV3YCrRGi8vqrK5PP63fvn1eWQJ1+dRn6cKitN1IL0MpVbVdcA/DH0L+r2qltGI9cmXFFDryckVVeJlOv8s31bNVn0wEAciJqe9O9yQgQsYMGCCxHYEB7TF1IPDTARE4HdV2eolraT1zw/yE6VcJvY+UxU038x3BqluipeSWJg2MxzyrtDRoZ+FYwMTXQPpFROTNQRmXEHi3zco8rHsv8c605fQYeVGnSsmQvMetRASAacIAPw0Wjvi51aCidgGOAj6v68POjCjSZ9ZY+aBuM1nphnIB8pyhFg6TpML9hYong369P5IY3wpgMp2e8pIfy8f3WX8lggQHFf27sISWYbVmGAmIoFmNRfagWaqtAArDt07gXaNIv+072oCkDegcnXrksdj45fti4s/+IPrroA3n06RfdTPpr1xIQHQDLjoSRjTmDYbKQhdUIZw3+5cH4uRXvhFDRw/HKCtZ50DjidfIv+VTphkLPXkPteWfV65Ygzy5MkzTXvLsvdflBw/ElQII407682VJyorbTFp5c3n/rhmAZIlmRVSF7Y0VkeAny5gKLhyJV1RvogXIe7kjACAxJTSEuX63T2iwBYCSjyUUQxcRZ/c1C62RN4gcUsi4RrDDspadiL/HlhWZWGmT/IiNBH5lcJ6FBD3LuAuRDiw/BG0bKAZYqlAp/2LHxzLsx3izF++8fmN85jduiv9x32HmuJ02Yb4eQ2pcJSMZIsGpypqddAkxpz0JUsZfwGod/nJWqwdvn85VAsnvKcpSmsWHZVm3H59kU4GpJ6ujrdSLG2pY7de56e3KQFZEVof1Cq9X+HyFS3qdVEQ2DepMYA26DygS1CRbBtjY+Rel5KoDshNiAEPfk/6kBtOvv6JvWF3b5gnHt7ktCdRWJMim+nWn+BUy4uOqNMyTYCzvKW97BBriEtIjp/nz1nRR3kXBuupkzDN5T1blNR5TLcC+k+vTI/qSBGPze9uYYdbRr7ioHtp9XYj8Emzt6uDhMfyfTkr9/hKfpWdTleXkdfnnUVVnPDh9pV/KVk/Wpef8xUeCgkJTSj5zVa7v83n5xnqqq2MJviaYn1ycjQPf/l7ccN1VMfo7vwnQQLokKjFk+6gL5IxBFe1s56YKKerJgwfi2L597CE+HkdR6htFgXzOJaLpKnrlw+xHLZ9kJLYinS9Ken2SOTWz1rtnHLERJ97y7vS5ujWEN50T214W7rSeEQJAK9IDqZHSDA+NEKaSttwVfYQey2Ot2HFQ/jjSjFGlGl2WyWrDBFW7PvsauW/kWj40RqbROFeVCTOGGJmoYccYhuWlTIVzy44ZLAu2A7w01ahl7ntvXRe/+6F3sC1JL0bHsXFDS+m2kHxxHqIjRP7EyJ/6IZF2KjkNutzMLk263yqxShc28po+vG5QMTK7BNaeL0RhWPkrXI46abMJDqABdT2yDyN9nhNgQMt5nSCC5u1zwsjmXvlbEWTxfMaDi3tj+elW5i1H5uSjgJ4KDJGperqs5J/ux7xaBlWeCyDiOXlfbhpm/m23JkvAutea9nr48/STT8ZL3/9RxLEZtocB+KMw7abdAq2+mt1nNoUB5EfCgNIMl8thaIgdv2PqN98fY+95Fxtk0z806d9YBVHaeWn/zBSmU8iVPKHiAT6skyg3WPmufm44b0W3diRI5y19OliRvcMw7I+kgiT3ObXm9JpgiTnXfhcz/Kwo0OruIqBo3m0B1EYbwngeUg1F5BJWbvaYFHbeiC+pB412uQmqDdIOo89IoZH3ZEldH5/xU4j64ie1ATAd683Gxz9wS7xwaH/8/Lm9TIeiU0LacnWOCvIqtCr6QnKnK6Nt6yRv3/650CVQFbUgySL3SHrhXqZ5IatB8GCb1d5KARIFJPObQLlPG85l2LRFaVk/0rONlN+Uuqj8L5CwNzgdhncXMuXGtwpXEp1pThDkNCKf5TV5MH9O3WTbrfLova2h5NtyMF/kJfNf8lWXySpS8LaXS1ECVPJIa5TpYKhw8/rYdvOuTIUrE52qKoDCaSsltQNOINL4DNIfQboE59Tyjqtj55/8QfzyRTYPR1l7RL02XqYxXvzZ/qU7+5J8li2I9FVpdKuVsol5AUnyCNuYPCL7GN5n2+T5W8VZBpeFK1IjQZLgCIpIhltJjVJ6BEjiXWtpJtY157AN0YtpjNzOdUdjsTkW81DGImi+zbYYixid61TGI+HeUMzaPJS49JjLRrU198mxoxjBPlFuzgnWyO0WSHqLhlBEwpeiKu3gxhixzMe9d98c2zeMsiTWrUkAqUldLnNV74tVazQwwZGNzL90NL633YUpgQREFLNFvAyO6Ijzj7pIRuk5fVyYNMhidQUEVAAHQFAkJt6vfIfvBAow4tLE8/MERVKMnle6s+9XvruI16aqBm4kO/NkPgpIKsDQLq3cFyAoYKrYGBflWclOuTb5Z+XWR2+7NVICth3hxjTbB133R59luf9HIjZvYJbCp2jXpcRcUw4JSQaaanWqtIGUYKwe6TiNLVHdc2fc8qefi8VJBAKsFBCoLXuxpZNuAZttvn5n4kp+yvuaJSff8B2HIOqt6NaABKliA8kd6kqwBmU1Movqmb2tfvIV7xLUgBI8M62muFOT++2hSZZiTsTffeeR+Nr3JQGkL4ob7QiUJmnpVGKqJBtWek0cyyuvMmbirYiiTpV+a3du3lzlpfbEuYS94oGXlbczfVexnB0nyqBOr42z/8DU5HisH2/FNds3xKbJXtxw1WTs3DIMIFkEJKEUjRTN+fUGykqObBoiqIyMRkr5GQNNi0SZiNfnbFiZ7jrxlGMfC7+d+RNx49VTcfc7d8U3fvwoU2oAJPQ1XN0xpNa89acOCs0yl86iK1YMwfA801Pq2/CLqyN4fek88ytrvcVyXdIBvaggXpTESRIeq/FYYRwZfR23eXUMVeX5zEBf4a5862+dk7OvfEd3ufz9yvDLN6e/XPa04qLo4tU+CQ0aMczshLWBi0XfVFyGBjKHKKihrcPBWaSES+kLtFY3r0wjN0l+xUtF/menpXqZobzKTwZkzvg+221SXn6QcfscaUuCBFMGfVTeuDZ9Ot7zUP8pUaHW0o/3vM0j39f+8xM/HLCrysCOqaQmw69zpISspKukz/SXkbbfSfM6fv3Pk+kvX/uu+NVfAVXpJ/2WfOfnyz9+cbYznnM9P9vfAO8vcnSvlPLlOqiLwHKrSiPfUZgVyWcQpUa4hD699vDXP0GAcKbJBwpkCgnznKaqUZJibRufvFR/T8X7yTvfFVOf+VTEtq0sIluI8eSztG4/JiF+CwkM3GW6TQNhpy6hyyaJsz2BOskn742bn3shnv7qN0kz/UdqapMvJPvSqrN+7iEoL5ASXU9sEgtg8tqjzEpYlr6zJ0lgZblwXTvfp6se1vcry7z2cjmeLz1AqkuU0kuagqBFxzUBJAeHiw5lh4sn/UN06acCSUNOsTG9toQ6/1CfrVXx89KTP+EbJBka8GLlgYcK2mzlngBCDe4ll2VK0MoQ851TWfqBPEyMh+SSZy5XuJeNZnmXirCZwBUe+TbzsuJRZvl0z8QXdVyloaY9oXxGVpF02XCz6Q4tkC7y8dh0rEO/fKRzIm7YOhEfvevWeP/uobhi/XDMY8RsBAvYhiEUsPOUWD1yH6lMzdkpWpG4813yaem0MheEpp6UhvyYwOzMxW42c/zp40/GQRrsEJKlodQPm6dIa9P9Xa3isMKCbSEcApkeg7Iu7cAx1p8VzO+gnGBkPmZiT/vF2HtyL3oBSLEAD66l69Hq3XdJ2ye5JQYkIdAwSdlxUU9OcZrO0nGVfKdOmE8r2pDZOI1kLnSCGF+ph6AETacfv/ZdX1056S6fl3PelCd6smSyrIs43PhL3PK7fEaaZVpKVJdIo7E3sTJ9+NSvY6HlFjAqD5eNAoYATVmufkvCtGYunfOT/6axxOP74rWkz5tMjr/4ydvz/+iP/OXXNa1zkyyZszo6CZg5LwMin6VfzpZ35ug0q7b0ZNsFTJlx/uUX/pVPzp+u1+MjAycyC9satpKJN+vaek7CMAHq2+lFOvaK8uVby8x701muTLrvvdeL77wvdVzKyGe1452Vkg/8qamsfu/5dHgrnw76uk5GyYvRGu8ldBRHli/pKCVQaCHLkGKSPqrWx/vS+Zta24CHEwlJYQTSoj3Ix+RACO6zS7Cdj2KzrT+/gPSeFbwM9hKQMAgdu/LKuO4v/ihi+/booc8xnm3KkiFs270VBv8duKuJnTS6Aw+RZBRu79NHHzW2bIgNn/1UbDpwJI796EfkhwE2q5AXnQ6EeQiQ5NkNB4t4HyEvw/Ajg3IrEbmdZaaFd8N2VaUK5+asLOwoQN53SQfSAP8EmwenvLJeLnd36QHSKkswlbRhUKWiqEorDHQcSgWcYlLPRQK1MpWe2OGyuiRcqYaEYwnlbFdUaZJdkGT3uNSrpn38ToAkWSRQkrStdO6z4l9eTHb4Z7tUEj/74aruK2YooZGG7HSr6yZTVQ1BDivwlhpMtmmUbHg8Tra1fbE5pg814tF/ei5++nQrPnHXNfGe6zRvIATBH9rdQzn9ZjZYZgzF1p3gqpK1Sk896qE1zL5Ai/OxY/umuO3Gq+PI489keXdpcBqGzHK0w+Rw5dIcJvCXxszvWc5GdY7HZ/l6jbcG2o/DncPxz3vuj7lxDBYuIU3U3DGvcrrHTk0Jl6Rl58d9dr5yDR3+DMUOL5luppEnnEt9eS3Txc/yuVwLRgpDLvfL+UvO7jOOdMZAGPUvt/a9GTEXmR4fkAbJe0mlfSWnMLeWIAwF/lG+RjMievOnYP4yNEI0DNPJWarN9FZxmN6MMc88TGc+TMVgnelf6bw788nKt5fvtZ1GSrzIXKkzz6U8SxkMvmwv39K6ACm3/UlYFjOH9J2rBakXzUWUbp3BBPct/CZg4KlSogQHtFc3lHYBjCyqKf8dZ10uJlc2wvcnqcsOU1jX/q//KuJ978ql9JoFaAKk3ISvIR8h3KQDEEji6gFmk+DTtRjzpITKO/s10tVkaX+HgefwHbvjhj//w+iiF3romWdjisVK83NzdIfsf4npbHoVBAnwOcppke+UIimHdgmT0jPLoUhtzX8tQSr9lEXroN0BJJyNL/RLOeNP5/2bxb2851+rOaMGUrmXnmHI0TcV43/yHYmRIysoqZHqVVcJSkpRZ3ZydoYAJDq+hlRFAxjCYpuNJ0FRBYyUKHkoSapB0JL2As52JuFlLknlzKc8sqGsdNKRaU0QVr0wHQWU+db3tgKasN+Tp5SY8WioQcfusmIapJuBLGG+oMHKsW89cjz2HZyOP/7YzfHBWyfZP0hwKNkTHv9ZBO6omO7M9FQPX9fJkNowheGxUZiN+1HNx7t274yfPPFrjEvSgJgaHKJRpu6YmQYgtZFqzGCJtreRuijZXY7bW/NsmgflHDeOxGRMsX+c+5TJGHODzwVoKY0UsuqOOk+phpr9FhaEtUT65SBlt3WuTZcHP8pjCDavszJJb1NAWoHAApp4yH2uDK+eS6+NvPZj6ZAH/nNOwM9TbjP+vLIwUkRu/OVwJ/uhtKnDK0ES9KBEqsl1D1PUhjXB+2GHwRkYJz41RgFygiZeeC+Dq/9MS/7lN9WHpmWA7jRggKYzPwZ+YeIaYLJXHdTpPFHgSSx13ur82s5p6fXjVYf8tsfVlkAWbU3LSVuFru30bUOl/AVDtBEaBnMMy4eASWVlVw6P0oZGrSsGnBvXs5vAqVmsZsNDh1tx6yc+HqOf+AgSfqe5mimFwStNtUiMcwBDGCps2/YGWd1KcZK2qoDVSRIAGv8wup7tBbb2GSPy3TfHrt/9VOz/f/8b9uxMO6AGnjCPgacR+J0zLYKiPn3fiMZWLQ84glK0tB1FuFwmO7Ss8Jl+5BnSeQ2S9CQ9mwQzOsi8EuIldXWPeUkTsarIrQRqQpCk4bgiPeJLni/RgVjJXtuhuXlq0gv+cioDsUBDKYZnvCkslDS0aZJABIJTekDvZu/F2aZEGHZMurRIema1JyMsb5d/TV+hkuVH57yQ7Jb1SPwkg/aHdEBpJVruMz3zaW04JV8o/C1xjDgqoV/M1W14XpxZjHWbtsVzx0/F57/+WLRG74x7bhrGKGaxRdTL/CCOFSMSbInvnEl77Q9pRC02E9USsCLZbnsmrtw4GtdevT0e3fM8eWlhFLCM1MQdxI79kG6cmmVJLDCjJkBrJIsh/Qz2p9R2P/dLGkOH62SbkRSgokAlJ9gAPEjBpC2oIiNXgiTtuBTbOpUXZQo9e/AgpedWk9yBe6VlDYdbZLQBHbl3WNIh/gswgbVYv9wrgM9A/dbgOGo6MK4Mk2c5zWeQpCcHCASYtqhgcCmVoNwVm6sP0aL8BdNKCnkolZUojKByxmPYeUhveV9e5p3v8mn1wQBPlsVbwWX7pjJL3XNHvjPvngvxvBWK4ZLlcZm2l+nc9mVbKJ26ZOhMhO1FqdGZh1NsQzFOm1LCkn4AQEsLndjCIKsDL936kffH1F/8YcSGdQyi+N4A3ViQbkPenWN0nmnkGI7IUXO5wRRJw0jgH31RGIeGk3ValG+OjmKk14TwbHIihn/74/8/e+/9Zclx3XnGe698tYNteKBpAIKEQAcREklRpIYcifJciuRKM9LMOfvDnLN/wf4nu3tm1sweHYkzuxpxRqI4JCUaCRK9AUjCu4ZpNNC+qss8W/v5fCOzuroBwrG6UU11VOXLzMjMiHtv3Lhx48aNiHL7oRfKA3/9NywDyAgEG9pO8VwRoRzSazULTbqqO9cOL7KIfSC2E4iU2jxUksQouSm3pGfuK1fzatL1LEl+HsL2ltzrokhLSs8wMX9tTK6ULE1h5Ln3MoStiYfMIqMYB1PomKzfSxflx+JLYnKCPe00KloIQBsm2cjMKhsqcqVBS5863/GueXoYm/zPRs4nbWjhtRGrGfqkxm59b/P9MLTvguHmC8CAQpTYJl/v3Q8tsPZgZWEE7iGm0rn5RcabadwHOGgz5HZ66fkyt3BleW51Uj739QfL9bvfVm65zKoPvggCdwTHjZs/GlZiX3/w27acLC2qPz2qdVdyBZlplIIp8jpw/TXlwaeeohLWfbQUNFEMeMchrZW1VSqnwsNQK524a+6W7meqnM9/tqB/zSzDrJd3LytXzFxZjq0dRSgoEKS/KzsDB8Ks58a7DLtG4UbwTRAaDmNNXCYC4MKPIiG8SJiwnmUVQQUlVI4UGWEpflReIolU6n1GCilwroGppaPx/nmfkJP3PiEWfvF5FqqD/8dONpAXotRXoa8C1iNNrV3S0eto0TUbvraBID0SNM161Hwz7MqDNp7HW0KFyW9/1mD6lqtV+Kzg/TlxtfzPRLZX7Tnfm6DByLMeJPY8/bSZVmy2Zh4wXgRL+/4Zjo5IOwveMzf1qr1vz+cJlVeV7Bn46+vtvbwsfDsARkBK3WxgeRFEPNfqklEGHrb83rQQ6jUoBFWNmaUezCDHM1TNu8p+q6ydoRm39LjxuvKmP0Q52r8vE2HiRummgqxD5GQh3TjO8IT19jyERoboZ5r0rfBk70btA7qdrtKuHFXxmbrm6nL1b/92OXL/Q+Xoo4/it8qG0TpeETAZRCFa10UC2k2Da53GVGmhU3pkCe8pRhyNifJHpnbckoqCwQsOyyCgcVsfenFxhx2hIEnfNCRQNYxuqaTRMZ5rGSEXPrdZI97KSQsVJYhC6rpYon46NNB+PrHRg1djbaKR85sNhph0nktpq3mbH61ZrEjmrNKEdUNFqQ7Z+RXhpYbYiI58yFkMKqyCuWldomGrSxJUeMNSftQkm2/ypR/73zRSJpJ/4LDCeaDUOTuNJcKJmy79fh/8wJshtvEGDoTEjZhJNj09Ux48tFS++tCx8qn37894+TRcO+b7CcNzUvAsANr8zz1D04rV2Q+EMNYPUwHOlAgbdcZJOdYi+yDjcuNlsyyi1inrOmpj1h1vHAcHbDZDhAxLLRw+cTiO0/s29lEmDBdSubUoTUdxgG6CuW0By9BkpSx2F8oNe28ojxx9oIxn1mErh/7IiDLRadvhtjhaowRpPUocylGGsSQG78pbXLQ6kURAG+FIwauHI0m51v9HHlWAuhv4KAougotJAzPTc2y9wcrSPXZ8UvL4PrRZaIZA5b0E8jNbrXDVhZLE4KnpjUUEFdYtLJsj/CJ8xsLxWLBQoqfps0JLh9g6WUC0wqHF1V6zvUDLL07ZXMdHzTpAXm15BpcKAb8vxQWbD1/+YsunytGg1cQlL0mfHOS1M/xm/QFUPjg7+RSV7/td8638aPnVw/fP+ejsJF7nXYUyH4c/uTcbZRQ8G3gFoVGe7cS0ZKtyq2Zb8YfW+bj9DlxBJjLDF8S9Pc4LLhWWV/fb0lL8xdWzsPILrIE5cca/MUE4QlcYzNriQSXM2arlcJm21KzLJp3hdZUeS8E6OgOKs7zIfgX1mndnSGuKCjVFp8/O3i6+Y0vK0tu3q7zz3366lJsPQIB5lBBoIolm/ZEGWNFDHGQALJD7VHCvtzFkdjJZhOzkLaLkP8UstSqghEfcmdVNB3rmrdeUd/zxp8sP/tf/s3QPHmRx5GFZ4mNBnKMNHdG+DhkFUF7Zxw8bixh4S6fKk7SX5odAAzsO3pWy0ECaBhTiK+9WWbKV93mUUHmmvdv55x2gIL1+Im2KVErHApItjLMQUlFkVv5TgYzjSG+cgvev+jQRn8olu1j0renSc30P9iH+7JBZQMmV+Caf5E1aYYJkTUVtnmWoRO71vvLvWQkG9gAqvDKYoHOm4YxJgvU27MZkJhpTF5KuWQu7Vi+EdfZPg7uHo+nynR8+Xj72nv1YlZjdxFDbNIpUBytK1sp4ifzPAuY136SGAp+w2AhPsD7vKrsXF9npnMWoQNnFLbtR9CyZXjl5eqUcWT1erlq4BkGTJjuVUXzq8ONrBuKnfkBxQzfzQLZdcXO54ukry/PMRgktrOQpd8tN4ZBSDMxG1ArPhz7MsxRMzYuoWGmSQX1F0m5+w7VuTPosqP45S+6t1xwot113W+msoTyiWC6PllmWgo0lJ+vMszvFvl1jrPVDDpRZBH0vygt8g/ncldRdMb7fH0W4aely/y99j3paT9lp3DWxepaBDpzgHPgAYWtoBVfYID9bn166vkSBi4cCVi+PraFVQWVtG/X4FPGW8tR/nysN9D+a5WyXbgaB63WXDvL8LJ0Y6zvVZ5FO1G7sK/p73vKJf1nKv3x/zZAqudOD8sLhQtZOLlMf/sXytucOlW/+7/9PuXJAR5U25Bgda90A5sCNaSuh4wilyqE1ZZimCDtrVRlSbiu561laanUbIZ8M3vs8wfaLv5+HcFErSBZAlBGLx8ZLpuaIDSlKkIoEDaBqscoFDYo1xN80wlxYVfTbsIi1IHnOP5VHLaWtVDw4K9hHMdT8mzN5td+br6Eddgv7CJ+BZ9ViVm8TZf5m6WMZjCPQRTFSu7dXQnExLGg3YeJQIqzrQFEsTLy+AZtrbetNzZdDJ4bl3oeXypXv2ZOpoGMqfg8LlOluMrIZ/8yBjKGb0GqVqBUIwTI3U/bu3l1eWFmhEmHCBS7HzjdcuAOhs0pjfvj00fLmBUzCwsWfgmuiLdvEtjFIdXuQ+qbdPHVTufXKW8uRgy9gbcwT8lNJ8g9Ds+VGQViuHoKyeRYm43Pms5SRN03gmcCfFa91CatOj7yvnt5X3nfVu8v7dt9ddu3ey7vMjMHqM8ASpCfUiJl1A9aHWhut4eC+Vta76+XE2vGyivVrqY8itX66rLGUwtKIIUKUXp3j16DjiGN4Gl+1NSxwwDRm78HTK6OyCx5W+G8NwibYFUap7t+lcIkCFycF7JtsDRHbRDik1vOAu62WVULB98ZRATJ7jcZdJ+x53p/njTnuF5C3C1rqWdNolplfMzjkjPFffdtHP1x2/cFvlgHWWVQrNqFV7p6T+VZAdtD1gA7aGP+j+V//cLntyUPl4F99ucwM1ssCs+4yq3htwL6adGAhnrJODOPLWMVZ08poKaodyIy6RApW/KGErZBCJVhbBn768xAubgWpKcC20Urx2IDRyGXMWVthagxxXqMIRWGipPPnM9ghTXMaN5QoKokqlmpEywN57dzSzvtEJj/TISvZJA2sn9aGtlqQfG569T1MOrEE5KPNH+GWx4AMRGrTzEPXscHysmGldZsUzavmIS68lQY9ig9VnQ1BN2iM3eqjO7273PO9R8pdt7+3XO6Gbs50YqimgWAz1225gGaZHSg84K0FaQbrxW6cBMUn0+gb9HtYu8YIF1czP3jsULnr6iGN+CzCrFHeGmLXqrYt0CURK7B+SFCmvOPGXygHl58uzyw9DT31VwNu4JXGmSEJDLUcgKK5lnDKQ9XewNb8VEXDOP58wXjOXjtbzREZl0FYYE2ut1xza7nl8gO80itr436UwWx5E5rp7LkL4dwpjE42gUzZcE+qVldyryelDy9PJn3SOI2ytIwyRVrwydrGKgrV8+UnD32rLA0erTzfJnXWWTiF2JNnrs4LY5yV6aWbSxS4IBRQemvXyJF6i0IU2Wu9rhYlOxJajdyACieAzcMht2neVVFiIDt17+q77izX/avfw+/oitJZZWIJjtB2SnZ842mTgeV5HreGVVwsZi/fV677158sp586VJa//12G9MEPE7ftha2gnXYneGhB0seSQeCIBQzf9TntpjYG/hNqC1RFh+KjKle2Sqb18yFSdnwZN2XxU08WiqG1INXiIY54C9J7/UriI6MVBqan7FP0sn8aB86+fKaxM02/9NdUbBbPDjVfGMi0WhjCRrVBS/4mQFxlM/OqSlOGdAKLz/OSF7VBg7OSrxxmHLA7dbTD2K9OeCpIDruYmhYxYc774VyVp0FZZ5bWxuye8uiTz5el5VL27qWnxKKY1Zp1Bs9ksA0/lUYVXoWSJlmVg3l2k56iZzJ0CE0cqGBd/ZSG+N8wpe65489TCWs1NA3/pJZpSPntCtJHmGZQUpawyFw3f115681vLc/9+Dny04IFDXMAo3TniOLQXkP38AwJCVXozY++DHmPb6MUeW86vFOfgUke9coVDCW+48Z3lavLDWXIZpL6jDmXWJ8F/a5c+XrkHoP8bTpAmlesW1xEWJs75nHymUWo7cZSuH/2Kp7M1WE3Fgh9as+j5cEffRvfgyUkvfYjv3lxqLEv/ezFb78RMVLxn3PYyWWzs8olnCK5uGiplnrMXfU3svb4pCpO2qvbwzEDrUuZ3p547chUHToh89TNPddfX+74XYbW3n5LOYbV9gqswMOlpTLN/mvMnefNnRtGdMQ3cB6fPj0pczMzDLXhhnHVZeXW3/94OfXUwbK0dIK2Yj0yWqfurAeFbHFWHouFYGXDw477SqM6yw1RGFraqZRuyuu207i1HHYuVV4bZBeNgmQxWACpAFxo5rPxoHXjmmbFtsiW1Rc2X6yXRqrDxBm7eeZJzdg30sjlo/qtpsQ8Spw51zt/a/NnWvWdVvkxJZ2QZR/U8lhU9Bfx/Qy3qRCh7Lion2zlkFkUJYb/YgXiS1dyVYlIGvxGCdJ5znia+K5OvM7AMx12jM5ZvGJNWqYnQKOLo/HsjPlgVVjcVx4+tFLefuNi2Ti1Vvoze6LrtTiQxWsOrTLoh9ItdOTXUUpH9B3K6rF73AzC5MB1rKrN7AlH9ycDhoNYYGOBqRU6KY+xdh07fao8u/p82b2wCz9H6WxV03EaGlWSv2b4XuoDqad/wVp3uUwzzd+K/aHdHyobN5byjUPfKMcHRyE5wgPlEu2DZQlQJh1uVUI4lMkCnU6lzawxnrmFypAJATpDm5orcqsYTVRidZxHKLnFSmgCXS6f31d+5dYPltsWbk/5zmPy1sE6ooUshgwrMmAGVDLwi4Ok8BAPw7TDxQy1KqKyMAH0mpull8gQ6wmGLZdWT5bdlHVX53nrRXikKnN+bxlmA1UeyIXSejo8xsNtI7yc4dEGMrGSBoc2vn3HZx6KI85+J9Cb39fvrCepq4GRmgce/p2J8xO/NY0LHwJxg4r9lRYDUatKL/UFVLRmC6LWanvqvmeooMsF8g7vmEhT5nnhgv+0GAiHss2zZSA+WIrh8SqrjL/wwVynsJBYz9L5g2bK0FpPoCPgWW9nqB8Ot1XK9pAwrntUZ3AhmVgBuy4b5BCb1qQF3t1N/e/u3Vtu+f3fKeXuX6aS9splZrixXKYWsbgwSUbsd3JQNjF+XyZYoZ0o4k4Tk7mF0v3Y+8qdWO+/9x/+jCHEjXIYROJ6DS3b3QAyMYWRi6BMG+XSIvLwDHIuUh+aK0OkQeUMWzU2xzU+AqdyS9tetOedTK+Xgm2nl/FZMFdFBvaPr5DVwMPiMU65KDoqTpyNCHa1Yciij8RlerSFzLXFq79PLWZf5ht69VFISMN86nU9c1PTTn40lGYgLHlPOBRyMCJM8koMEWGPPlDfp2FVYWKYxNl3rtGTfdU4G+cwm0NkG1vved+husT7bXO4QKZbr7h1xgBn3pMsbubq8/oppc0JlNv3YwVyOFMl1Wtp6J9iyjH8DhYjWwUX7XTD2glCP40FKOls/JNHmVHG34BhImcYtg1ektq2HwqE6tsG7DUoTPPll274YLlr/y+W/d396EHkvQtBSpHOwh+zSFfN7fZA3cZj7FpP0wiJaVbKncI/AUhnadB7LOG/waJsHZbcneaDGbphKjBaxvoohLtZnPLXbv1oec/ld4E/iQOKPlketXGEWtAvz1oAX/VZvDyQ3zid495dnjn8BI7xy7VxhT3aMrcRqeWT12XlzdC+sxlx6eISBS4WCjSMXKVOlT7VKduGm9YBvvdsX0f1Gw8EDuoo11GS+H4WWZ9ZbMSpIC1iecWuXG7+1Q+Uy373Y6XsQm7xXVbIJt7JO9s9keS8kNuGSLXFtgJ5pAqTtnF6scx+4hPlut/4tXJKGUWbMYvgm0XOeZ5rjpZG0syVtx2SbC1v8eEi1dCYlNN6kl9Vk9q24LxgdUETlWcujtAoP1XMq7zIpJQcReI17Jtru8xRhpwxZfF55tDHxMUWs92ISo3xNt58W31H6vcOARGR+NqKWPXOhHoN48kMpoNmbSsUhYiHQNXA4ZscYdIz3+fKb6KRw7AqOTbevJfePJ/XPIjyaqw1A9j10dHaZEtHEKpWEcw1UzeTtU7QDL9oXXP/wiPHltiD52ocEIHV0IBXb7bnN+Rv4JaKwt2DvgtzixhkKANw1frSdakBNtaloxKc1lGQHn7u0XL8zhPlqt5lVEIEE5XVZf63P1S6yRMQJxV9X2dv+ejNHyvX7b2m/NNj/1CeXH689FledsxO3F2cqp1dN4tk7OD0jJZUy9hLyyv8A07yj8NgWJNGSOOprBqOMMHf6cC1by53Xf/ecueeOzDZzyCUmXEGH/aZPWKgVPN3BtcWxjMxL3VVFXPfBQ6hgU20Xi2Vk+WJQ4/Qi2N2CrCbus9bfvJs+bT5es51+wLPLoVLFLiYKCDrKv8rX6d2x1pkQ65KYF3xqbXA99oG3pn51WLEkhg8c5PZOZ7v5hiw79qtd3+g3KT16PJdLFXCEJVy1aUzEB92jS+KAI7pcApsekFQAdk3QhZPYUm65Xd/pyw9c6ic/u4PmCzim0oUVZyqTtkyQbTaoeV7O7DVXUWqK3ekOl81bRxJh/bG2ZbZSl3s4aJRkNoqUJUhyV4Z3wKsz5pzlBu4WE6OjZVCJC5TzLnPTDU05Sg3NHJnrEX1vaSbgqdwSTtHCrpWilrkXGOhkRHS/HCpBYVWFSZqlSXyIqquxHwOm/i+Jk8VJdhR608ULRWgpMrznKngPNNHxmG7bHlCosIc5YjhHhUPoRi76CXP3Lm5O2Y6P5uTdvBzObG0Wth9giEv0oAk54NnhcCEpYUVTKGkn9Q8mzuqcMZ5XUXDdYYYfnNdpA4O564zdGz1RHnkyGPlsqvexXtWOGniebuDFbxa/azIKjkTNMg9OLO/cx++Qe+6uvz48I/K95++t5zsnCqrGysIDabmQ3sx6DrspoCAJ8YoRB7BmHKPkqTCBH8xF6Zctbi/vGP/28o7cQa/fvo6ykSzPjNfKI81hhZjpgI9rZ+yTfUzMr1Xh7dvyh+VVpX2pvbc0WfK4WNPwfqU/aA6pNt7PNt6xLf14+RWc2wikualn0sUuIgoADMrHuV/G3+PWJCoq9Zb4/PM97iqfjZ16aIoScSxpXlZ4DWtR27auvuWG8pbPvVbpdzxNqzcbP5NpyfBihPxxI8VN2nXRzvxVwi1dMU1ANi1WHeQaVN0VF0te/otB8qdn/5k+eaTT5WZpVMZpkxniw+rozYSjvfGfhtc3S0g1KRdqun5Qm21yIv2x+/r27VV2Il0eS0wXTQKUuVFqC+by6gJW85RahqWtZB4R0UiMb7vNeesDcO1Ckaml3PmTR6rVNX3behrHqZRG36z8wouaNL0GrYxLR/yG2UrZ26pQzJXtqvI860/jRJllOmpKHG0Pkvtm4HD/gpKUHR6TupSmdWmZYahNLceCYw+CCDgkWvMyEzjXFtnGjiPXI+nCpI29e0/S2aH2wxa8WbZwBYqUykFnEMlw3egZA/FaYPKusZ09keeeri856pfAFMVK7W47Q5SEkVGBYc8XErAQTD3lnSYcoZ1ow7MvKVccf3+cue1d5THTjxe7j/yUHl65Zlyeni6jFfwN2CckhG22jMClRkUXNcQwSbN8Bq2L9aZumLusnLblW8p77z6F8qNnRvZrmAxfKDztQp1X58gp/3LXxwKcwut/r16Bal+768FrnhS8cOX4CizU1gsdAafgxGbVnZcPRKI26BMT87Jt4WjTa1969L5EgUuHgpUnq7KT5Xk8nNVmpRFiZPvqQpKlihInjms/vFHQnB59n6Ouvy+38Ep+4PvKuwWWRaZCKEpfoJ1WBc51xdr66z57OygzANCF0JC7mxkcTTkAg1Ch/07h/Scp5mh9/ZP/Hb5zp9+Nu2PHrIjOn8qjyPWUeJthie1pjs0Kd1UfyotkXwa1eg82t20/avloLQ9I3V2NoVeCbo3XEFSE/UvaxRBYIlfh7yIU3nRyiMWNvrpCkt+S6Uemf7OkFJHB2XOY4bR3JLDhRE3uniKwNVTU0zm1JKR9KgKNs40xBNnEpGnh0NwabqtSVQr41rlKJYeXlOX4VThEdIoS8DD2b8Jw2GbDtk2pcA8Jl2HX2yaN1g92QY5WdpQiqxpwGDetIXhtHgZTo1c5iRRlCHBku2AywZXh+LAWgHrssfOBIWEqky8DoT4HlHlTyyRDmhOTeGOyNoeXegU6xMpbVuwjMQDC01ox29Pn6LhStkzDwwoaUN8fmYny8BFGbEhrAuMzfWniR+Vx44/W3586t7yK3vfDdZX8nWq6baBJ81UIsahHxaVQFkVMR2tdUbQf2eRPuTi+MZyE4tJvv+KD5Yj/WPludOHy7H+0XIai9LKhP3joK1T82f5m2OV8N3dPeXahWvZ2uX6sre7F4rDZyhi8sM6K5cbVBKRIiku+aeGykyWvPysnerVBjiX1A3QfcDCBcB/uDxR7nvmG8zUm5Tdqzhicp6wppL+bB35D6XQ2uUQX5R6eYe6l3T4kSa8IKvl7O12B2mSP+tLc7yWzGpHoH4rbN77dyatRG432K8rPWGzbgvbS+FYRZn+IY08k/gE37bX7z5btZ4as3NC0AGc4CdYbcQbAKKU0aKraAyN5V/4ekJnRqtszwPGnkYujTusacSL0wpSqtperNlTLMi6sJthffaP3I0QWKT3duOn/8dSfp/VsllMcRGfwg3qkIlYUyyraFnhulpeyfplf/wSLg2dUrr17XR6AY7Zxe4DqeIxdEFfl2Rh9WsXl7WtwOEREif3fKcykkr6KrK3boQu7Fxg0B8rWp7ZIpNT67Hy7/mjPyy/+NAz5Ttf/WrpLbBLw3iFlfiVF7aR0JOOrbNsjzMLblYXiIbi+pJ6aDmPH6q1O3GA7zW0tmzs+mm9snMceAKX14TA5M/ODK9eKl9I+DcJ2WSqsKFYMiSRoTOYSAHfXjdCP+90cCfrohChHHV7KEgoQ10UhwkK1YSGvKt/DucIH9tI0yHl6sRNwwYzUstyWGyNnOOKayJSnvxGOPuujJChMqAb0WBpqqHR18k6tYnKNWGRxiErJdsK9ZzhBMPFQcjUvIaRagWSnfy+5lUviUtjBpMHNlQgK44NXiqQjSXXjRUqqpVM60FwA0MtSDHiSMPQMo+27ceSaauwGIR8wKo1qIcSyshh6G3VcgjQTXOnBqgscXzulmMnT5YfPfpgecd7by37ymXpyZDgGxJ68goUxVuo3DB7U7ll9kDgEL8MhSKg6pAafBSsXWdd07NWIsvK1xWmCGe/IaIKhu1Dx5IVRpuG7gzbCTBs+ZMnf1xOnTwR/nNtEyR7hQ54ziVl5V3j+QuDbx9sl1K6RIELS4G2Fka8ImFUjGqj3HK+9VApr6uCDflMZBPGXy2/bEL75sWryurRE2XPR95Trvv4v0B72oXVeJl0mJWF0HeR29qJJZEqVtukXxlV3rfdUMxrbbEuTikQMMe40KsD4RsnThRM/WV6/zX1pZld3LMDwS42x2W9JcW/K+Wr2yWxF9XoVwbjZd/A5WHPv/tUufLk0fLMd39Y9rPA71EWqR2yN+WssHPwT+exQR+AuMxwm3LItsbnloQLlYBqcDXOIM4G6WBIM9Y+9D6xO/NnRypICu7ayuaqEhglCO2GeJQQlJ5N5ai5N65aRywvFvNSUSIZexg6/eqg7fcbrOJcrUlOz3YhdvNSceAdr81HjvQuZ9M4U4Q2lIa6OjfXUY4sZNQUmMrp276eRohewqyWLNJ2FeeOTsquAaSFqOkZVLUea5MV4Ew25pBDXDa3G1HpsutJOtYWlTA35e3EvwiWVWGKNiLbcnA9ZKhlgA8Se7AKVFLlahsDeMnxoZ7Kg0lDDc49lNEZLFcQJrQfMc3U9YZ0gHbdEXvJExygByD+0DMHy08OPFHuvvxyBJNsaRlc+DDA4uIwrH8amFdRbPVDSl/IAoIFhQzrM4G3VM65Us/woi1CfZbqFjDG52UutidoberakyM/S/rw5LnywBP3lXVW2laxGyPYMN9xKMZqaMAL+8hCWa2dc+VV3mkBbz+4dL5EgR1OAXm6SmrOMLJ87XR+p/orgKpEt7Yoy20HkDv0FHXInsKc4h5su+nUjk6slGvvuKPc/m//qJTrr8Y4v4bVHZlt53ZEPbLZkRavq47wEQqE9cxhqior6R8DbA8Xg7LcL8/8H39e9p9YLQv/y/9cxoszkZtlESWJUQFlj7W8dqCR3yJsOsKzTWEDjXLy1uvLOz/9P5Tu8dVy5PHH2aIKuYxss6/FwEjpA8cs7dmQo7Yi/EboAQTvGDw5262Vd94LrlLIr5SCxkmLiyXYEu28YOlzpHdrIeSoylEUIyqASodKUZ2ZxrBZhstoOGbZ5Z7d7R1ewmuEkkFH7y3QGPO92rqNC/FakPpUkigyVqgcViT7G54t2lqxoiWnaGX0yppRmixoh5Uaa81ksjuMnGmVDIF1aKCcmj9maM22ysUae1i1JkOVF5QI0sp0f5U3mzp7/ZscZF7ctIfKnTDY+8ABW8VPxclZcH7SjXKkFcOhPdPnALQBZmSdtLEoIyCkQYWfi20L0spUVSKsPBlgAr7pRkGKcsh1fJC0GvkuSp2H63SoSC3TY/r2kz8qN+zeX26YvhGZJP0vfJgKna3I9oTgFKyRIxQOxWw0EunOoek+NKYsxTxyrLKMsjlrJLVqkVTfziB/qt5LazYfKT859EB57sQzAISpXtM9POKwmlgAanjKxkPe4kngz5nrWMM4XwqXKHAxUkDFyPolf8d6RF10eEeWVhopmarEP3Pt7LUpBPL0Ost10IHt750vN38Gp+z3vBfNBbmNnKa2s9gqS3rwfdqhljikS+oJr6bWKAsmaEauD8cIFXUQuQewuhYssCJ3+crXy+gr95T+8VNleMvVZe8f/wH7MuJIveBwPRIonWKyqw0Dst2au71BeTJgCHL+w+8vNz/xdDn8H59l1l6/9CM8qoLTJ1PlzTyypZXN7VIHWtZ9VZlZZZ7tmtecjYdgabsAO89bAjZonHO7vcj9jKnJBzsytEwQBUYIYeoYSm2Mbeg5osTknrftyXOttWR2fm95+9vvKNddfzM9fYY/YDKtFZaim6bGIds0GfqqaVgJTJPGO/bEplLwvtXKht9ClEEMwlbh457SD1twmTWWfCcKSmWWAQ3osWPHy3PPPVfWlpfKOrMiqiKBmpAWy1bVaoiyA6O1KdesmrQq9+WR7+SIWKjXUdrIM5zIh/HJaM4uoKZBQbQqzP5ys42hKo2VZlLMChGsoGkdYoOKZGvvTkHh7tGABBj2SsAbQTWmQX/o0OPl0SsfLVfftB+PJU1eFz5oIpZCFk1KnQuVDfGqWlCt5KnwFUnexmrjc6WBb0IAeaVWLlKJcNs+XFxjyY1v7ZIuj5fKQ08/yD5tSwhgfN7gf5cnmNJvgnsh2hoqhJUDZCtZIeetL126vkSBi4QC1ktnEKd1UARyX7sO1WLhkNq0cgZed3hfHzyH/qdoD/bQqZ5dmGNl6V8vi7/1K2W8isWG9iE+CVQKFSsnYmzQqMQFA5ooOe2jGuLTUy9/6q+v+l5VElQYlA8sRrmKn9FPHiuP/fl/LYuszD2cH5ZTf/GFsvfa68r8734kG1hPY49R2ujz6OKLuhK5FlMq9TZapaXR/DoGg6l+2fN7Hym3HXq6HPzy37OlUZ0Ba2fe9oMNAIBGStN0gseQ7+yeMyBAfMVTmee1LVpmdvOy8iVSVSJcZOGCKkg21tViUzmsXtvKSEQJL1E5Q3htiVFktCkmDuLmVRUZLUd1qKxO2+eeoZwOfkfTrNI8YVjko7/83vKxD1yBI60OYxQazDWJc3OD8jY3WkGiYYCALy5Eyii2ZQ89daJ87qs/Kv/4w2fKyirTLFdWcagFlmZIB/YCPvo+KAxd4lTerFUsXUgKjf7tuE4SRbHD7qnjbXW+hTBOSbfmairCyWdmzMrapodF7bFnV8tb74A+cLkgVsgC8c/8kx4RYLHQbBQDV5medBfJ6xROkcsM5+M4TnmxbCXKJ/AOKF+G2pg4RiOP4soCiyOGDGeYabG2tF7+9uC3y43Xv6Xc3Lse8TATa5PrTGu6nWJpADCLeRpXQmJUQsl4G4N2ugRI6ZUCoFWMasy5mflWqn8tmy2Pm5S2xGzPJdQqpztL4L5e7nnsK+XR5+6PUJ9CGe8yJCCLjPrQXLNlr49hCcWJldVdcFR+hJIIPIeXuUvdAnQFt+ApzdrzzyTQTKdJKwlCI+qcybcyIJ2T9p10YFSba8fH4UkArl8CR2iZ8YUqL2raVRmvgsE6QOLIGIfStzWIhgBY/bz2IGi1MDiCbGjvxS+hOSv3aqeliedhbWQtjTo0FHHE446mSc+8Y0Pu5JUUAz+umJ8b8WyBSEYNILnezp82H9O382b5VTldWYP4AH6+8n9lXCbQwhXH9Reahl52dF0+RN8ZyywdM0iKqx6OyeyJyIjCqLNerkcoD3DO3P+BXypX/Zs/xriNzEIRsZxqTaBc/FicLZMmpFxeK7rAOMGSP8PIxoQ818lnYXmtHPyPf1qmnniUtmtIfZ4uc2wP9Nhf/Kfy5jftL7ve+fY6y4wJRh3kfscJJsp/ZqJVCIVkm0KQcniMGXv7euWmf/3psvzEU2X8kwfLErN0V4UX+BdpV1zqxLL3sPuVITg7uYBih9J1ksbwuzPeTNbn+mO2HU/LqfJ+bYuCS1tftqBjOeyEcKbkdwI0LwNDK0yr8KlgZwwU4vosTC1DS+wtBG8L82WS3sZHCDOyj8UAga8lQfuTDP6Wmy4r/+5PPlQ+9fH3s/YYjVOP/aNnGA5EfXP4z9Wus2Eq32eUBKasVq+fzihNs1EZFuZUXfA3Q2x85pfOMtBRGzaNsCX5bQ6yuEetEPHeUbm18eVwKYUIeWuFxAFPa4jGMo/RgApFwz5hgY1xH2vb88fL3993T3lh/ALNOKXKM/p5fASdKPYOvjVQK8m82D6yzajt0OQmLBcw25spjyw9Xu7D96i/dhrlWLrSOESxoDHQygSVrBeq2NaYDKdZX/zbUke8v2DhdQu+n14PLhjsryKjKEKvE8cXffs603kVYP7cvBIrRSN/Iv65zr6vAU5qAABAAElEQVSPnOV7rUDKkTjvsK7HmFlpu2GlEbS94r3vLG/5rd8o5bLLov9F3kYp2mbyIOhm2FVA30AX+13A5HLqv3yh9B89SNuAjyhycYoO4hQd5v7Bw+W5P//rUp45WqbxRxrFl5AZzppwDLy73fXVNgMoAhsr3ZZy4Jbyjj/5TJm+9mpm+o3KXrJVOV+jnZW2GhymgEM/UpdHcD9JuyRayrRGxfJGfFqARt4of7bCLTbtweWODVXT2LHgnQEsTTCFo8oRBSi9BYoAk+lZilKrLG3K/IaxziR13q7gjegAFn2m76IkaQOaYvBZ5+w9cNbH7r6lfPiX7kRBYn80Gn6b/4JDudYeVybNpqn0yrJidrqkLRvRAqaXbS+npqu2UYflPKOjG5+jKknc0JtiaUackJS1tY5tEmbb6FAFU60Apm7ja0XybwarntYAh9I3XBXc/YA4xjhnj/E/0pq0wfVoDdiZ2ba2tFa++eB3WNn6m+V4OcZaSog5uuiuBaUOoP8Vb0M7sd9+XMxip4cN9oZ7vjxXvvv498rhk4ewGiHcMDqylDc0pk7QbetpmYyJnJoDsaqSZLkgpiBbyqml3wUiozxouW0qAt68hpBeJYkkHdPyYgeFrdBs4hiMXx2Q7fftt+39q/v6n+tbKkR2/ypPe46nKUye7UV4poLkRgMOWC0QuQu+mdvPmmef+WQp776zrK+upV50UV7s7G13GGvJRS6nzjlp5+vfKIf/+kulc/RYRhdOk+GY9uw0Q3kLwLn0zXvL4L9/nYvjsRhVf1cw05ma03ZDKFyOLAqjk3qyQNwvvae8/bd+vezesxeFblL2zWBdYsmcGTq/rm43C321QedorrUaZa0kzo7TSHcPFaX8mdGWEDzOidvyeEdcyk8XR6AQMjWfhjfWEO/TMqvVIv4xq9eD4oDooTslUIXNhUIRNkBLUouOXw6Kgf4/OiHPs9N6D0vO9XRW7rrz1rJ3775YdtySQwuYY9+BGeBr777lHNmorRLtNapCGgp1fxsMTZuNbxKNYvVT8gkVjzx1NpQi8H/O/m5nsALUw5LxGnyoGq6infWoMGejv6GsoeRwjOlB6SvjEiMbLunqkBvmb5d37THc1meH6W8/+N3yzUPfK8v8uTSI9VccgkKu2hzz4J/Nj2Xq+krfevzb5d4Hvl8mOLdPs+HkGBN4Zq+xqJ29Ps3c2cAT4ebQqvyiopQDOlpJVOhrZWl57fyTUV5tQ+XQ9u4VzqKQP98zDSPOpPUKX1+gx7UutgqOmb4mEHn57G93Gn4XiIyvOht4urIy53SdkTmuHYfViAfTHvC6Zze13ceO9rMw/WRqutz6m79Ruu+6k1acRh/LkhMuxuvQW3+IbQyWYJaZ4cLOSTl4sDz2n/+C2WJH2MNxqqxoNULpWGF7o2WsSWMWd52sni6P/7cvlvL9+1OXNW+pGLl2XMVyGwFsktJlQ7GgUjlycWEWkrzsD36vXHf3e8sA2kzTyb6M4UlWWMNtpcOKcZz5gO5vlCQVIubfVXpzLf2V0P5lZXNgr/fbD/v5TPHiUZBChSrUncGVphjFCFMMihJoJM54L+vZ6wioCyRnagNUlSPZIy0QCzOuoQz0aaiclu/mszffuKdcf+2VvIHpFI50Mb/K+nwFrDJVmAmmSgg6qgYi0gjRqArGtYfNB1YYjy2C1iUFhgxT+elrEtbJ+FX+xLJVhVX9AgwoA/96ztAj7yxtgA7kZrUbCiEOZ7H1JQ4Kk4rSECVpuMbsEiwhR08eK1++7+vlO0fZJ4hFL1GronRqP7IvVtWjM+X8KiH9OXhto3z12Xuwsn2rrK2cZrFNaLCKYKUBGOFn1GH2SRc/hyF0HlcHAbVkDgtB/jkTUkZb6sqZJ+fnqlWOtvLna8pJ8Lfw9tnYvKaULsjLFd/XB2VLqwsC6EWcSSsBPCNF0gGw32x3Uxnhmkg2+rP4OjKeH3H5jl/91XLFb36MOf51nSHfX0NBmV7YA39td5MIVAyfdZV5x06Up/7ss6Xc/wBDfINyGmVohfymGBpfYQHamdmZcmy4WgZsILtx8FB5+rMOtR2h04hU53M73g6l285sa7CnxGrC+kZ12Hjb4bzs3nDFnvLmz3yi3HjXu1kLqlsW6GG7hpRWI4fZ2iE2rUQZaoP+dmTrZsHAKv05qmJka3BOMNtzonba7XZzw8vilzVjtgjkCErIBlvXQ4JR+hlXRlOIL4/Kj1aW/PkMgsPRUYJshJ2to59LDooNp7aJU+ktlnxKOqQlg3m0BVLXlXhZcF/7w6ohBRfVFvMVM4fbpnHCc90l597vWSjlyn1zDB9xD6wdnffoSbjuhspe9i/TsRlm1EjZ+vDUfd1IE0aNOdhxK00xrMDadVhlSB5aYTZoJLHUFBQLVyVfpQF1OSJ7V5BgewNp0r8JYV1BWttRiphKtoeF2HaR8XiFISAX0cTSwYC7/uSAjYLk9AeO4To+RfgidRlq66TBZ/hxfaEcOXGsfO4Hny9/f+Q7OAoyw4TXZ/yGZGjyGWjz9+cjVL4Ef4SlQ4oqAvoFqPC6zID7wvn3nePfLl/9x8+Xk0cOZUryAL+tkR7vzEKZYshSGo84pphy0oXWznqZDFAudfSkTGaoS9NUDLhqk4f0i2jr0yY1f1ZtWiawPsiG1IOx+ERBtivArL8grDKv0gyMDsNuHltkAi/4aqzHwL7BRIsJwtwV8pUf1rMRvd8Nhl6zD4St3XYHG5AgAs+mjsvvdcEQu/bW0RHCxU1AnWQxph5kcIE671tjvo8ksKETnwZEz5WPwUE68J0Nk/RxXX0naPSz+RXNDi9n5iLPIQLwbC+e0lJZET4g9R6yyC15MgOYe2ETxzGW6iEdOicATOBJ93zc7lmaZPeqQ2sdVei43+YMHeYF5OoG1phpBIYzOafg/T0Kj9VhufHO95QrP/O7pVx7ObRWeXJfMp0d6MipQIWjXjn78J1FIHN642EZcnK8yrbG9d1GaGdD5TRO1qe//IXy1Ff+Lp2ZNXh9fcACwihKay4Js1bKqcEK6w3hZkB9HOIcffze+8rJ//SXpTx/IkrLEGtX2oBtLvsATrnOYckHIJbJgW7AsaoWdPtbGIr8TFlYuBw/qXjMZv0o96+bpeM1Dd/MgG8vS9hIfyxLKINamTLchtJVl2KAoykjrXlOuHGpgGpTkmA1RB8gvVi+28g3+GxN2wHh9VX2+hW/uXi5NKqQvWCICkoDTtqJc0HjPlGbP1tf2HptOqlyZ0C3QsKcaRpgpraG1mG1WkuzPg/PNhAMXmu9seYm3lp8XgJwn5N0xb3BR3iAQ6FEXayHjtlUOvcNG9OIj3KwRcf6WhmuMvV/ZVKOv3Ci/NOPv1G+d+T75QS71btGiUoEv/Ra7K/8/ARLVaWiNlQOUjrzEIUGvwXN8w+cvr/87X1fLCv91SiV0kwHd2mo9rGhlRLNo5a7Zc7R0N2zh6XRcpjlk7s2YjtJqSJxTqggaDENKICD4qCWAERVOBoP/ILqt5tJGNcePkCJ8B1+onDkuqZzBjvfO7+BZiQZbMIsfxOTe8/8OaunvqSS1DzLhTh779HQob03HR7kmR9vls/mRZI83z+VPxqYk1mFq81Xe/XOCVFB5SRmf/VRjpQQKEB2COxkr47LlW8+UG77jQ+X7o3XIGtQWpqgVQYDEnQGn1dJYhtO1zUyqK+qt3qE7RmO0mLkBuFOzZ91Bto3f1ge/cLfly6dweNYaZZQnKIUU1/X+G4ZBa6vUkwiGvy1aI1RRO//KtPt/+EbZILCRUe4M4tqYgXazgDOrs1EtQoCnqZQlBaYcTzW/PaLt5c7Pv3b5fLZPfhwAyNil02MMDrhpI08Vkli+0eWbIGOJBMdHuaxm+BfzmEmyqghsWR+laTeTkxfc1oOHV4KO54CcF7b4HCGx7j1THw0DhnPGt4cvsD9mF5Ul8rp1iQqSUbXj704/8E6YY804JB/tmEJ3MZYm+hdUDEzktigaOWfiiM2Vre1WZSn9XL/8AE2jWUvtDvXy/uv+QC9wUX8lFaxHtKrxvL28xAUFimhRmooVLQ2xrcMWj28/HD5wnf/pjz4wgOls8qb+mxhJVJ/1no4RkHy3YnO+uEDrSo8dF8Xz9A/monEokxiKVA5Mb8ILx9sdwjHbSYahUY+pHvtUKtDrA37Jk6FoCo8Kgz1s/puBd13fW4Ps1WyYO0qkH0/3zQE3Mz1/F1sko18q0IjbsAHTMELHNMpCDKWZz0oNeDnXesGrVG+IY0MP4tjDvEMQucPgVdIua27Wv9U9DbRgNCWgw1p9NtXSOdCPA4bA5NycZp9zMYoExv45c3aiFMOXTadvfWjHyndD91VVrHNMrO+9OZo6fkQI0dE5wYmD0oleL0izBaN5Q4RYONUo6yLRKdUvyaDPoE9V+J+4fly77//0zJ85Jks7XJMmYd2pEjXeoXhHLcCE0OewRM94voAtUj5T7GA5IOf+3x551vfVHa/63Yms6yjpGDa0alzm4KouBWXcsQgDSKTUeYYAmAocq5c9unfKTc9frgcuedrOLmDI1synYpjKTJcmkOBGc4sJkJnrhErJCeP1LIxHr43A4NZ+WCHB+G/FHYsBeQiDmvSZuCahhARFaGs1KrXMHMYlgZSZUmBhoLkSttIM5KgUfS4gFyZBsQfYFTAOpVfK8eGVg9NuQwP6Xu0wdDQhAOZxlR/jCE4S044RitMi2XoyNltTz33VPnid75UvvjIl5i/dSh72umC9vMU4thPafqHeouwWSvrvbXy7WPfKv/1m58rDz/9SBmdhk7ueQydHKp0yHLC5r9jFKZxn/LmegPL0oY95MaqxNgIOlIVyLJS26PbLJ/zTsSISBotYEVCtspRFAJ4UnkLi+RsI5Fr7quyBDV8xo+LuObdpNFYy7bEpbXm+wsaGthaS604Cm/rJB8lh1a0WonEo8VPJani7PsUOfcqfrVe+90brSDZSgJNAxdnrwHWs39t+VxQem/JrHIVvN0wBZRFujE8xcKzbCTGUhj4/kBHt/i44/c+Xvbc/R76HAgNhmens+eiopWH0t/oyMbXwD+8iu4VJaAus0E6WquwuvRxfejNsSco1XDps/+1nHr4YRQhhtmAdUwHxwkqK8jpJRShFT7DWFTW4Q2fL/PRKnCtcO/stpNPPlUe/lN8lw4dyb5wkelb6PCzXtomdEVE/KUFYeD42K750lkBMCxJZe/ucu2f/F7Zx9T/OeTLIrw7g1zRHykO2byi5VsFb5o0pLlypj1qh6w2ZU1O0L7e1xx35u8lBWlnlssWqBqOpeJTjTgUTQZ/EVVaB1LJVYoaJYlK5nR/Q2XGqhalYUzshfmxAbbXIKR1eA3BgJLUKkrobxkiGqEwuR7SUH+adZYlwFF7SOXrs6v1WP+pFaQXezc+e+TZ8oV7/6b81b1/VZ7sP4kKUXG8MNic71wooxSsPigsq4kf2XJnufzDs18vf/nt/4/tRH5c1vHlmjm2UDbwVxi7flRopmM7viDQUMVzQ0uSipHDq3HO5myjm9a4ck6LyYXVJVQMOBDEFRSwBJxqYZGFm/vNM1Dybn3H534L7zRH4vm+baTPxqzF8MKcLa8z8AMTMFr9WpK3z1IRGpCMA6uKn3jwfnwNN6/F2ZetwRc+BDpaB89wT+pa4rivcRUmn+2EUKlUVZxZZqnNYsXBhooiMii3vuXN5Zrf/EgZ7L8cucLQUQefT+RSlR/AT8UbYigxDUeaXnXg3by/5Rt91Oy+zqpwrKDkfOXb5ckvfQWirZelzqAcRzPqo0SdIr9VXhnZaUDWncIavsqXqyhRq6ShPxvzU8tRrh2yOvRP3ykrKFoIAQy+WzJ81cC+zIvigSx2sV/z0ro1gwI31PoVP9lphv2g7TveUn7lf/qjMn/TVbFw6cy9AJ5zHCpEoR+wxYLkjYcnzioatgWJbt4VjeaVvLcTf6ot8AJBVoWCBGvJ0p4rAJsEMxriSb3wgvd+03yXdIzjheroJfl9bCQfIm2iESN0WqtJfYJAMhnTfgOLxuxRZyLcbeMr2whTDUSBBW+BTxo2BW4e8YvU1OktzuxI4Y6NIOhvTNwUV2uRWgfzCnivN4PSwcaLXfY/s76OsQH77bYGCJp+ggTeEqwMIrk4gzM676ziV9QRNsqmVZZSXER5zlCbJl66YtV7ADFDrRvbHbFxpNJO0/Nbn6yWb/34W+Xo6aPl/QfeX+6+9pdwDGTFbcuchGZwjHUrDhVEezP+ifEbpUxJbkmj6B7TI297qSqr+hgoprsoufLx9ATBzYbH7IJUnhg+Wb739L3lnh/+Y1k+eQLfBRJBcRwxy0WfLa1DHc4dpvV7nWFU0tGXoG5NwLVOtsg4N2hWCMtL0shJAC7xllXYUyGAUCJtZxCWmPjkDi1YKHRI3wHDhiN5AL61uAfw9gAr55Dy4pJy09oCTpa5TTN8XK0u8ELeMQ4li3gX+3O7g3UbmVBZBKw9Unybg0lyJGUBdeiaRq0LvG6n42jEgGvYFDzxLwEmR1scsGmVuuDX1nfKAfDP4EfK8gbFxHfiRnqkMaTVkm4xRXiiDiS09Rh6ujZYgmX5GoJSJfxouhw2vJQC12ROmUxpqeawnKJQaPYAt8kGlhG+rMrpa8hwm18FLGq66ohyj/KA3wfTrv+1WvZRLzbW+uWKAzeX/b//G6wQzeav0BxqATq+PIyLTdGSSzKi6+wwUnq1QfnrJJwuu4BT7KlzTpyBLcqAXXB7jrf95L7y5P/9f5VjTNun3+e2k5l2MaLz47X0M8jjYyehwDD6QsFWrJHPBdalaWT3FPXbtYju/9rXyh23X1vmP/5x6g9SUgsfCA1YOHaO2dIAQWqsks93rhUXBstYWbJ5+R9wEeSwlQAAU4c8uyyBMKGuukVLiPXRD5d3PfdCOfG//Xt2aUB64czfxVfUnHXsnmMSjZMunF4yzb3tjlY8ToQ2g1yRnPy3s8MFV5DOKEeVMVsCVQIS19AxjPsStLMA6ztcUIhWaTgjCkG95rZhPN9LE9l+8xLpvXFRws4fQp+Wq8IsU4pTjoqHOOQ9mawlDnGZvUEjpFIUpg4dFBRUDIfWYk0SOxtE02jSSYzx2xkCWJOgOUF1gQUtnSStPDaIlk+sGWk5EC42eFEQEG5IFrciic+MQk+Bh4KkMqUPRKxfVFLbguX+6fLw4w+XEyePl0deeKS87613l9sWb8WlmY1l2QHbispEp1BEaFSe6q7YDYgX8DSicOTQzNoIH1pm4o1Q0SSd0Xt8jSiz8dQKbuiny/2nHir/eP83y8NPPcTCmcsoR3zjkCMWojVX42UYzan8HUzdWWhLa5Epmpe4I+mUlWPzQdjVtaeIg97WB1vD1ItcSwzjpNQ2huBKekmW3CjDKA00TBliI15FwMY37ACRuK2vc07jwVk+ikLEQ+N8h+LMoSIyJj2owHdy2XkKkIdszwlEyuPAZMMxAo7M8rIKBi8aL+LPqd71dVKT4vK1dTd4867vO8QmPaSRfR+K+ZxQ8RQe03hdQbD50ONM0eeOe84ckTUAryySf4WVGskj6qkU55mKr3/Nl6Z2gQM5A0eG7wM3MHFvn0pH7X1XXF7e8aEPlJm33kJdqJwvgCo0ysRce8/h5xV3Y185+Hm+4ez0ez/n5KozZcZOy+Gj5bH/xmzTQ89gFUKJQXb1ga3PR6wyxB/8wvvhkcAizWvnsG6TAl2JtxPgen8dFoMbHzlWDv7ll8rbrr+ldN71TgqFvBlKn2N7LVKq71FYOohvWO+RAxn64+nLhtBOPJq3hIfDbpSKZ0urMC/xV33kV8o7n3yyfP9vv1ROnsac7XCl/MD3Q/LVKGE5+J1x8lKy8JqkwSiRoNZGNBnvvNMFVZB+NvStnJR+Dk4hNj9eKGFUFtrn51NY/mxIbH5tdW2VIfklShFMzhX/nttr2In7VEEf+Z1vcW1NlxFtDVUoMtXZypop0EyHRth2HIePIJcX65+pXLgg/BUHlSN7IypLClqdij0rghUOG9Rmh4a0inVoGaaQdLF60Ip27ZnwrGvvjCmw/aV+OTg8WA6tPVueOvFkec+N7y7vvund5cbZm1A66EU5NZ50pukBzXfnEUqaYC58cEn+KhRo+LiopapVRUdScKf8Zukl2n27f3R/ueeB75YfPHIfyt/R0kMB6qEYDXDGxt+UYUgoBRoqRg6laUGyFVVZhnJRjsZIpCgeoCplRwgsN2YZ0jV1hluVSC0dzr1v47f7LAXo0wKrbUd7OIzgFPhW8UkjDEgqPuFv4FewRkFOPO/DA0MIOYQfpsHHc9ZtIZ34f2w36ElPOjXBfJQvRtk7F36VGUw+DhlHUWKZBtgvCk4UwOAgXoqqmlbqM/dZgoQ0VK6kS/2+0kjlaMRPviBbagO8lIxbaLbtnA4NeUQhbVIFpFiyhtRbrX6Wg7LJegs2lJH2GxCVJG9AMNueHUGgyHIDwDXDrRbrqV2L5Zb3vbvsY0Xo9cXZLFvg+2mstwNg+UByUN+U4wZnySuDZ46vl5W/vaf85Mt/X+bQElapf876ioLEu1qPhpyVBZZu8zlXKEgA2CdtF2J0BpxWdzf47mAh2gVuR37wSJn9yy+WA1deWcot17M5O/lpVaRujVg1xgbdTqT1Rm7Z7kB1K1Nvvanc9oefKCcffaYsYyUbIKdth2Zg9tUZOl90bLXQCYFdsdodk/bSKrUnZ9/wfieHi0dBkpDhJEueRtRKqlKgxcRr4pBU9Z3t54ttLUPBs/elsKuKAjiAS5gFPKIQbTlXRcrqVBFL1VJ6qVQ4rGbFdLgGgY11lRsj8OLF/tplHSKsoE3aF54w6YFSbvEfodWI43iW0a5lJkQKfn9V6NKKqAi1LYvKL69KmzQuPhNHcHOD2x5O3AdPPVGeO/JceejYI+X2G99Rbrvy9nL9zPVsrsjy+AiOtf4ySpWLerwRIVITIYefEDi6AsgUq4VPsVksl+UUNqNHVh8sTy0dLPfc/0/l0OFnS//0Sma1bDCkNsCJfR2H9pHrGmFJmsYnawQNomRmPCaESdoTFEwtSGPOcFMUI6fkurjmEKVq5LhNw0OblKhMt3m7/RfgT/5iPgAP1/UZqOCgRGAQi0Kg4qBS1FpNZAOLPbDCIA6XJ45zFAhaInXDIekNoc+U+AY18rFabD8SL52imaHkUXWjEKkUuQaVlrJqUap4RWEFIc8OIRrSVeHzM7hzDW2CV9KBRk4FV0sKbiqN56PJa1GTaqRPA90eZmudcy0k1z4aMZxnYxcLElw1ZpbAKDMFUlhtQhfwrCRUxUBB4k95Om3doCBueOcd5aYP3lXG7HupIu6wfRpozv5zw8/PADefOwtxjDCC/ZKSe5Jp2S33/qh8/68+z0jeejnBLrl9+IGVo1B86jFAtg+4dsidT/Mtt8g4rS5sosuxjmyfh98XhJ2XllmjaTI3y3Aaed7zrbL/+uvKwr/5/TJeZFgepuki5KeoJC6h5qKOVgQnsAZXTtsVsl8c1rnZW28rd3/qU+WF5eWy+txBFDp4XxyA1SE1h+tU9mBlQFBJsq3zqtI8RbBdQJ3HdC4iBUkubA+JTEXgXvmeGTowarUwIYSk/kUQ2p6HVpKq5NmsKQQVpLXCb7Us+b4splk29svQw8ogaagNKEvVh8PF9Nh6gnSnIJCVzgrogLCk8fJ8h/RIycR8YzkCFjdmjM9U28BThuMMBYo3plyUmQ2G2jJsiFTY0FaOcNmg0bF3PoXlSH14hDml10cZpAGZRvGZ3pjFB2RQ7lv+UXnwsQfLTTfcVO645e3l9v0oSrM3sEH1ZVL0fKP8kumPKBPIjoBmX7rQnwanu1pObjxfnll9tjzw/MPlB4//sDz+zJNMPWYhuDUEIU7XNpYdfIf6TufHitTjrMPpGvs1KYm6aQjgG8pdM3aG1xBMmtVVFsaUuyrZGOuUQ21DGg2HflI5LkQFURjSAESZlw8o4SgOUQK4hhZaTKqCUGGWr70PmE1xWbfFR6UY9gBd+J8GYIRyGAsLcTqQOgyXOpFylsu3OzQAmax5tXWK6NbHSJi0bgmX1VFYW3zyDpXB+myTEYqIK+lEMaQh1MKWIUMawSFIj1AEs8ZVg1M+Nf/zEACj4tSkbXk5LKX1cYSc8ag+YPBhOqQ2fdRH3nij6paUHDs0z6EFqWddgBeuveHGcusv31W6113FLDHcj5APwpwJLWGN/DSYvr6T0tmycwsTQyQrVbM8+GT57p/953L04GPIr6lyQidA3Aykn1akdQ6nwvehmkodLJBDGsICyIjq4O0CyAPrLd/tYQhtTN0fgZ/fdpdPlB98/gvlrptuKPMf/dWkhBkaxRD3ApjETlJ8cMOn5rCNAaJP4eMa5+1f/2D5xReeKcc++9nSX1nKek7212272iBdlAKhkI01j8JqiQnLta/uyPMFVZDanklLCSt8XYW1IaCk5DKVNUQN20hxImd5l0YxH1sKdI19h8JIgcA8WlEyVxzG6FBhXI5iQg8T/mzSdbUGGIzP2nHjFpY8MEWeGXJq6lEbV5/U381x2S2Rzaf12+Z383FbJ0EONHC+czVgHQoZw6UpM0ctKLUR85YPOKoSSMoAYfrpRZoAd1qfOjQ0xo9pTCVcj/sugnrSwQrhPsz46/Q6uPwlTxWR+n6L0xawSKWlvbHmn6gX/zTx7WNEBfTkjjy4ShklH+ievebwmenRGo7p6WRT3drSUV6OxFNjUoZVyHUQdpadCoB6Y3rdVirutZpMMcTWdQqqjSLbBwywQ4+XWWLNWSs4DQ6G/fIo/knPPPdU+c7u75YD172p3HLFgfL2y28r+xYvK4v8ZZ84+Cf1WJgRRBkqAGGdl4N7fsXQpqJSqf5WcmQpfuOp9Io6u05S1vKx153NenFIcHbHlHHks9Q9HaXoGYYFf/LsT9hF4Oly5IUjFFGf4TR4n2n6drk6CCA3jeyz5olDix1m9014ljg0xSl8ZbNcgkonSGQICjjSGEOX0A1o+KwM2e+pD+0nOBK7QXBHJwnAzho8qUMAZtlB29S7/Ii3uFVcpcGLwtao+mHSab7k2yzdjkJL2YOPCoM+ZiNxYywgO5ujLLntTFbSRiHIFHn4d7MOSFlg8NsReXSwuunEOqQCD4nsA/PsmP217DH7EiH4SYA2BDZuWnjbe8/NN+2rOaduNTHSxTpIfjaGqKk8mHZwlGgtKzqvkoxyB7oPnFUIfrEe8V0MfMRXJUnZRjoVTOAET9KQL+QX1yybqMxyPeIbrX0qfkM6Azq420Ow0WRcVWIAFz4pwNOhRXI4I0WVH0BscQzOLeINTp7Ea+tZIicF47mGBibBmoBYLMCL/MVVvDawfqp6d2nqtSYNcS5WEU6Ad62DSco4kzVAtokFB7LZcqPG/vTfgMfHJguNkhBDxZZhhwkG1pFc4z7gxtd9lP9ZhnYAtszNz5d3fOwjZe7AjSy2SGnJG5YXZdiI1PgoBkGQtFQTko+k8b6Jq0/4bXDavK/vUeUJKInkk8kv1Ndnv/Dl8vT3f1g2sBydpG5CHZQjypfMMQLT14GefNWHptmcnOskw7PKC6ZNqpS9JJRHRFhnbYexnJSwwvXqc4fL7r/823LnDW9idtktZb2/znAesovXx9JKmLkOOtydHUzz7OAXW4NvpJN77gN4wEkJE5Sxsnu6XPPb/6Lc+ugjZfkb/1Sm15ehOfjqI8mQYGsAMF076bEg5WzixtZgPrVdO3Nun73R5wuuIJ2N8NYShDgQbZNuXNj0aFnwN6WdX9mJxpKj9UlyOfk0rDS4fWda6Hk/w3fwy4BVTYcsroOu36TPd3B0x3HbNMZtFak5p7A2gRBaoXhxqBXp7PhpOLwnEn7Bf6CkImy+CyMY+mz657j+Wl8lBmUAITeU4cCjOldXRcLx5yh/crlApEXnwjqvUDM94qyocyMFFiLLWobwHLDMa5chKH2Qptl+BZ7FEgN8CFlfMb0KDUlRGfXvqRWiEbZWW3uKPyW0OAnaFLPIVHQ26OZr/VH5XB+yR/XMLAJ0DQGyinA4hTIojhibo8gq+B38ETDx5qySAV0sc32S7FmL5waNZyZpgKu+EFMqDWxdYqPeRUBOsCVPHLCnXF0zyW7W2sp6OXTq2XL02JHyw7kflC/vWSw3XXtzueXqA+WGvTeUa+avKbtYcNK/Gf7cpiWWvGkaKs0VQOEfqTXyuKVWJcgGDYOC19iW7tJRxWi6x4xCnqxRJsc3TpYXOkfKIXpaB59/vDx79CkcG49jGVqj18UyBmu8iVMCOmGGZ/TRGsGzTuF36u1oHXrRSI0R/q40nmvaSGmi1VC6xzSvMKUw7Kn2ODTfC3+f77o0qiMaiBHWpy40d8qxi+cJPzcgQF2ARxI20ST+XOkqMXzuuXmWOptGqD40z4QB5Y910GVn1Gq6DDGOmG0zgAf7GTZEmaUcRxxayyjWJKnVU4Wi0p8TNEUmwxfr4EnBjnfBEih7zbdrDDuKX18Gd8gNPpqatQVtAx8LWgAxrsJn1bHRfnHt9nl9JwLDT63XYQnKIuWOskIjsaGCCe+vjxfLUn+W8qZeg4uKRBzI+UZrkkp+lEBoHtyAx22X0GzAC/x4T0VkhkUNs7wFmpXDI9PQaUgd6vQsG0oaYrPOPLNTrW/2zC19ytcZrJSlin4jYnifQD7n4pfvwhumCJ7ShmPC5AYqLjThoGyxZ5EvU9Kpq30W3VIZG4JvrNfyGHWtO57DynFGmGwwdB6ZTNwG9dJlC+ogEnUZWjshYXMWXgD8KT/CLQ9TAbT6VJ7il1Wbne0aZx/k2EYXfnJBSMp/wDD6LnTy23/5XWX6rdeVZTydnR06QzoDeik9FHblUiwrLXtILBWQRjmSHCl5ol4pZNIHysAqism8U+FPni6Dv7unPPl3/wBvDssqHWCtpHMolEfBXWuuM7tUkrQMRXoAm9htVjOeyeuwNhJJvgMe8FylnrsprJ1h/nlpWHbT433h3nvL4c//Tblm/yfL3FX7arnxQk/ZoAwDvw75vyhsZrj1ydlIvyQdiJTnqxM2VjGH/ffuL+//5L8qg+Nr5fDXvli6bKHVnZlnwi38yF8bkrqJesHZMk0e+RFU6YAsbM7td2/0+SWo90aD1OQfilLQzVlttA4jWegS3kaUw7EXK2TDPDY08/MIKqZWriztz/RHx5/T2FI6fmkvxHKZgvmsIxYXNTkBns2tN01Z2gGqN56bYMNwbrARN0RkAK/fxYcQIZjE6g8VB+E3jyUD4WcDKD6uOdGj4mQMCUWiE2UCKSlAOYSmoUeI4rscqdyacAGI77tRaqx+9FT6J8uey69gTFq/FXtTCDjoFUWAN0Q0n0GEaYSzkEuPkNxn0aTy4uaPlrM8b1ACIio1DSDvKlapmcBF5S77UAIQj5gxdqOwrtATHqsECp9lZkOtAqjCpB+DhCIdnRxVmhT2kQacogzwmdNO3Y9qA+Hg5yoQTl93GQOH4zooFXopdulNTrOcv4AOyHPAHkynl0+XYy8cLT+evY99hRbKrsVd5ZorritX7rqqXLVnf7l84Yqya2ZXuaoLvYC+/uErxJVcY3VWwKYXxNl9nxTe6VkDf5/NlJYmS+X44ESOIytHGJ9/oRzDHH6E2XarjNUP6GFmBV1JwJCZi2Qq7CXHCCuPCzyqqKoIuY2IZFEx0sCowjTJUCMUJ8oy9LCJ9NBKqk9Pxv/lJ0rMqbnrDNd1WO5hRYWii3IxvQvYme1HA28j59ToOhMSoAhZgiEFLI6VJ/KAH6ClbIiD53xFuqT8Ya7UI1/gLYVcp7ebBpUtH+iE9LCSrqzP0ZiwAjp77Y0cLgCfAWU3iMUFGgC7w0uytEdYnPSsuybewVI0HKIYoJD0XKYgDj/Ao5LCtPNJj41GuwtY62w4q1hrlXih7qUhVwgHcPAUP+ENsl5wKQJBIrfpwuceLIUBaBy6ZP93gIXVZMIpfHHgg2Xq2gC+HI7mOShP6W05qwBxjpOzMso8OIRNmSSbi4pBHy3rF3oJdRaoUQaO9JZZPHCJBY3XKXceaJlD0TAZ652NkJtgT2MZrJ2zJEUeW/BqojwZS02sZWShkRC/6QSIu3tBxtpCA99jn8geNB30l+A9hzVV5qyz4m5HyOEilBOHkSwzvh/Dx1MoDi7RESDhMQqn+tyRT+UyLl4mCJYdDS0V8nbS8Yq0nfmZRDjJRwOLGiWZHMsNt7653PzL7ylLc3wHPWZwwJvh/SH8oL+UEKpUujRD3BWUVZRn5WKfkq/0OId06TieCy/fqggPWI17QavWd+8vX/sPf1pOHHu+LC1OsQSSJaM1ER9IrpBy8TtyiI1iznWGV7kP3Skvh4llSd0ilILa6mw6IDv1FPzBGTUvw+aufD0ZLJf7vvSlsnDdlWXPJ38n1mIt4NMIgg7C0aHHdIjOhf0l7utITn1ANgmVM5obT8ChISL0lweAaTCP68B73lre9YlfLwcPPV4efPLxcmwB+SyT2C7L50lC/GpRpjkkE253fKiSZIeBKVH9g5ehomcuqJjZowpqK6wUeg7RhOW5t0Hzg0l3bzk1vKr8l6+y8vJ3j1HZZVSlDYIFaWSvQmuSPZk+w09J24wUoKSTQgw9zMNDIf0SwRfPCTRFCC0ik4iA0itkWfiprN5KQ5R41oqgMX3+yR+hgQM/lb5Hi6CPSiQp2j+1OQIn6Yhj8iJOpjN5FZeApliQLjzDohKje09p67AL73Z2l+NLo/K5r91fvv7jwzSW9rZw6sO0lkZMnKlo7TCWQreay01csaFQOTts1fBbuHQQ7IzcIBhYlfjU5Dl6dV026DmNUvD4CXtwe3jnMEIcGNxTqLEiZXiCFj8WJMUCQj8LoYWOJEVtclZEZrDFasIDiWwckkOLihsl0omOAmVhkXUUDknaY3rsFL4As5S/nNC3V8xaKSdnl8rjTz6JtQELGwr17MJsmVdxmlpgOJ/r2fmyML+QKbQzWIRa5UjhanC1onV61qtsMLnC4m1rbH2yjlPm2upqWT3Njtzrgyg5UwjpOYEDD5W7AZaOWIcUHhSVyp+WHRWhDo1q9lZDwPmOCz+qFEGWnHMtDZBRFm+UCWBRcGp5cPSsiwVA/UCe7aE82JHUebuvhQBL6nj1CWiM4id9xwuUC+l7bWLnhpg7iPS5gVcbraI2MIkDL8p/8x3jDFHAnDko8M60AZcBSg6KX/bew9+qTyOrMiHsOlyPUDCqUmECimcyhCmrNBA5nsM/WiKnLHcMSo4mzLELene0xMp732U69GE2/mSGj7ydZBrg1UJFVSZPPD/potc8NiMjW5oXxNcAz8QyMmZLU6wBGa+Gyex4IGCAhcZ8cAWdnd0Ms9FoQ2qVnShJKkq8ppJU65n5gxPkNk2VCuWZV9MMHfd4X8U2+GFZ3L/3RhZKJYHTB/G1O0YiIgFtqGc2pKalghhtOp0Molq4g2qDL9EG71Cvcl1/oBM4zNgKQ//ULWB1uuTp0w9xsYQCv46swmpHvPVRnpWfbXxHLNC1yCrLIICIRXFtlFOVT/kyoWUt7tMJbKJ/6qmpY1FMogDzJlm2abcNdI+ZaqoeneFaefOtN5R33X0nTsu8ylQ2t1iSb2AROJA6jtVRMRl/VdsAceCfQqA++GYNKY/mevO0yRObMXzGd2yDtM9xyCefKPd+4b+Xpw89XSaLOGXzmkPiLrFxnGXvx9S3WJAo7z50q75FKg4qEhWMiHhgUv+zhVKOphj4xnPaPJ6FfflI2o7Ia+3Yc+WBL32l3H399WX2vXeU9Xm6dDIXZZOhV9ZpelUBufui8BJ4rzMy4azRKWTZBrw6oGOttWvfe99Z3v/hXyvH/t9T5fBwGdzt5gontAW5lAbXLaGld3u8KN8dFNE5cOCAcF6Q8FKaOCyRvNMwI9SitVIwMsQGEr9j1xhm0KRtr6BDBXR8c4Nhqg3iFMQdGrQuazH0iLdnPz3NEulTl5VVx6YXqby826GBVEvu0IDYC3WR9I1mzxwe1nxpVnpYOwxWlGTsk3Bvojd/MuNq865eTEYrMAOtswxKKxaxhzDPkJKtGg1CnAXpcY3WVjHNIvDXT8NoazSMDiEgJnlHBUIG99DZujKVaVqRLS5gCl2A2zM0GbIgI2oJQpsKgvLQQZB37VVP7aLRYDZXltZ3iX0WTAPPDhJMekrnmlZznUpBmaSBkQZnh1gYhCH/5AN8090VhqjmiepDV5UfMNfZGN+nVI7VlTI/XCrLCN34ILlPhsOeVmLxpdGLgFfYIRigCriQgUWvVONMRpxpFG1EoNuUXWzuHYvo6n+E1ahLfEfHbYSE39jb17rk+13jCPZA47RO+rMMVZhucOKcHanpEcV6BeoWO/8NL/r1GXr0nEEXqxnfN6ySaftReMnDRgEFZ4A5fAB+6h/2D6WNXULH6bUU0WqmZ2zvuIMipW9ONqFtLEi+G0UKJcLeuWxUBX3tHaIaptFR0UEPpCzgbMp/AXrQXjFsw0wYfLX2Qo9r9y+V62+4ClhcWuBUWaBh7fKubZr0tH52EeoKaYs/NCb90F70CWQjIhHsIi6NtARFJodFEYoK8D5WTdJbV9HD+nNq/UR55OBUOb0+XdawmvbXFuAH/IjAcyidGgUpTsrgaG9aRdmG1v7FFA3eDIot+xyUBSxguylz688M5TrH+lG33DgpN1yzWGkM/2RWD4hozVB/m4U46RyZHvHyV4ZrUsJNAQY1cQJ+y54fh3piIVEXokE4RV5jOwM0ZmMsI8PJFWX5xLPlocfwDRnuZfiQZT5h5z4WF3RkztQKy846EfoAAHxAyuHtHoWJfk/ZUWZMQrDM5rD4zTNENIe/3eLGifL2264tC4u85wZiNGRzvDdFOavkTjUysIfC1sP6Wuu1ZUg+onVOcPjM5S/ED7DA0Y4mQ/JYel18UJ9NWBZY6W5N7SmHnlorJ4/Q2A32wK84C9MR2xgga4fIlf4uyuKy8oFdHyo3XfMm3qcOkWmPdBxOqv4zLLVBPnYBtUxt5aVzQDtzq4LEYedWfqtKLenC032WkVe5mcXyeOzw4fLws19nb8Lny437d5UrrljAWkPHhEoyTblNI5vgQuo/eCGbsyBryt8SIG0Slw9ykE8CPJv6fAaaeiWjbwkjmHJNuQONT59aLvc/8nCsRsukr4K0Dm+vQ4/TqAZCoYKk35FT/SFvDvt5kAZc+eegBHgTXgAGWjLKFxy4d0B1lvKc56C1YzHcqhzP0VbtwhJ9DcuYvPnaG8pll18Gzd0kl2+gke2PM1rPDS9qh8k78ooXxVL8FVPyqF+fRQ9eEG7fm6Y+DIHpxHi1zNHB7OAa8OiTz5Z7TjxfngLG087gA18d0rWgubQBXWEOeA849c0yH3nRUDvcZ8419o397Rw4cKAB7/wD8qKCkSgwQgKEVmzJupsS2jiOthG3IVdRUinKgULUUfmhh+86EV38bcYqDIyBdjEN9+mO6rRnHj18LLLgFq2BipWrC3epOMJUrSY1n56tBe/LXjwIaDLKmbBZmmeimufufxVn4kY5smVT2Zk4XOa1Sg/PMtuAXpmSaMTO7PaqdLh2CCqWlAyDNe+qRJB+ZR4Ft5BBI2kTeoAvcMaKo/k9tCCOCjzBWtRDIaI64ZaENUGTObSZ+B3f2yPbTEO6EedReyvi36IYaqQSxycq8PDMWs31eMgqsCPKZINdhTbYE0RciXOIJe8jkLtuLmtXOnRQAntAF89tHFVHBck4z5JfkKIRqAwhYHs05M5em6JVibKrr5VxKkEqSKCh1HKYLTTxmmOaVlK5m/d4VmWwDSjlTSbyngrjWAuc+UpT40MG8uZ/kxxkUXtGVTFQguhs7HPXcdIZOVYw6QQ6+tikG4jQilXIlgnJ4MKPvFobThtjlmNOw4tZJcoT37mFiN86k69uIQIcIUXlGRUk+2qwMsqRShJWS45ZaIRhDPxQmFAEd00t0pgeK7PzNMKaxWdQWlE0plCgZqDhAt9Ip570kk6hNQgR0pCYqTTitKlAyIcQch2+z0wslQZwU0EajBjGo/E9vYqtDUuIxomltV1cIyjxvxqu99hgHUUJS5JT9VWyVI60ILXDULUcKHMVHYCaBrbOHI64lNkCuM3gdxZcaIEXZ4ZlHp5wYdKFeZ32oQf8MA0dekh/z1onq7JFOqRpRwIEghc/CbGQEBW/IZVXcBkxC2oD/yLLYhnb4WiIggTbujXOaYaR8XgDN3yRiNfnUWft+FmBq35W6LXBLT5EaW1suig3GCYKkrBSfnOWBUPFsxzM6I7jscrQ4pwMcBpFl8E9OjpzWC2iCMOrUwzxdXm/C44qgg6L1gMcSV/sEpoLYdBqB2rwGuXCoTI0cI0tysLRMkfyJiggy8sANdmFcuRUcjeO5hkHvTH8j1BG6RTNOOmBeziNcoOvsFhMa2mj0xoZQyHakQAyGvkZ3qLeWrCE+ptLq1BCeAvauJhiGJ9rZYhD732GavmNrHQ40U7FAGVyho5YD7mzjhI+bb3nfQY7eU/LH5Y+0JhBpjpkpbVIuqsg2alwckmga+izWd8rOKGfMCnqVGDqa9CKKxVnG/0B5bHKhyP4MktyUBCryO11N5Ykfg38VQac3t9HzmdknXtnCVIMSdvsTF1J5NCVipCTO2AJ8IM/uJ9DHkVR4i2VJgZBIw+1CM7x7i6/QwlLm8Zzlx2YSb0NGKm75tPS3+sE4dBSR6iKUT07EQL2iOiKvOP5MkP2Or/3lcewpamtIvpP0o6lAwBkx4HTtZscjm19r1zWQCVJBcnPaunWa1uX2r5Ji6YgTHoHBLWBNzRAf0jmT8t8MjcUh2g+SPnyo3KTXiXvWQFUJDpp5SA1pUoZE3QERJhpC6bCzKM0xVLhGLFRMddSHHxvEXX04rZ6IFTseflnD824lslSePZ8KpQVHq6zKnGirSqk5zUMFf8eYMvzRiHSUlItQlpLSF/HQg8bUvJ1mwi/00G3g7KQNZ6EEVzjexWmgQbEhV7AGKsWedrLTXWn8aAKJl5LhIw2RVdi4iw5FMIeuOqfYkOr47bKAC0idOXsNUztkSrqOVJE0WFo8ONpzU9iEi18XPSi2NmYID3BVRx02MzsLZW9DG+QppLXKsI7saqJN+9RlUiLg3sbjpQNcVp7LP/wgHkBThREBE5IS8NOQghrBAWXjnh0bORpGPWXaHQfKiupOruG73vEd2gMTEuFa4yjp2UQp0vj+F4iVzr7y3Vlrly3PyG7NDBI19CDa84WXbbT8CWPoAeXUL51eEJU+QZYnNnn4oei3xmg7vBOtgWhkZUUWo0cVpHuDjN6lkXNTnCFlJj0PGO5oeFwxoyfy0czCjKItcqQ4qzDAdBoQ/8nGjHZn/YljaQzyKSJClXoDtFVJkIm6GM+ksGySIPBfQQidXCk5YvvHSpTB66zsBw+0zI0VdbgOdc9GjApQYWhj9Rd4+MhVhaPODWDk+s7Cbv4JDPL3Dpu3hBDBWeKrTfkEZ2aJZrKob3fNdIf0zjO0qJ0UL5U9KYZ+nLjc1lcPFV4bSCjBJJFhr5DSelYaSpOKTLO8WvkrPUnvmbkOUAZCJ7g0BcX4oYoCipLzjJcx7I4pAxV+KKIAJe8mlW2BTm4gJH1HRhU4sVVGTJKR4kaKKGJVpkR2xXSmp3Bfwt+rQoctKVc+9QPp1xrWFIJUKlN2fGt1bdlW7IlY3nUfKQzaYuXNAMP8Wx9poYosyMVWp4xMAru4IHlNwtWYjkbg5/+hm6rgaoFXqezzEZvos2DNYdIX31oZNlw0cOVAU+gwKMtwZJUCeCVMwB6DWCRpKlIAEe5RjEiHbhC6kS+gAXX3BG/gYI4xnqx6pg6sKARCxFp24ZQzuZDmQ+UR9DDCQycGqUIpRkChU7kGcsyMGzSLHBYBoBGpGwI2ayKpO4Z7Ol0kzL0gUbEWee1zmX7HN5SsqlAaTkSA6oB71s/VbobfPlOvLlN5ipsVUkQC3GtSpR5Wn7yhPQdwMeUTonu3HwrfPra6WGr7q8oW1eGGs93wZU76b818Ii8G/4QLu5F37mK4pfDeI41LLHeewOb8I6r+wMpEwlG8iQfTsPwqTMkTEsVPMggOCq/teyHrsb434DTKkeeX0rmboX5Ql2/4QpSKHQOttEr4chYjyCvxKUW5+SrMknMrnCKDbrSBDoT6CPQ09hgtoyWEVdm5m2+s7JxxPJEYTZKgRpuFCGYKlYkzqZlRvWefK0cTerCWvMRHNLzjsL0LwoLFSH5eTY/3gEYzogN328Ou59xTrbB9BlKQh2G8z3e51vfr0NuVimzMe2aV/C1JpOPIOc5adngh9ukj3Db3QtKfAfzhgak41TdaopHhEinVkGSjjSGViEkBocpN+m3uJpPe92eVYzE12fiA87Bo8ENKUbexvlefXbmDDzim0O6eYAH2VeUgVvUbTyIUzlQG4oCp7RSaRA3KqkzPlSQVDByZpgxcXwX5RN8HBtPo2RaoueZb7JarTSjofFBnoUPuA+FPZ8JmwoqICRY4wnCqhBQkrZnlSKHtTyfdQDnmNYqio8SkwZdxUlLkfGVLH5nun6bxLkhD38IKXvOCt0MRxqXYrOO8Co1nBRTnoKl8FGZ0dJjo+hihFov+tBAxUFF0aLXwpIhqYYWsoKHZWM64lYFNmmRvIeKjn5EUZbIw4bYZZu0IKnQrNN1duVrh52Md8ZXYKEeV9QoH9IRM1JPXuJiA55I4kVKOCJueTcPhAdFKAoi+VKYwUE/HiYlYlUiT567cJ3KR8vaDr+1wTwNFTfTgieEBbrXGWlViRDmutZRxSkWMXAZgCPGI57xnDzFU/yz9hP4mV5oVrMBfmAkM/NwyIjSMnfyBxLoL7PbaZqibo4AWLTIOhZCdWZxEv4pLX/U+1hDSCK48b0NfmUAMYNanLwKfpxjOaK8WjxVbO3HxEoE7FbdAcOfE/EArxGK7IQL+bcLfePfAm0cIlch1o/SJt2jB8NGiUKGo6oSh9+YZ4CLvG2w1a+vDS0/17PAyvTWIRSjtpkmLooSZyjXHA7g8G5UFFQS4KlweOYQFtJRfsZaBP/YbEsvmwekH+9BL8pHXgutiDPUBrspNx5afuZkXWtzFIohadXhI2gGhJAr0/mFDDISZw2E9yv0ifMb2dejlkvNU+lbg5SQy6VBfUcZ6JXtn63CCB5BUqAoiT11l8dRjkgCkQhu9UxWXMtxspbnmkdy9JKL0J2z+YEe91IJPLkWh5baLlMA2+S+WoVq3ipNsRCFNg2dfI/7lm66uGwp8rBnhYQMdmjYOQpSU1CVTmGLFFxVkiw5isgKyaXtuZwluxjaT7MWRQqYJwwfWblivXFYTSsSJgZnuFRfJtgE5SCaalpeEvVMSI8hbETKqRg1pzSKAkCoJ5lJNvYeRqByAiR3HJsKjsqPShLPcuYZcEVBIi4rSzeWlygQSiYP0ohSBM467NXKWvMmJ/LjUNFTSZQgCllM5aIQmOxtKlHRKLo6lpqXyhA+O/odqCDF+YRrHHc4VJSIR/iJs4xcc+PWi/zUmHopHuJKEF7hIQ9nyUX5UenTf0oLktKXKoVjSt6Nosa71bLGO34rvsJIOafxI6tUMzKLEUGaEiPYoAmINDAOn9jwaEKw1uKnorJjVtKhKkz1WhIroLNPGZJEBUCccuabqhCQM2mLO//8KDRz5d1ZQWdP//LPB6EJb0gS6W/jVpUa3hF17ykjlSFRiRJnPGUUa5Lp0aJqefRZyk60GNYxr0iqJm0TIKYBsuZX6wRwIBljk+ObCfQJd/rQMgUunfdnVGRo+LJdB+9M2cBaPaCZTt42vtUaUbPIGiahhfcC0YAjHsSobKXHCH5Bj/hsB0I+GT6D9ipPKkZZQdt7rznXoTm+51uSifAXt8DNvUFYZNPUS8OnsQAAKSJJREFUS+CuvAkkPM97wsBH3tcGH3xA2anyjpjqr6P7kkOFUQDBRZwc3pJCya8pZkkdSwsXsa6YLnTTOhDrmLQjXYfgVIYcmhqi2Ko4OayWlY6DN9+Qtzh5ZPkCM0qQr2zG+Wtw8NFUmJZnfFcty8IIDsBpDbIBqtur1Hqg1Wia8rLMZPtW+VPRBT0R9keEKp2CC/BwH1o15RYLkrSz/GLRA15xcNiNAjUu/nXgSbWO8mNHJZZ4KlYWaFTW0jzrbaO1OhMEkKFVRdL/C1WJgvOoSpKQCV8N4i+UqTucpY0hypHyEgpEDnIGovrcNsGlHzyHQlCJd8PPxLUKkk299JOPLG+VBfnYxg+JAGzC4rmhVejFQ2Bt4fBLeducrH2gH56r5QKUICCUURp4T6XI4TTYlVWxSYfnfhtFCj6UX+Vn4wxkmaJSiUOkRdERS0COoqPqac5SGXtcyrDCApako8Ll0BytHjSuVqR8S3okR5y4qhxxn8zMNShWCCBCrQnC0uDIueJZz+LNmrXEUQd4Jq7Bmby1jjk+AMuETvKqliJhrCVmWV58QR55gwMUpWApFs4cFG61lnBWY6YQUsQ88p1ooalkPoP8VGQZuaZg68Y7NLRp/B1DUK224U6Nhp1RkPRV8jt7WTJplAVYhwuhSH6ykvfJlTSNbSDxkmd5kvjkmVcaeG0lG6UhFiKFhzCoLAhzWlHueSfDT76LoMnQlLD7Pu8lXTOzdjX5BwY1BvJXyEm6gGKNk368m8YSmijokWZEqSQJm7SFdcVT3KSDSpZVh48245OiqZrvmd/k433oYXr12uqkZhDlKLgAe4PPRInqwfM4n3tW4MWq5HtWN+KCN+kIP3h4WO6hOpIp1hEAsLESTRU/e1JO81bgakFSkkgah65ETwUpePOdilNQpuWsShFxvFOLWV5A0CBRJBkJVppK3NzWc27anwb3kEie44vAJczgoLVHWMVHeCzyzSE20E68ZAPuDJvwno0Rp5yVoCpUVWsgfy5rB7IKbSmjcmLgTXMPLrknX5WdZG++ROYwOfhe5Uh/Hp26bXyr5chrGjDi05BwzX8ajfAY1zmbHwkLZxQJrlWGvNeAaCNiucT/nPhYUyh+rR5ea1FRMVNxitXC9zmiRCRNv695mE8aLYH//9s7E2Q3ciSJWtt0H6Tuf8Axm97mPQ+ASzKlpqqoqp/Vji8SQCAQi2PJIDJJQfMilNNCMabNWD5zkfbo1jcMyP9hhV95QNvgAb6/EgjqT06R4tsEH+K1E+KXT8ijYrCVcdNGfFJH7niqj1eCQHybkzJ9ooyRc3K0eIMN+ESGI4Vg5zc2eAruxdAU3fql8+a8+1NfjqzfEvwbdB92NijiR+Tjk345jnPqty70jhl0X3RdafByciNibEFxTsZwVNv0M3XGSD8NlvJtQ+mzPTEf6Q/dzyM+azlfsmAS0TknNXkqhnYuiX7bMxdk8nnuiHf2Gs3KN0LJnz584LAXYF+mmWMTAmS/yP49e0e+6OKlG735EJbLtKGDL4II7JvgyLAil/OMu4GByOY2K3w5UUJd5jktc9IU9XDx5/iDYV7gr6T8mjgsWoYFCRQMEpyb0swNDgwe/M0jy39n4bBbTTtjL89+psc9IlY5JyiLWfZtZGe9QfOUy+ue3vjskacyfgjyZQDmT7y4iycApe4PmRoE6pe32pSp37nNBh/Fe6KsfyhNQdxt9pXTH/NV1ofcdoPHNoMkpjzBkbZMObfXxQrl+/RIWfrpfhVd1J0HDBOUr52+QIAkQEJoeoTLaTM0B3eGbSB1Mc7mTDsDMeW5QOWikov+ljmTK1cXgqNZVAy5F8S1Gc3Rr1PM5aXeFUBogUYgamzZdmgXZAY9jZGzWV202Lku+AZIBjtzK42dxjZfTjt4PEkyMOJKufpAz8JHdnjHcypTx5BMNXS7gEza4eJyETnz9q9r24VGMhHkMw3BRE6s8N1bafmNDHJ/F2p+1dXyLKdZnbnsRodaYwm+ziLSBxXwnt0fv+OzvrCVGAQlWKKeAAlefE2f8OknL5dJdmjkIjtjveyWl5Bh+vAef11ZdtVXRapLmxc984EdMgERQeE8kwFQXvgR4Ffec1qUXRH/7MfQ51Otc8kgCZLK1PeIgORbio1TA2Js0fYMTvxw6DwNynzMRcgyNMr5qnEuvkMzmBJTNxc6pU8ulOCinBiUXPnykFE0wZEN0Lpl8RNVTTLNWAkYY04/v9UiBv8kcDBYyrMrYOlXy/McBlgkh6asYOCcQpZQmccUFOaWFhSDhwkgDPbohXKfw9CfCRrYLK0zFeYWFHSnhVMlfZGpT/TTGws7UEiQuZQHCwxy6DzhCAjIld9nQrTHi7sXSMd4vsFmAGGwBI2+BhXOg13GnackbrEpAcQqq0LslM0rD3CjLydIXKHy8wR8hN4nRk7vBBkLi7k44OOYqgE5hZlLnvKWCQKArWgLngwT68gvV4iPGM54JajFfU/6eCQrPuVLDYxM5jZtzutbACKejqaiI53TK/0B/4wdcmMbEWdOAh0XaPkSAYzeZkvwHqeQS5tmugRRFWzMmWFcnNHkhxbaJkhiXmGMYVJuu9FD3qw3MJw0a27mqhRkYJBr3/d8qMyil899xVBk2nwuDU/WC6cYKGLh2DK32vQcnPADL3gZIHHKQg8QdbYl4Fu7HlMKDl6mnFhRnF70pp9DtQMHAyNPSQx4/kHO0k6o5mmOJ0i+JoDR1mmzb6yHIC2vTGzLWgdlwWLAFoo5tGVV+idYw3olqyP/D1xyAyTGB9meGnkqqYwETORiIeUxqTN3P272TKvcIhuk8cl5zNQILUGhuqkbHE14ai4m9hs/c4qEHQ71jPLo1u8rpD88QNqT8REsB3emjpNiBtX32TxpYaC82mQTcE0weDnuZZPP7SI+yeQ/hWSR5SLN6UhuR3m04mJNR2cTJ0yO3F4U5Gv5qjh0F7Kb9XFApWgGAm65p0YuQgMkTEpuEJQLZa6OGmsDh5H5hgUXcBcuNDcBT5Rc4NYj2WwtnhC0Lk3Trmx/LFNj/fkD8VH3PAvkxqpc5LmhiIF+8/UeH3zNL27rbzDxs4hlsZitwnExaJokvpZmFMjgVrZEaO605upWH2W/2ZaIYNHiB99ayzhBmzr98TsBVrYeZKomG2BKKJpc+JLWuMQCPsrmlpw2c7HQfC8+2XzNCYoMhBNMMdRBarX7ddgEUXF59YX2b/tEEP6sfGn+dubVhZShtUzBi7XOxFV2zmmDybkknatibrtZ9woJzVsruUh4UVpBE4Ngp7QHHOerz5Bpa7Chf07T7Att6cSj9JPFT5ipoeufRAj+/2zedU3QwBB7wfVbUHNyJ4RsonT4H++7oTT05EohyEYJYqPPcUjAoM3QvVVm+z95+Em3PNHxVIUhTUA2zykxFrT5adyAw28/TVASdci+z7vIR55YaafzR3/ENSd++JKH3ZHhg9DxC2UGeQn+yP0A5NbgyQE9U87PSWR80ZkUjyjpo75hl7Dzyo/0oXMHefN/rFE3oMBfv6UYP+mTZ+u1LS/WEP3k1z91RzY+Z89yDBnbnCagzOfF1JlADEYDCv39q1dedP2Ll7+IbuCXUz5MNdfXfetw5uzM54x6fJwxUXeCtTUHLQd3bPPesvLnVAk+x4ufatjzUUKw0DHMmT2KMmvvryxOPxC5r/7dvYU5kps87C3eYst+8xe+6boDK23iNUgjTrCfknXwUJE27rK6CVKGX9sx8i9+qX748w1YeP3/y7xEuxcP5pwqMr+ZKWN7dDnLtI+05sUsJ/qEbY/W2IemaAkeke7JCcOCfc4PP/rJs59Fym1M6Hrxv+5xq791k3PJOTAzciERu9WH95AY2glwkOMUkFuvfLhcKQnOoPyV8fP1N16eNnkV0i+DwPmtrMCdPWPGTa3QeCUpjLHKfIiW8VVbn2meEvnUk/ZoC7rwweAzgSB1bWKU5gFuFDi/xAV3abW+XrRldPBlWrRxLMreJuMXSH94gHSGQRYAWDlRfRtQhd3k0DtVGORMMmBmgwicjoLNsgq2F38WrB/B/u3uw4XEIGHfStqBiDMldAqz+OiT/mYzaEh8Sm7YpuGf3G+cGCDEPozeAUMWcnYX27GRzSTP32i1G6NtLg4XvI6kPkuHRtU8J2nBx1z7RGP07k+gI4YrrvixqWTzwHd3boPH+BUsXEbjb7bw0JQJFsv3rSHGRbBvyxdK2U1j5/gRfzwtih/6tOg3X+kPbfx2uVkfGgUlTn0Ur+qMuf5oZ+xPH1hzcYcNe2My/TzizYUR3zMn/JgHLadN4x53WwcH+ziHEBsUI0etyov21zfWPUmbKWDHjKtlq9Sdm7piXfctOD8pp+hmL12+4IJfGf7VN3RlKGT62E9h2f7QGxPW+nA6rlUQDCy7ScvkCPsxl2sgw29Q4okRcPDKbTVxoRIc4M8JEv33rU71DK7I899kGjMbH7ZqVa6d+oRtfijwIiBtn7zs0wrrBhaeioSmPP2l3+CowSvh3yR5R3auHujOCuEqlSCF45a5PchFgt362Tf8xeE1xBlr5w/uk/QOwWa+4VzGzzz22erFgOFaNk9AiK2059Zg/BFbXvoevxcewUIJEa34yAum6Js/NMPnVCWbRMGta55j0X5eKJhgCH6YE/QRLBnTJ8idQZpxHIeiKxo1wBp5QoX4Kd7Utck6/m1/PKXxWbg5eaRNJl4GezozeycGYqQ++83iBEKg6rmGe4IlUfayrZ+cITEGq38o6FfYIbkvZM+MvXLI4x5GljbrUrlE+5wjJVBHv7Nw+Lwsp5y+jEt4MmNiu6Icfy0wWd8p+ta8s4d9E1jKAPtYo0x8X23mvhIoweB8yTxBcIIMcrFO37RbGf/3mMc/+oEeiQ7YoMysCxpzCzByoFHXRE+L5JfP0xsDJX82xrke9GGiyMs/C3veW1kJOfLqd/40jSZGIX/KnxLbyKJvf5kyOUHSX/ebrBO401f/lOXc8oUB+bChvBhD4YunrxkgAbAbRkB0pKi7OPNMkgPuzBBwZ3hGgNxwe9ENNCYA4Irg+TSMTh+nQerORAKBnCI4bRwsgwcU5kIZGnX5TF59DskljwVRH1tSc3qMbXshZyPRHhZvvs6fdqaXQVImDn2Urx9sKpEK75bjVDtNqqEhE1876WvNzSWbEnj4F7/0zWAx7eQrCPL5I3l3ICTPXj6h0S1JRdGmv6lET2xOE7SMg236gi34JwbxKX5alqYMedYm6MaL7JvfkeNmN/SM6dYRf1IZmxnv2BMZIOH4uwFwxZiLDQs2NOQbETjUBlPuHqbci5HG9rD6Mkppcv5kDqX27bcsfO1y7pjFbEZNMfF1aDsQigvyubPs9qi0z+jOxUg5S0a0uximCwZTmGpwcpjckCRHvrZbJrebqjxu97RmB0QJkGjzIqvvPtSs0Kl7kVGBQmazpaa4pPGZjVnhpDkhtU6Fl+0TKLDGIBo45BaRUx2WuU0FPxVV3PorQBk6l7TrQ8otG3hkUTdDmUBvB1p+E8kTlQw1xiaAoC4+nqbeggrEZ7wf9Yzi2O4HCO3KNKWw9SXw0+YETvIYBG3/5oLobcVcEOHxNCb+mWPDba7EHYygMZiSGzj4jI/BjszKzo+KhofgD70+dJ6ljE+yZQxxLgEtY6hPe4x2rk7Tzje21oVbW50k+popSZ5x8al4XrFZn6Br1z1AgpANGJy1kTIWo58gKGVzKewp0uj+f9aRkbUVDxSpfi18TBIG97n026a+TV/G2DFPtKvffY88fFO2zyDv/Ldt+ovd2AF2u6yKzM4UhlNGUqTSH/MzLuYJSNjjlLhPUxgeeAyomOPIck1m3ju29odZyx0DZ2XkWd6DBcixJ3pHufLhzDi5b9luUORYKSXBMbmBEdOCeQTNPH+UGbvZyyDCYx/fR7q2TJr9FvswMsEN5Dnh0mdpEsgZS32XJ6dkkPX3hoFqUpcOFzpd3zNiz1rl8/WV05cMkEQtR9Dm/DnAGSJnlEMsqhbZeMwFf3/68lbBzB6mUj6Se+joFGNSMLh5Dof6XADsqAxkRocTDH7KaU+zG3mmB7V72gObHIOcRDPc5NlZ5aVfygZE0LPz2J4plcnoJ7UdDLjIlTH/15zyqIWW4svb3YfhlSE0/eSqFHn6l6seNH3kGN3lE5qbILzWxUcpOWERVP5tqcK+F1Co+vJgV1yXO74un+M7fkqL3wsD+HJLLTLQGjkuJPurUSyVQTEyU7CyEnV9IuWnHtLF8XOm2MaLoxJtnoA6nEwFdNkNd9c0wkJ4hYA+bj7++SjliHcOTF/fX5Ly1Y0MVSrUC06S5tN4e9kMTd4JjCi6ccG/ZWhKPIBw88suWoXs4JP6vA1GdMLI9Jsdc+Rhmxcnl4dKEkhQMS6cAIl26dSdL/pp/Bx2y8ECOzRKEdLMU9NOcSKN8Sw3WmLj9LCXF3vtygUCZgOanBrRmLI0AbMrWYbcXFlqUGk0QjTZn2ICI3PGzZnrJUU/vBTqp/3mmULL85pfUKYTdXlzq43GZX7E39+cIGOH5s24Lb9WXRuCwfLLgDZ+0q6Nt5Mny6FZGDz2OI5/Y6+eOH81UPcdO30xyW8A5O3Dv5NrP//I8dt65q8zd8bRPhlTuWSct8jRGLWY5sKF3Rq4iLmQaYABovp5S7MTyTI0fRt++4kC9TxbuGzQdv4MmFbIlDJc4Z1c2WOv8pdACyvJZZp9IXu/iIPR7IfmdoRm5Bg7KK986gPgGrngpkRh3rSUVz00RWYcwqmYuLqvDWKmLRNEGACMHc4Ty+7q8qrZwFlxhgbDN7JiFYLNM9dxVV/kdWyVpfdSRFfQncdimUCUsnNsgiGxJgiyL7nrwblj0OQp3tDRFJkZKaTQSJr3FKesASQzNWvzHSkoy0b3TFvEIOuR2j4VmqsarfEPPrGwvOta6LpD+ehB0BdPXzNAErQZnxt8zluHxr8MrkCvBTwnAnZwETMhiJbyycUp4ozL9KHopuIqNyjwxcBlwNRinV75QigKnHq+fyvNAlXE2IRZ2azkj43a5jJQn3p8rWBoLaXQXNTa7LJyIcztOHgViNOzIbxa4SaoyMm1U1z0iaLRorL0nR00XxNnx5Ujz2aJC3aJW243OmOXv7cf5HS1RhhZSgpGgvZKR7YcTv7BcvmqH/pMniNhgsF860Q8FBHDXDSPgSHkyLWv5vMWXisp2DH4ZIFLDiVUumoXvvhHQ+xLeUq5GOGPuReV+EHmMzDTpnDl27ZzZKZ+15/G25v0kT9KxYP+2qEv8cF2+LyKhWYX29LV7tjNm//syp8XFnl28jITesbbTdBnBTwNtfNk6ZuqstGPj16w3aB0IRs87XM6MfqlB4rMO3gRuT/pb4zE3rEUh306EdOQxT/MHB36k81emjaR/FAR18BBKGZDhR+GCSLcYDVOSWT5G77oC3W/yYMN6ssfuTrVRSCWleZJUeyEyFoe/xwTXjkZHT8civhlX6Is25WtBXllX7AuhlAcKzTYx3FFyvhFORdBbYqPWe1yjm3SEZk6+ewT0SDHiMSWuajbTlm7U6CuAyauOq6H+JM5rDBP9ZzLzAZyv+E5QfX0ybyV7t8SE/125S8uoccxiX8y8Upg53wTWHhttJ+RduaVa9bziwA/drjn+N8hZb+FPmOHPTktVjkcy5bYrC66xkb9O0lj6+AtUGMxgQATWPvvXmiba2FS9g74PQfHyNGTJsv205r1WhiGRpOSTWq7BavhXhbQnDZ4gon5ehlMiKl4Dh6UUbS/8Tb9xm/tn37gPCR6Iouxd824Jm131dsv1jpOjLHSaY4up3GCIPYLdRkw6YNBUW55QrPuujVliMnt95iUJ8umP/lIo72ljS3W+cNw4fSEKH7DM3zTbqBkyjiSbx5b1XdLS34634hfq/CXX375Rd/+uDS79F2/F4intOpBdhagk2mqvLv43NSkSLScj8NOpmm3IReLW10+mbOU0sdaZMmTVwi+zYIJQ6p5OztVcqvOzHFCO+rOIl/WUp7pN5siyyrIyzP9IpPZ6oTd6rJh3tWmNP4+E/3mgGlvjllMoUFPk7hY9kRNwmCZDS18C+ebZqXFQAvfTQn4ZH3w1cVpPVtHxPDGZmbQNHQx2Xgpfur6vg9kv6s0jQYMEX5nXTjcCZHMfz0SEB7JucDsjXrnL9Pvqce9MgHQvX4s3TbR5e9ju23+rsxjymzN6d4j9VtlfT74DWX7sHP/e469vGajBC8uMpkG9neuAYs8PsPymo6YHfWudjdMO2e8zd2kmWfkdzqrg1NNaaad55bUcE3DN96dF3Ph009nL4lCyjiQizD5BHJeyFd78uljcSwaI2YXWT5M42q/VVLIrbKndTEXCOeAYzmBhjPd4M825Q+PAjJXnvov+yN9v3FxS/RGW5aiYzMPmmvh+EO+fJ5e6Fnm54ciz3AUoIfk2tfOe6KMmJzm3Yi244u3oJPANQvDMYQZH/2Lcsr+58ejeqjSJ9jb9SXmLNOfAz2S9wRJm3j6WsnJkGTuWE995KxyMt6c42bwnOsZSbttei/pEK27i+31PC3gRVs+pmDn5hGt8O6cBtv+8bCpAFeS8nZ5KL7LHVR3ceZ1qPNmd6eH+17mAmURlGae9oWp89uAaamkRELFunqmutvGi5CWFZSRMxYN3Xd/7DJ+0rD7xOdVl1/f8t+o0N+1YYq/5kviUKmHJyxf8u3rniCdwOVwBW9unXlpzMRnhD11ybexMjpswtBcoC4J8F859cyGmUROqT1o9wBrT4gw3izIoD6T2PT25nFjQ+kado2MoSu/1ekTujbJa50MmrZY9/DHZE2VQ5dyT/tTwabIG7l0MLrXt/FEDGwTDwQ74UOAcYChURzssxRH6zgbVvt/N8k1n+Ii2zde/sWGUQhNX/cFUn+3PoVP4Dhq3tM6vHFtF1f32TgeicHRh7QP6V9+8h5Xb/lcB155D13jzoB7bJn6HjcvjscgV+k+p/GcliHPxB+qqdNNc+duTvlUGwBmyA1SHOI9h+TXEo/Jn9OsnSPtBHGHO2ly9KPCb2ZlhCEO3bHf8w8pIVpX71H3s1ZrqnDVZ/VS0e4IRo7LLt/qWnZ4qpJEHump2+gLymr2dO6Yxp4laDXqx1wWIo2aPo1fmdawp54WePQzPCHwthSONdRJNxUUsm+wAt1TYPVXqpPD5nMe9yBXOewRBoLKSArKGb9H6rRBuTOGFLscmeA+XKJ6t2dovjtVkmKrlTtfxGYM3T8M9qWEmtOMWSBT39tiZB3ecpE/GqmkyJZZ5RusZdCu2uxjFCulD8ruAQCMWw4DNdYoe/cYix/rwnJrXoVkuzNdrStWa8aiFSSvvspg2cPHH76l/11lSlvGA6TLvnS82ZqxQd620X4GZyb9va1f69Hkmhr64666+9vPvVcRj7SsJxtJG4PHa9yeLu4T+r7n95y2TZ/4bKMyeD0FRyhcTWkPz/LjRviChesESO5EpAykMySRBIOV2ULOQplBZlNwgjB1M9DzcYwBo082FkfFwMF2h1FZ9J8po4qV5PPFVED3DPtuc7CPFDdptyj5actLfvl2XS2rnnzJ2b7ZtNrVvFgsPaX9mxVPxJjKWyYwgshjg3m0YptYZTOTJO++QIiHfA9J1ofq94riPXCAUwpuUvZHQnAYSdZvgdHim47ybYzf1ToWHcdBL84knJ345TQLHOJ5cKKzn5DfSOPvCaNyaNx27fzIGZ0H4rLkQH2vGj1Lt+vAejYo3NmuJV+Ko4uyNC8x9xsVWx8zYnfcpCC78bl7MEGFbo/esK9IXzt2++4RCYvX8pZ4U3NSGGy8GI/Nd3/tz5/bw7LXM4Wbf8railNQmwT9s/E5Re4zaeTzPmnlZDuY0qY8t4M8bVF+aHbYV5abEdM+4ixvntVzycgYukexZhN+aCv7VcYkc3T1XXZJP7oze80z1V6z7z3qhnYzePNzCrBYIgc/krNnJBBB73ASOj4E+6GFd1rnIrz3mfFRl3eakdo6hzr6tn/SYvXu8ly/2Th82fs5iRu92jgMd/8epgNd5HvSTt0et2FTLGmkPJZHsnLnD57dFzanY7RDzP44XfMe+Uvihl197sLr380mafI82qjNM91nzG3LS12UDRC333tdP/bX3qPfT+2aAUG+nbadqdtOwR07p6NrIUnLrWGY478ylvE7WLL/I7Z3DbZ8vXShAAkoHUWzDbwE0Zbu9HpEPkzyujjXdNkLmUAmg+mne0Vmc1GOMtaQRVYE0+5wP6dpeaa5k0VuZDixfYQUzlWfXB6d2HrIU5yFNBJXm5y7eFB1rA6fPrA49BlCXMDn2Ty1g165kqBLfLBO/qToWWXZFvs0fv89KO4Tte2rcpeujelteKAPbXxWazDRZu2IGXn7vuKT1lv3Q1uCwwMtvJoJfcMwtQPjaZU5dO9051hTJcECkn1e48yTwf/e7SMl8VuClO+m5F9syHjQuBkoPtvwOsdfbMqcfRCwGRbJsdtj7YeFWHOjOS/tAP2RJjpnAG3ZK7ePD0cPO5WsLDRYhBgRKVNbE20PT1xPG2973dEr9tn9KS0hTzSlPxo5+8eerLd9R/HI3xiMbdJ2X/LbIlCBdPX5GlwoDHkVfJbsRvLEc9emQG0XzuwO8+HtjG/0P9mGzbezGZq3ljxfeBDxuD8OvHLPmMz7TdLBFqqRtaXv5u3nvT4GbMXmvpD+hOfQ5za+rVNXumxKjSbJJMupp3Z/exQ5EvY8u/NMKUInUIDgfHLvTeDA4C81Lzpiy2pMtoyY+TINvkv2VMaCuC62W/BhPdcX9cqHgFztqGxc9gnPjMvI2GV63NOerJuCvMFsCBuT3Vcf889+2zBYnfu7bZODx5YLUVOvkq4TIM1oMBgiPBf9nOxQn/vjbPBpm4GzPIFChmvakJGLGptOWP1qfArIHMJh9Bxil9WB/I3R3XMl/AYHBgL0tp54WwbnUwguX/6s3wIJ2DK5IX4n3ZfeA5MzOIqloffmF+XMbpcOaekaZi+KBoVpWW8IsR4bH+nfK7u5rwtsVvTgHA8RvvN9r2AHR/bZ6GiES2vULlu/pzJt4vdk/H/scWSw//0CRuveCY6MJ/X5JH3SIEm7tm0z4E+MZ3Y/2fHE/Z8ronfDMuqlHJPj9Ehbg0yWYXtsovxidrDZAnauzClPNvXZSEdfWvM2+uS/BRUyTveD9kMV3crn/eZpPMbIkTf8lnO7OPNfH0CFfn5DKym6FOTLJzSe0/jwTFPnJOx/mh/6M694hszsSRGyP2ztvntOr/om31Td52FkLS8dl+1nTiJsVP5tLEbQizgtexnAUXabGTdfnDmjdZsTFXkmSu3aYNK/u6bdw4eR72nw9lt288Hz3nJeUuZzS8zecD01yXhnzjjv50gXnzb9Y9lj+T522LN4dCjDb32Vd9MNkkUYjTPrJG0ZQQxmsRShnbtoRGPz2ScBmwV0hc5b5qwGmhbzljTEIe/bxXu47eIumTmhHOc3NCmZE1QSHC3Zjyc34YNtzwsx2Endj8maks0fMYlYiJkVDNx9Bx+FMxOmZ/raP/zWllGUTNunqX3N97/88ssvWv6l0h7AR6NmmT4D/Nh+K7Mw/ar+MR1l6vT6cPbEeuSz8XFTeGI+VL7V99g/3wx62lSccFF0kPgjVbF5xme+jfRM0+fB8i579tFnPhfP6R5173YrHf27NRwK/8rXgQ/E06oWPk/Ld3WciiuxCBSBn4bA2b7305S9IfjMnnwH4XlLOZeU/fG86ZGqqGNQYfvvsU+d+fdo2y67o/u1/0+mXDMPIs98PqN90o7fS9aFTpDehWSm7pH7OGCzVg4jfey068ePOJv+kr+uwPNThle+F1E/TDjz2xDnWdd83jgID8szn92OgdSh10P10Peh5V58h+fO3VIRKAJF4NcgcNzrleFJ3Du7/dtb/TvCfo3xH+5zFsT9FhXZxf+LtvI/YYBkFP945DvT4Szqfjxi3JPmtO9bS2t/enhj9ry9CrdVvy4/2yhmwbyu7jN83tOKxN/Jn/fsKVcRKAJF4BWBN3bm107foijsdRv9FvcfQv+ov9uDC/i9Tf1E/ucLkLhYv0TNTuTTo8bXm0jnc/69qTZ3n5+HJbYcu0fJuabn3j9QO3mQ/Kg20s7OSE/xOd7k+pYtBkivAem3uEsvAkWgCPxMBM4+sJ3uhSdGZFd+h/ln7OEn9vxW0noC97eKee5/wOfXf7h+FvsVa3++AMl7Q2exx5GWQX69sJ8trrcnAIHCYe58Y8yPxnyD7aeRn608t0ae85YXs86O4l6YIJwGqWeMpRWBIlAEfh0CZ3v4j0h6a9dzL3uL8Uc0f573t2LxjkVvXx/fEfbFeL5kgHQ2qPMg8fOF/ZtYnrG9eRvIX+R9TWcCz7jefGrnxJYzra8avkN5z0QEnDCG9Eo/m/inY/Mds56bXnWcybPPK+ezpNaKQBH4Ggh8aw3/Udad7Vs/Ysvbe8/JPv4jen4t74/g/VuxeMfGH7HnHXlfiedLBkh/JEB/5sH+UVyLxY8iVv4iUASKQBH4syDw+hDOn8Wz+lEEikARKAJFoAgUgV+JQE+QDsD9llOT3+M482DuT62eYfFn8/GnAljhRaAIFIEicFkEeoJ02aH7yYb/QffXf7JXFV8EikARKAJF4C0ELnOCdHaa8ZaHvyPTFWz8rXD8N/j4WzFq/yJQBIpAEbg+Aj1Buv4Y1oMiUASKQBEoAkXgwwg0QPowoBVXBIpAESgCRaAIXB+BBkjXH8N6UASKQBEoAkWgCHwYgQZIHwa04opAESgCRaAIFIHrI9AA6fpjWA+KQBEoAkWgCBSBDyPQAOnDgFZcESgCRaAIFIEicH0EGiBdfwzrQREoAkWgCBSBIvBhBBogfRjQiisCRaAIFIEiUASuj0ADpOuPYT0oAkWgCBSBIlAEPoxAA6QPA1pxRaAIFIEiUASKwPURaIB0/TGsB0WgCBSBIlAEisCHEWiA9GFAK64IFIEiUASKQBG4PgINkK4/hvWgCBSBIlAEikAR+DACDZA+DGjFFYEiUASKQBEoAtdHoAHS9cewHhSBIlAEikARKAIfRqAB0ocBrbgiUASKQBEoAkXg+gg0QLr+GNaDIlAEikARKAJF4MMINED6MKAVVwSKQBEoAkWgCFwfgQZI1x/DelAEikARKAJFoAh8GIEGSB8GtOKKQBEoAkWgCBSB6yPQAOn6Y1gPikARKAJFoAgUgQ8j0ADpw4BWXBEoAkWgCBSBInB9BBogXX8M60ERKAJFoAgUgSLwYQQaIH0Y0IorAkWgCBSBIlAEro9AA6Trj2E9KAJFoAgUgSJQBD6MQAOkDwNacUWgCBSBIlAEisD1EWiAdP0xrAdFoAgUgSJQBIrAhxFogPRhQCuuCBSBIlAEikARuD4CDZCuP4b1oAgUgSJQBIpAEfgwAg2QPgxoxRWBIlAEikARKALXR6AB0vXHsB4UgSJQBIpAESgCH0agAdKHAa24IlAEikARKAJF4PoINEC6/hjWgyJQBIpAESgCReDDCDRA+jCgFVcEikARKAJFoAhcH4EGSNcfw3pQBIpAESgCRaAIfBiBBkgfBrTiikARKAJFoAgUgesj0ADp+mNYD4pAESgCRaAIFIEPI9AA6cOAVlwRKAJFoAgUgSJwfQQaIF1/DOtBESgCRaAIFIEi8GEEGiB9GNCKKwJFoAgUgSJQBK6PQAOk649hPSgCRaAIFIEiUAQ+jEADpA8DWnFFoAgUgSJQBIrA9RFogHT9MawHRaAIFIEiUASKwIcRaID0YUArrggUgSJQBIpAEbg+Ag2Qrj+G9aAIFIEiUASKQBH4MAINkD4MaMUVgSJQBIpAESgC10egAdL1x7AeFIEiUASKQBEoAh9GoAHShwGtuCJQBIpAESgCReD6CDRAuv4Y1oMiUASKQBEoAkXgwwg0QPowoBVXBIpAESgCRaAIXB+BBkjXH8N6UASKQBEoAkWgCHwYgQZIHwa04opAESgCRaAIFIHrI9AA6fpjWA+KQBEoAkWgCBSBDyPQAOnDgFZcESgCRaAIFIEicH0E/h9lx0CFjoUkQgAAAABJRU5ErkJggg==;" vertex="1" parent="1">
          <mxGeometry x="900" y="570" width="134.77" height="63" as="geometry" />
        </mxCell>
      </root>
    </mxGraphModel>
  </diagram>
</mxfile>
